<?xml version="1.0" encoding="utf-8"?>
<!-- Generator: Adobe Illustrator 21.0.0, SVG Export Plug-In . SVG Version: 6.00 Build 0)  -->
<svg version="1.1" id="Layer_1" xmlns="http://www.w3.org/2000/svg" xmlns:xlink="http://www.w3.org/1999/xlink" x="0px" y="0px"
	 viewBox="0 0 555 250" style="enable-background:new 0 0 555 250;" xml:space="preserve">
<style type="text/css">
	.st0{opacity:0.54;fill:#8C3FA5;enable-background:new    ;}
	.st1{opacity:0.54;}
	.st2{fill:#8C3FA5;}
	.st3{fill:#44489A;}
	.st4{fill:#547EBE;}
	.st5{fill:#FFFFFF;}
	.st6{fill:#82CFD0;}
	.st7{fill:none;}
	.st8{fill:#2EBEC7;}
	.st9{fill:#EEECEC;}
	.st10{fill:#546D7F;}
	.st11{fill:#BFBDBD;}
	.st12{fill:#183C51;}
	.st13{fill:#F38020;}
	.st14{fill:#EEB31F;}
	.st15{fill:#F7CB6B;}
	.st16{fill:#E93859;}
	.st17{fill:#BB3548;}
	.st18{fill:#DEF1F3;}
	.st19{fill:#E6C536;}
	.st20{fill:#CDAF2F;}
	.st21{fill:#A5DBE2;}
	.st22{fill:#275768;}
	.st23{fill:#1E485B;}
	.st24{fill:#00A4A1;}
	.st25{fill:#01B9AF;}
	.st26{fill:#E5E6E6;}
	.st27{fill:#475059;}
	.st28{fill:#6DBAC1;}
	.st29{fill:#DD665E;}
	.st30{fill:#3B4450;}
	.st31{fill:#908F8F;}
	.st32{fill:#7EBFC7;}
	.st33{fill:#231F20;}
</style>
<rect class="st0" width="555" height="250"/>
<g class="st1">
	<g>
		<g>
			<g>
				<path class="st2" d="M380.2,191.6l9.2-3.3l-3.3-9.4l-9.2,3.3c-1.8-3.1-4.2-5.8-7-7.8l4.2-8.8l-9-4.3l-4.2,8.8
					c-3.4-0.9-6.9-1.1-10.5-0.5l-3.3-9.2l-9.4,3.3l3.3,9.2c-3.1,1.8-5.8,4.2-7.8,7l-8.8-4.2l-4.3,9l8.8,4.2
					c-0.9,3.4-1.1,6.9-0.5,10.5l-9.2,3.3l3.3,9.4l9.2-3.3c1.8,3.1,4.2,5.8,7,7.8l-4.2,8.8l9,4.3l4.2-8.8c3.3,0.9,6.9,1.1,10.5,0.5
					l3.3,9.2l9.4-3.3l-3.3-9.2c3.1-1.8,5.7-4.2,7.8-7l8.8,4.2l4.3-9l-8.8-4.2C380.6,198.7,380.8,195.2,380.2,191.6z M354.3,213.4
					c-9.9,0-17.9-8-17.9-17.9s8-17.9,17.9-17.9s17.9,8,17.9,17.9C372.2,205.4,364.2,213.4,354.3,213.4z"/>
			</g>
		</g>
	</g>
</g>
<g class="st1">
	<g>
		<g>
			<g>
				<path class="st2" d="M351.3,59.5l9.2-3.3l-3.3-9.4l-9.2,3.3c-1.8-3.1-4.2-5.8-7-7.8l4.2-8.8l-9-4.3L332,38
					c-3.4-0.9-6.9-1.1-10.5-0.5l-3.3-9.2l-9.4,3.3l3.3,9.2c-3.1,1.8-5.8,4.2-7.8,7l-8.8-4.2l-4.3,9l8.8,4.2
					c-0.9,3.4-1.1,6.9-0.5,10.5l-9.2,3.3l3.3,9.4l9.2-3.3c1.8,3.1,4.2,5.8,7,7.8l-4.2,8.8l9,4.3l4.2-8.8c3.3,0.9,6.9,1.1,10.5,0.5
					l3.3,9.2l9.4-3.3l-3.3-9.2c3.1-1.8,5.7-4.2,7.8-7l8.8,4.2l4.3-9l-8.8-4.2C351.7,66.6,351.9,63.1,351.3,59.5z M325.4,81.3
					c-9.9,0-17.9-8-17.9-17.9s8-17.9,17.9-17.9s17.9,8,17.9,17.9S335.3,81.3,325.4,81.3z"/>
			</g>
		</g>
	</g>
</g>
<g class="st1">
	<g>
		<g>
			<g>
				<path class="st2" d="M270.3,41.3l5.8-2l-2.1-5.9l-5.8,2.1c-1.2-2-2.6-3.6-4.4-4.9l2.6-5.5l-5.6-2.7l-2.6,5.5
					c-2.1-0.6-4.4-0.7-6.6-0.3l-2.1-5.8l-5.9,2.1l2.1,5.8c-2,1.1-3.6,2.6-4.9,4.4l-5.5-2.6l-2.7,5.6l5.5,2.6
					c-0.6,2.1-0.7,4.4-0.3,6.6l-5.8,2.1l2.1,5.9l5.8-2.1c1.1,1.9,2.6,3.6,4.4,4.9l-2.6,5.5l5.6,2.7l2.7-5.5c2.1,0.5,4.3,0.7,6.6,0.3
					l2,5.8l5.9-2.1l-2-5.8c1.9-1.2,3.6-2.7,4.9-4.4l5.5,2.6l2.7-5.6l-5.5-2.6C270.5,45.8,270.6,43.6,270.3,41.3z M254,55
					c-6.2,0-11.2-5-11.2-11.2s5-11.2,11.2-11.2c6.2,0,11.2,5,11.2,11.2C265.3,50,260.2,55,254,55z"/>
			</g>
		</g>
	</g>
</g>
<g>
	<path class="st3" d="M211.7,92.2V16.3c0,0,9.2,1.3,9.2,7.7s0,77.8,0,77.8S221.3,92.2,211.7,92.2z"/>
	<g>
		<g>
			<g>
				<path class="st4" d="M211.7,92.2V31.6H129c-0.7,0.1-6.9,1.1-7.5,7.6v2.3V110l0,0c0,1.9,0,3.6,0,4.8l0,0c0,0,1.6-4.7,9.1-4.7V110
					h1.8h80.7c0,0,0,0,0.1,0c0.7-0.1,6.9-1.1,7.5-7.6v-2.3C220.1,91.7,211.7,92.2,211.7,92.2z"/>
			</g>
		</g>
		<path class="st3" d="M121.6,114.9L121.6,114.9c0,1.3,0,2.3,0,2.8c0,6.4,9.2,7.7,9.2,7.7v-15.2
			C123.2,110.2,121.6,114.9,121.6,114.9z"/>
	</g>
</g>
<g>
	<polygon class="st5" points="179.3,60.3 176.9,60.3 176.9,59.9 178.9,59.9 178.9,52.2 153.1,52.2 153.1,51.7 179.3,51.7 	"/>
	<polygon class="st5" points="185.4,56 179.1,56 179.1,55.5 185,55.5 185,41.2 185.4,41.2 	"/>
	<polygon class="st5" points="199.2,85.4 180.8,85.4 180.8,84.9 198.7,84.9 198.7,55.6 187.7,55.6 187.7,41.2 188.1,41.2 
		188.1,55.2 199.2,55.2 	"/>
	<polygon class="st5" points="155.7,91.7 142,91.7 142,73.4 142.6,73.4 142.6,91.2 155.1,91.2 155.1,89.2 155.7,89.2 	"/>
	<rect x="177.3" y="36.4" class="st5" width="18.6" height="4.3"/>
	<rect x="139.5" y="103" class="st5" width="18.6" height="4.3"/>
	<rect x="148.6" y="91.7" class="st5" width="0.6" height="10.6"/>
	<polygon class="st5" points="143.4,57.7 145.6,57.7 145.6,57.1 144,57.1 144,53.2 149.1,53.2 149.1,52.6 143.4,52.6 	"/>
	<polygon class="st5" points="140.1,55.6 143.7,55.6 143.7,55.1 140.6,55.1 140.6,39.3 140.1,39.3 	"/>
	<rect x="135.5" y="36.3" class="st5" width="9.6" height="2.2"/>
	<g>
		<path class="st5" d="M147.5,57.4c0.2,0.2,0.5,0.3,0.9,0.5c1.6,0.8,3.8,1.9,3.8,6.2v1.2l1-0.7c0,0,3.1-2.1,7.3-2.6l0.6-0.1v-0.6
			c0-0.4-0.9-2-3-3.5c-1.8-1.4-5.1-3-10.4-3h-0.2l-0.1,0.1c-0.3,0.2-0.7,0.6-0.8,1.1S146.9,57,147.5,57.4z M157,58.7
			c1.1,0.8,1.8,1.6,2.3,2.2c-2.6,0.5-4.8,1.5-5.9,2.1c-0.4-4.2-2.9-5.4-4.4-6.2c-0.3-0.1-0.5-0.3-0.7-0.4c-0.1-0.1-0.2-0.2-0.3-0.2
			C151.6,56.2,154.7,57,157,58.7z"/>
		<path class="st5" d="M153.1,77.3l-1-0.7v1.2c0,4.3-2.2,5.4-3.8,6.2c-0.3,0.2-0.6,0.3-0.9,0.5c-0.6,0.4-1,0.9-0.9,1.4
			c0,0.5,0.4,0.9,0.8,1.1l0.1,0.1h0.2c5.2,0,8.5-1.6,10.4-3c2-1.5,2.9-3.1,3-3.5V80l-0.6-0.1C156.3,79.4,153.2,77.4,153.1,77.3z
			 M157,83.3c-2.3,1.6-5.5,2.5-9.1,2.6c0.1-0.1,0.1-0.1,0.3-0.2c0.2-0.1,0.4-0.2,0.7-0.4c1.5-0.8,4-2.1,4.4-6.2
			c1.2,0.6,3.3,1.6,5.9,2.1C158.9,81.7,158.1,82.5,157,83.3z"/>
		<path class="st5" d="M168.3,70.9c0,3.7,3,6.6,6.6,6.6c3.7,0,6.6-3,6.6-6.6c0-3.7-3-6.6-6.6-6.6C171.3,64.2,168.3,67.2,168.3,70.9z
			 M175,65.5c2.9,0,5.3,2.4,5.3,5.3s-2.4,5.3-5.3,5.3c-3,0-5.3-2.4-5.3-5.3C169.6,67.9,172,65.5,175,65.5z"/>
		<path class="st5" d="M152.5,65.6V70l-0.8,0.1v-4.4c0-0.1-0.1-0.2-0.2-0.2h-1.1c-0.1,0-0.2,0.1-0.2,0.2v4.5l-0.9,0.1h-0.5h-0.4
			c-0.1,0-0.2,0.1-0.3,0.2v0.1l0,0v0.2v0.3l0,0c0,0.2,0.1,0.3,0.3,0.3h0.4h0.5l0.9,0.1V76c0,0.1,0.1,0.2,0.2,0.2h1.1
			c0.1,0,0.2-0.1,0.2-0.2v-4.4l0.8,0.1v4.4c4.2,2.7,11.6,4.5,20,4.5c4.1,0,7.9-0.7,11.2-1.7v-8v-8c-3.3-1-7.2-1.7-11.2-1.7
			C164.1,61.2,156.7,63,152.5,65.6z M182.4,70.9v7c-3.3,0.9-6.6,1.4-9.9,1.4c-4,0-7.9-0.4-11.3-1.2c-3-0.7-5.5-1.6-7.4-2.7v-3.6
			l5.2,0.4c1,0,1.2-0.8,1.2-1v-0.1l0,0v-0.2v-0.3l0,0v-0.1c0,0,0-0.1-0.1-0.2c-0.1-0.3-0.4-0.8-1.1-0.8l-5.2,0.4v-3.5
			c1.9-1.1,4.5-2,7.4-2.7c3.4-0.8,7.3-1.2,11.3-1.2c3.3,0,6.6,0.5,9.9,1.4L182.4,70.9L182.4,70.9z"/>
		<path class="st5" d="M175,75.2c2.4,0,4.3-1.9,4.3-4.3s-1.9-4.3-4.3-4.3c-2.4,0-4.3,1.9-4.3,4.3C170.7,73.2,172.6,75.2,175,75.2z
			 M175,67.8c1.7,0,3,1.4,3,3c0,1.7-1.4,3-3,3c-1.7,0-3-1.4-3-3C172,69.2,173.3,67.8,175,67.8z"/>
		<path class="st5" d="M185,62.9v8v8c7.5-2.3,12.5-6.2,12.5-8S192.5,65.2,185,62.9z M193.1,73.7c-1.9,1.3-4.3,2.4-6.8,3.3v-6.2v-6.2
			c2.5,0.9,4.9,2,6.8,3.3c2.3,1.5,3,2.6,3.1,2.9C196.1,71.2,195.4,72.2,193.1,73.7z"/>
	</g>
</g>
<g>
	<polygon class="st6" points="155.3,14.9 110.5,76.2 119.2,82.4 163.8,21.1 	"/>
	<g>
		<g>
			<line class="st7" x1="111.9" y1="74.4" x2="114" y2="75.9"/>
			
				<rect x="112.7" y="73.8" transform="matrix(0.5892 -0.808 0.808 0.5892 -14.2771 122.149)" class="st5" width="0.6" height="2.7"/>
		</g>
		<g>
			<line class="st7" x1="112.6" y1="73.4" x2="113.7" y2="74.2"/>
			
				<rect x="112.8" y="73.1" transform="matrix(0.5888 -0.8083 0.8083 0.5888 -13.1456 121.7328)" class="st5" width="0.6" height="1.3"/>
		</g>
		<g>
			<line class="st7" x1="113.3" y1="72.5" x2="114.4" y2="73.2"/>
			
				<rect x="113.5" y="72.2" transform="matrix(0.589 -0.8081 0.8081 0.589 -12.1091 121.9165)" class="st5" width="0.6" height="1.3"/>
		</g>
		<g>
			<line class="st7" x1="114" y1="71.5" x2="115" y2="72.3"/>
			
				<rect x="114.2" y="71.2" transform="matrix(0.5887 -0.8084 0.8084 0.5887 -11.014 122.104)" class="st5" width="0.6" height="1.3"/>
		</g>
		<g>
			<line class="st7" x1="114.7" y1="70.5" x2="115.7" y2="71.3"/>
			
				<rect x="114.9" y="70.3" transform="matrix(0.5892 -0.808 0.808 0.5892 -9.9974 122.2448)" class="st5" width="0.6" height="1.3"/>
		</g>
		<g>
			<line class="st7" x1="115.4" y1="69.6" x2="116.4" y2="70.4"/>
			
				<rect x="115.6" y="69.3" transform="matrix(0.5889 -0.8082 0.8082 0.5889 -8.9088 122.417)" class="st5" width="0.6" height="1.3"/>
		</g>
		<g>
			<line class="st7" x1="116.1" y1="68.6" x2="118.2" y2="70.2"/>
			
				<rect x="116.9" y="68" transform="matrix(0.5888 -0.8083 0.8083 0.5888 -7.8872 123.2705)" class="st5" width="0.6" height="2.7"/>
		</g>
		<g>
			<line class="st7" x1="116.8" y1="67.7" x2="117.8" y2="68.5"/>
			<rect x="117" y="67.4" transform="matrix(0.589 -0.8082 0.8082 0.589 -6.7882 122.7651)" class="st5" width="0.6" height="1.3"/>
		</g>
		<g>
			<line class="st7" x1="117.5" y1="66.7" x2="118.5" y2="67.5"/>
			
				<rect x="117.7" y="66.4" transform="matrix(0.5891 -0.8081 0.8081 0.5891 -5.727 122.8758)" class="st5" width="0.6" height="1.3"/>
		</g>
		<g>
			<line class="st7" x1="118.2" y1="65.8" x2="119.2" y2="66.5"/>
			
				<rect x="118.4" y="65.5" transform="matrix(0.5888 -0.8083 0.8083 0.5888 -4.654 123.1393)" class="st5" width="0.6" height="1.3"/>
		</g>
		<g>
			<line class="st7" x1="118.9" y1="64.8" x2="119.9" y2="65.6"/>
			
				<rect x="119.1" y="64.5" transform="matrix(0.589 -0.8082 0.8082 0.589 -3.5971 123.2477)" class="st5" width="0.6" height="1.3"/>
		</g>
		<g>
			<line class="st7" x1="119.5" y1="63.8" x2="120.6" y2="64.6"/>
			
				<rect x="119.8" y="63.6" transform="matrix(0.5894 -0.8078 0.8078 0.5894 -2.5838 123.3951)" class="st5" width="0.6" height="1.3"/>
		</g>
		<g>
			<line class="st7" x1="120.2" y1="62.9" x2="122.4" y2="64.5"/>
			
				<rect x="121" y="62.3" transform="matrix(0.5891 -0.8081 0.8081 0.5891 -1.6127 124.1759)" class="st5" width="0.6" height="2.7"/>
		</g>
		<g>
			<line class="st7" x1="120.9" y1="61.9" x2="122" y2="62.7"/>
			
				<rect x="121.2" y="61.7" transform="matrix(0.5886 -0.8084 0.8084 0.5886 -0.4005 123.87)" class="st5" width="0.6" height="1.3"/>
		</g>
		<g>
			<line class="st7" x1="121.6" y1="61" x2="122.7" y2="61.8"/>
			
				<rect x="121.9" y="60.7" transform="matrix(0.5892 -0.808 0.808 0.5892 0.6235 123.9175)" class="st5" width="0.6" height="1.3"/>
		</g>
		<g>
			<line class="st7" x1="122.3" y1="60" x2="123.4" y2="60.8"/>
			
				<rect x="122.6" y="59.8" transform="matrix(0.5891 -0.8081 0.8081 0.5891 1.6927 124.1523)" class="st5" width="0.6" height="1.3"/>
		</g>
		<g>
			<line class="st7" x1="123" y1="59.1" x2="124.1" y2="59.9"/>
			
				<rect x="123.3" y="58.8" transform="matrix(0.5889 -0.8082 0.8082 0.5889 2.7721 124.3073)" class="st5" width="0.6" height="1.3"/>
		</g>
		<g>
			<line class="st7" x1="123.7" y1="58.1" x2="124.8" y2="58.9"/>
			
				<rect x="123.9" y="57.8" transform="matrix(0.5887 -0.8084 0.8084 0.5887 3.862 124.475)" class="st5" width="0.6" height="1.3"/>
		</g>
		<g>
			<line class="st7" x1="124.4" y1="57.2" x2="126.6" y2="58.7"/>
			<rect x="125.2" y="56.6" transform="matrix(0.5892 -0.808 0.808 0.5892 4.737 125.2188)" class="st5" width="0.6" height="2.7"/>
		</g>
		<g>
			<line class="st7" x1="125.1" y1="56.2" x2="126.2" y2="57"/>
			
				<rect x="125.4" y="55.9" transform="matrix(0.5893 -0.8079 0.8079 0.5893 5.9224 124.7369)" class="st5" width="0.6" height="1.3"/>
		</g>
		<g>
			<line class="st7" x1="125.8" y1="55.2" x2="126.9" y2="56"/>
			<rect x="126.1" y="55" transform="matrix(0.5891 -0.8081 0.8081 0.5891 7.0014 124.991)" class="st5" width="0.6" height="1.3"/>
		</g>
		<g>
			<line class="st7" x1="126.5" y1="54.3" x2="127.6" y2="55.1"/>
			
				<rect x="126.8" y="54" transform="matrix(0.5888 -0.8083 0.8083 0.5888 8.0966 125.1601)" class="st5" width="0.6" height="1.3"/>
		</g>
		<g>
			<line class="st7" x1="127.2" y1="53.3" x2="128.3" y2="54.1"/>
			
				<rect x="127.5" y="53" transform="matrix(0.5889 -0.8082 0.8082 0.5889 9.1409 125.3601)" class="st5" width="0.6" height="1.3"/>
		</g>
		<g>
			<line class="st7" x1="127.9" y1="52.4" x2="129" y2="53.2"/>
			
				<rect x="128.2" y="52.1" transform="matrix(0.589 -0.8081 0.8081 0.589 10.1914 125.4814)" class="st5" width="0.6" height="1.3"/>
		</g>
		<g>
			<line class="st7" x1="128.6" y1="51.4" x2="130.8" y2="53"/>
			
				<rect x="129.4" y="50.9" transform="matrix(0.5888 -0.8083 0.8083 0.5888 11.1427 126.3307)" class="st5" width="0.6" height="2.7"/>
		</g>
		<g>
			<line class="st7" x1="129.3" y1="50.5" x2="130.4" y2="51.2"/>
			
				<rect x="129.6" y="50.2" transform="matrix(0.5893 -0.8079 0.8079 0.5893 12.2915 125.7865)" class="st5" width="0.6" height="1.3"/>
		</g>
		<g>
			<line class="st7" x1="130" y1="49.5" x2="131.1" y2="50.3"/>
			
				<rect x="130.2" y="49.3" transform="matrix(0.5893 -0.8079 0.8079 0.5893 13.266 125.909)" class="st5" width="0.6" height="1.3"/>
		</g>
		<g>
			<line class="st7" x1="130.7" y1="48.6" x2="131.8" y2="49.3"/>
			
				<rect x="130.9" y="48.3" transform="matrix(0.589 -0.8082 0.8082 0.589 14.3582 126.1812)" class="st5" width="0.6" height="1.3"/>
		</g>
		<g>
			<line class="st7" x1="131.4" y1="47.6" x2="132.5" y2="48.4"/>
			
				<rect x="131.6" y="47.3" transform="matrix(0.5888 -0.8083 0.8083 0.5888 15.4443 126.3305)" class="st5" width="0.6" height="1.3"/>
		</g>
		<g>
			<line class="st7" x1="132.1" y1="46.6" x2="133.2" y2="47.4"/>
			
				<rect x="132.3" y="46.4" transform="matrix(0.5891 -0.8081 0.8081 0.5891 16.4676 126.516)" class="st5" width="0.6" height="1.3"/>
		</g>
		<g>
			<line class="st7" x1="132.8" y1="45.7" x2="134.9" y2="47.2"/>
			
				<rect x="133.6" y="45.1" transform="matrix(0.589 -0.8081 0.8081 0.589 17.4992 127.2605)" class="st5" width="0.6" height="2.7"/>
		</g>
		<g>
			<line class="st7" x1="133.5" y1="44.7" x2="134.6" y2="45.5"/>
			<rect x="133.7" y="44.5" transform="matrix(0.5892 -0.808 0.808 0.5892 18.5765 126.85)" class="st5" width="0.6" height="1.3"/>
		</g>
		<g>
			<line class="st7" x1="134.2" y1="43.8" x2="135.3" y2="44.6"/>
			
				<rect x="134.4" y="43.5" transform="matrix(0.5888 -0.8083 0.8083 0.5888 19.6849 127.0419)" class="st5" width="0.6" height="1.3"/>
		</g>
		<g>
			<line class="st7" x1="134.9" y1="42.8" x2="136" y2="43.6"/>
			
				<rect x="135.1" y="42.5" transform="matrix(0.5888 -0.8083 0.8083 0.5888 20.7575 127.1664)" class="st5" width="0.6" height="1.3"/>
		</g>
		<g>
			<line class="st7" x1="135.6" y1="41.9" x2="136.7" y2="42.6"/>
			
				<rect x="135.8" y="41.6" transform="matrix(0.5888 -0.8083 0.8083 0.5888 21.7974 127.3781)" class="st5" width="0.6" height="1.3"/>
		</g>
		<g>
			<line class="st7" x1="136.3" y1="40.9" x2="137.3" y2="41.7"/>
			
				<rect x="136.5" y="40.6" transform="matrix(0.5894 -0.8079 0.8079 0.5894 22.8186 127.4417)" class="st5" width="0.6" height="1.3"/>
		</g>
		<g>
			<line class="st7" x1="137" y1="39.9" x2="139.1" y2="41.5"/>
			
				<rect x="137.8" y="39.3" transform="matrix(0.5889 -0.8082 0.8082 0.5889 23.8807 128.3311)" class="st5" width="0.6" height="2.7"/>
		</g>
		<g>
			<line class="st7" x1="137.7" y1="39" x2="138.7" y2="39.8"/>
			
				<rect x="137.9" y="38.7" transform="matrix(0.5889 -0.8082 0.8082 0.5889 24.9855 127.8573)" class="st5" width="0.6" height="1.3"/>
		</g>
		<g>
			<line class="st7" x1="138.4" y1="38" x2="139.4" y2="38.8"/>
			
				<rect x="138.6" y="37.8" transform="matrix(0.5889 -0.8082 0.8082 0.5889 26.0425 128.0722)" class="st5" width="0.6" height="1.3"/>
		</g>
		<g>
			<line class="st7" x1="139.1" y1="37.1" x2="140.1" y2="37.9"/>
			
				<rect x="139.3" y="36.8" transform="matrix(0.5893 -0.8079 0.8079 0.5893 27.065 128.1471)" class="st5" width="0.6" height="1.3"/>
		</g>
		<g>
			<line class="st7" x1="139.8" y1="36.1" x2="140.8" y2="36.9"/>
			
				<rect x="140" y="35.9" transform="matrix(0.5888 -0.8083 0.8083 0.5888 28.1652 128.4338)" class="st5" width="0.6" height="1.3"/>
		</g>
		<g>
			<line class="st7" x1="140.5" y1="35.2" x2="141.5" y2="36"/>
			
				<rect x="140.7" y="34.9" transform="matrix(0.5888 -0.8083 0.8083 0.5888 29.245 128.5786)" class="st5" width="0.6" height="1.3"/>
		</g>
		<g>
			<line class="st7" x1="141.1" y1="34.2" x2="143.3" y2="35.8"/>
			
				<rect x="141.9" y="33.7" transform="matrix(0.5891 -0.808 0.808 0.5891 30.1249 129.3439)" class="st5" width="0.6" height="2.7"/>
		</g>
		<g>
			<line class="st7" x1="141.8" y1="33.3" x2="142.9" y2="34"/>
			
				<rect x="142.1" y="33" transform="matrix(0.5888 -0.8083 0.8083 0.5888 31.3701 128.9252)" class="st5" width="0.6" height="1.3"/>
		</g>
		<g>
			<line class="st7" x1="142.5" y1="32.3" x2="143.6" y2="33.1"/>
			
				<rect x="142.8" y="32" transform="matrix(0.5887 -0.8083 0.8083 0.5887 32.4399 129.0646)" class="st5" width="0.6" height="1.3"/>
		</g>
		<g>
			<line class="st7" x1="143.2" y1="31.3" x2="144.3" y2="32.1"/>
			
				<rect x="143.5" y="31.1" transform="matrix(0.5891 -0.8081 0.8081 0.5891 33.4585 129.2389)" class="st5" width="0.6" height="1.3"/>
		</g>
		<g>
			<line class="st7" x1="143.9" y1="30.4" x2="145" y2="31.2"/>
			
				<rect x="144.2" y="30.1" transform="matrix(0.5888 -0.8083 0.8083 0.5888 34.5624 129.407)" class="st5" width="0.6" height="1.3"/>
		</g>
		<g>
			<line class="st7" x1="144.6" y1="29.4" x2="145.7" y2="30.2"/>
			
				<rect x="144.9" y="29.2" transform="matrix(0.5892 -0.808 0.808 0.5892 35.5613 129.5808)" class="st5" width="0.6" height="1.3"/>
		</g>
		<g>
			<line class="st7" x1="145.3" y1="28.5" x2="147.5" y2="30"/>
			
				<rect x="146.1" y="27.9" transform="matrix(0.5885 -0.8085 0.8085 0.5885 36.5862 130.4014)" class="st5" width="0.6" height="2.7"/>
		</g>
		<g>
			<line class="st7" x1="146.1" y1="27.4" x2="147.2" y2="28.2"/>
			
				<rect x="146.3" y="27.2" transform="matrix(0.5893 -0.8079 0.8079 0.5893 37.7033 129.898)" class="st5" width="0.6" height="1.3"/>
		</g>
		<g>
			<line class="st7" x1="146.8" y1="26.5" x2="147.9" y2="27.3"/>
			
				<rect x="147" y="26.2" transform="matrix(0.5885 -0.8085 0.8085 0.5885 38.8779 130.1336)" class="st5" width="0.6" height="1.3"/>
		</g>
		<g>
			<line class="st7" x1="147.5" y1="25.5" x2="148.5" y2="26.3"/>
			
				<rect x="147.7" y="25.3" transform="matrix(0.5891 -0.8081 0.8081 0.5891 39.861 130.2747)" class="st5" width="0.6" height="1.3"/>
		</g>
		<g>
			<line class="st7" x1="148.2" y1="24.6" x2="149.2" y2="25.4"/>
			
				<rect x="148.4" y="24.3" transform="matrix(0.5889 -0.8082 0.8082 0.5889 40.9487 130.4279)" class="st5" width="0.6" height="1.3"/>
		</g>
		<g>
			<line class="st7" x1="148.9" y1="23.6" x2="149.9" y2="24.4"/>
			
				<rect x="149.1" y="23.4" transform="matrix(0.5891 -0.8081 0.8081 0.5891 41.9804 130.6332)" class="st5" width="0.6" height="1.3"/>
		</g>
		<g>
			<line class="st7" x1="149.6" y1="22.7" x2="151.7" y2="24.2"/>
			
				<rect x="150.3" y="22.1" transform="matrix(0.5893 -0.8079 0.8079 0.5893 42.8841 131.3302)" class="st5" width="0.6" height="2.7"/>
		</g>
		<g>
			<line class="st7" x1="150.3" y1="21.7" x2="151.3" y2="22.5"/>
			
				<rect x="150.5" y="21.4" transform="matrix(0.5891 -0.8081 0.8081 0.5891 44.118 130.8926)" class="st5" width="0.6" height="1.3"/>
		</g>
		<g>
			<line class="st7" x1="151" y1="20.8" x2="152" y2="21.5"/>
			
				<rect x="151.2" y="20.5" transform="matrix(0.5888 -0.8083 0.8083 0.5888 45.2119 131.1455)" class="st5" width="0.6" height="1.3"/>
		</g>
		<g>
			<line class="st7" x1="151.7" y1="19.8" x2="152.7" y2="20.6"/>
			
				<rect x="151.9" y="19.5" transform="matrix(0.5888 -0.8083 0.8083 0.5888 46.2799 131.2767)" class="st5" width="0.6" height="1.3"/>
		</g>
		<g>
			<line class="st7" x1="152.4" y1="18.8" x2="153.4" y2="19.6"/>
			
				<rect x="152.6" y="18.6" transform="matrix(0.5892 -0.808 0.808 0.5892 47.2746 131.4528)" class="st5" width="0.6" height="1.3"/>
		</g>
		<g>
			<line class="st7" x1="153" y1="17.9" x2="154.1" y2="18.7"/>
			
				<rect x="153.3" y="17.6" transform="matrix(0.5892 -0.808 0.808 0.5892 48.3436 131.5809)" class="st5" width="0.6" height="1.3"/>
		</g>
		<g>
			<line class="st7" x1="153.7" y1="16.9" x2="155.9" y2="18.5"/>
			
				<rect x="154.5" y="16.4" transform="matrix(0.5888 -0.8083 0.8083 0.5888 49.3255 132.4508)" class="st5" width="0.6" height="2.7"/>
		</g>
	</g>
</g>
<g>
	<path class="st5" d="M202.2,169.8c0.6,0.8,0.5,1.8-0.3,2.5c-0.8,0.6-1.8,0.5-2.4-0.4c-0.6-0.8-0.5-1.8,0.3-2.4
		C200.6,168.8,201.6,169,202.2,169.8z"/>
	<path class="st8" d="M195.1,174.6c0.5,0.9,0.2,1.9-0.7,2.4s-1.8,0.1-2.3-0.8c-0.5-0.9-0.2-1.9,0.7-2.3
		C193.7,173.3,194.7,173.7,195.1,174.6z"/>
	<path class="st3" d="M187.3,178c0.3,1-0.1,1.9-1.1,2.2s-1.8-0.2-2.2-1.2c-0.3-1,0.1-1.9,1.1-2.2C186.2,176.6,187,177.1,187.3,178z"
		/>
	<path class="st5" d="M179.1,180.1c0.1,1-0.5,1.9-1.5,2s-1.8-0.5-1.9-1.5c-0.1-1,0.5-1.8,1.5-2C178.2,178.4,179,179.1,179.1,180.1z"
		/>
	<path class="st8" d="M170.6,180.7c-0.1,1-0.8,1.7-1.8,1.7c-1-0.1-1.7-0.8-1.6-1.9c0.1-1,0.8-1.7,1.8-1.7
		C170,178.9,170.6,179.7,170.6,180.7z"/>
	<path class="st3" d="M162.1,179.8c-0.2,1-1.1,1.6-2.1,1.3c-1-0.2-1.5-1.1-1.3-2.1s1.1-1.6,2.1-1.3
		C161.8,177.9,162.3,178.8,162.1,179.8z"/>
	<path class="st5" d="M153.9,177.4c-0.4,1-1.3,1.4-2.3,1c-0.9-0.4-1.3-1.3-0.9-2.3c0.4-0.9,1.3-1.4,2.3-1
		C153.9,175.5,154.3,176.5,153.9,177.4z"/>
	<path class="st8" d="M146.2,173.7c-0.6,0.9-1.6,1.1-2.4,0.6c-0.8-0.5-1-1.5-0.5-2.4c0.5-0.8,1.5-1.1,2.4-0.5
		C146.6,171.8,146.8,172.8,146.2,173.7z"/>
	<path class="st3" d="M139.4,168.7c-0.7,0.8-1.7,0.8-2.5,0.1c-0.7-0.7-0.7-1.7,0-2.5c0.7-0.7,1.7-0.8,2.5-0.1
		C140,166.9,140,167.9,139.4,168.7z"/>
	<path class="st5" d="M133.5,162.5c-0.8,0.6-1.8,0.5-2.5-0.3c-0.6-0.8-0.4-1.8,0.4-2.4c0.8-0.6,1.8-0.5,2.4,0.3
		C134.4,160.9,134.3,161.9,133.5,162.5z"/>
	<path class="st8" d="M128.7,155.4c-0.9,0.5-1.9,0.2-2.4-0.7s-0.1-1.8,0.8-2.3s1.9-0.2,2.3,0.7C130,154,129.6,155,128.7,155.4z"/>
	<path class="st3" d="M125.3,147.6c-1,0.3-1.9-0.2-2.2-1.1c-0.3-1,0.2-1.8,1.2-2.1s1.9,0.1,2.2,1.1
		C126.7,146.4,126.2,147.3,125.3,147.6z"/>
	<path class="st5" d="M123.2,139.3c-1,0.1-1.8-0.5-2-1.5c-0.1-1,0.5-1.8,1.6-1.9c1-0.1,1.8,0.5,2,1.5
		C124.9,138.4,124.2,139.2,123.2,139.3z"/>
	<path class="st8" d="M122.7,130.8c-1-0.1-1.7-0.8-1.7-1.8c0.1-1,0.8-1.7,1.9-1.6c1,0.1,1.7,0.8,1.7,1.8
		C124.5,130.2,123.7,130.9,122.7,130.8z"/>
	<path class="st3" d="M123.6,122.4c-1-0.2-1.6-1.1-1.3-2.1c0.2-1,1.1-1.5,2.1-1.3s1.6,1.1,1.3,2.1
		C125.5,122.1,124.6,122.6,123.6,122.4z"/>
	<path class="st5" d="M126,114.2c-0.9-0.4-1.4-1.3-1-2.3c0.4-0.9,1.3-1.3,2.3-0.9c0.9,0.4,1.3,1.3,0.9,2.3
		C127.9,114.2,126.9,114.6,126,114.2z"/>
	<path class="st8" d="M129.8,106.5c-0.9-0.6-1.1-1.6-0.5-2.4s1.5-1,2.4-0.5c0.8,0.6,1.1,1.5,0.5,2.4
		C131.6,106.9,130.6,107.1,129.8,106.5z"/>
	<path class="st3" d="M134.8,99.7c-0.8-0.7-0.8-1.7-0.1-2.5c0.7-0.7,1.7-0.7,2.5,0c0.7,0.7,0.8,1.7,0.1,2.5
		C136.6,100.4,135.6,100.4,134.8,99.7z"/>
	<path class="st5" d="M141,93.8c-0.6-0.8-0.5-1.8,0.3-2.5c0.8-0.6,1.8-0.4,2.4,0.4c0.6,0.8,0.5,1.8-0.3,2.4
		C142.6,94.8,141.6,94.6,141,93.8z"/>
	<path class="st8" d="M148.1,89.1c-0.5-0.9-0.2-1.9,0.7-2.4c0.9-0.5,1.8-0.1,2.3,0.8s0.2,1.9-0.7,2.3
		C149.5,90.3,148.6,90,148.1,89.1z"/>
</g>
<g>
	<g>
		<g>
			<g>
				<path class="st9" d="M190.6,190.3L190.6,190.3c0,5.9,3,10.7,6.7,10.7h158.8c3.7,0,6.7-4.8,6.7-10.6c0,0,0,0,0-0.1L190.6,190.3
					L190.6,190.3z"/>
			</g>
		</g>
		<path class="st10" d="M301.9,195.6c0,1.4-1.1,2.5-2.5,2.5h-45.3c-1.4,0-2.5-1.1-2.5-2.5l0,0c0-1.4,1.1-2.5,2.5-2.5h45.3
			C300.8,193.1,301.9,194.3,301.9,195.6L301.9,195.6z"/>
		<path class="st9" d="M345.2,93h-137c-4.9,0-8.9,4.4-8.9,9.9v75.5c0,5.5,4,9.9,8.9,9.9h137c4.9,0,8.9-4.4,8.9-9.9v-75.5
			C354.2,97.4,350.2,93,345.2,93z M346.7,181.6H206.8V99.5h139.9V181.6z"/>
		<circle class="st11" cx="276.7" cy="96.2" r="2.5"/>
	</g>
	<polygon class="st12" points="345.5,99.5 206.8,99.5 206.8,181.6 206.8,181.6 346.7,181.6 346.7,99.5 	"/>
</g>
<path class="st5" d="M269.9,116.7c0.1-0.3,0.1-0.6,0.1-0.8c0-2.2-1.8-3.9-4.1-3.9c-1.6,0-2.9,0.8-3.6,2c-0.4-0.2-0.9-0.3-1.4-0.3
	c-1.6,0-2.9,1.2-2.9,2.8v0.1l0,0c-1.4,0-2.5,1.1-2.5,2.4s1.1,2.4,2.5,2.4h11c1.4,0,2.5-1.1,2.5-2.4
	C271.5,117.9,270.9,117,269.9,116.7z"/>
<path class="st5" d="M311,145.5c-0.1-0.2-0.1-0.5-0.1-0.7c0-1.8,1.5-3.2,3.4-3.2c1.3,0,2.4,0.7,3,1.7c0.3-0.2,0.7-0.3,1.2-0.3
	c1.3,0,2.4,1,2.4,2.3v0.1l0,0c1.1,0,2.1,0.9,2.1,2s-0.9,2-2.1,2h-9.1c-1.1,0-2.1-0.9-2.1-2C309.7,146.5,310.2,145.7,311,145.5z"/>
<g>
	<path class="st13" d="M285.7,173.1c0,2.1-3,5-3,5s-3-2.8-3-5c0-2.1,1.3-2.7,3-2.7C284.4,170.4,285.7,171,285.7,173.1z"/>
	<path class="st14" d="M284.8,172.7c0,1.5-2.1,3.4-2.1,3.4s-2.1-2-2.1-3.4c0-1.5,0.9-1.9,2.1-1.9S284.8,171.2,284.8,172.7z"/>
	<path class="st15" d="M283.9,172c0,0.8-1.2,2-1.2,2s-1.2-1.1-1.2-2c0-0.8,0.5-1.1,1.2-1.1C283.4,170.9,283.9,171.1,283.9,172z"/>
	<g>
		<g>
			<path class="st16" d="M280.3,165.5c0,0-4.1,2.2-4.1,6.8c0,0,0.3,0.5,0.7-0.1s0.8-2.3,3.4-2.3V165.5z"/>
			<path class="st17" d="M285.1,165.5c0,0,4.1,2.2,4.1,6.8c0,0-0.3,0.5-0.7-0.1c-0.4-0.6-0.8-2.3-3.4-2.3V165.5z"/>
		</g>
		<g>
			<path class="st18" d="M287.3,161c0-1.9-0.3-3.7-0.8-5.3h-3.8v1.6c1.4,0,2.5,1.1,2.5,2.5s-1.1,2.5-2.5,2.5v8.1h2.5
				C286.5,168.5,287.3,165,287.3,161z"/>
			<path class="st18" d="M280.2,159.8c0-1.4,1.1-2.5,2.5-2.5v-1.6H279c-0.5,1.6-0.8,3.4-0.8,5.3c0,4,0.8,7.5,2.1,9.4h2.5v-8.1
				C281.3,162.3,280.2,161.2,280.2,159.8z"/>
			<path class="st19" d="M280.3,170.5c-0.1,0-0.1,0.1-0.1,0.1v0.5c0,0.1,0.1,0.1,0.1,0.1h2.4v-0.8L280.3,170.5L280.3,170.5z"/>
			<path class="st20" d="M285.1,170.5h-2.4v0.8h2.4c0.1,0,0.1-0.1,0.1-0.1v-0.5C285.3,170.5,285.2,170.5,285.1,170.5z"/>
			<path class="st20" d="M284.4,159.8c0,1-0.8,1.7-1.7,1.7v0.8c1.4,0,2.5-1.1,2.5-2.5s-1.1-2.5-2.5-2.5v0.8
				C283.7,158.1,284.4,158.9,284.4,159.8z"/>
			<path class="st19" d="M280.2,159.8c0,1.4,1.1,2.5,2.5,2.5v-0.8c-1,0-1.7-0.8-1.7-1.7c0-1,0.8-1.7,1.7-1.7v-0.8
				C281.3,157.3,280.2,158.4,280.2,159.8z"/>
			<path class="st6" d="M284.4,159.8c0-1-0.8-1.7-1.7-1.7v3.5C283.7,161.6,284.4,160.8,284.4,159.8z"/>
			<path class="st21" d="M281,159.8c0,1,0.8,1.7,1.7,1.7V158C281.8,158.1,281,158.9,281,159.8z"/>
		</g>
	</g>
	<g>
		<path class="st17" d="M282.7,149.8v5.9h3.8C285.4,152.2,283.5,149.8,282.7,149.8z"/>
		<path class="st16" d="M282.7,149.8c-0.8,0-2.7,2.4-3.8,5.9h3.8V149.8L282.7,149.8z"/>
		<path class="st17" d="M282.9,166.8L282.9,166.8L282.9,166.8h-0.2v5.8h0.1l0,0c0.1,0,0.1-0.1,0.1-0.1v-0.2V172l0.4-4.6
			C283.4,166.9,283,166.8,282.9,166.8z"/>
		<path class="st16" d="M282.6,166.8L282.6,166.8L282.6,166.8c-0.1,0-0.1,0-0.1,0c-0.1,0-0.4,0.2-0.4,0.5l0.4,4.6v0.2v0.2
			c0,0.1,0,0.1,0.1,0.1c0,0,0,0,0.1,0l0,0h0.1v-5.8h-0.2V166.8z"/>
	</g>
</g>
<path class="st5" d="M231.8,164.4c0-0.2-0.1-0.3-0.1-0.5c0-1.2,1.1-2.2,2.3-2.2c0.9,0,1.7,0.5,2.1,1.2c0.2-0.1,0.5-0.2,0.8-0.2
	c0.9,0,1.7,0.7,1.7,1.6c0,0,0,0,0,0.1l0,0c0.8,0,1.4,0.6,1.4,1.4s-0.6,1.4-1.4,1.4h-6.3c-0.8,0-1.4-0.6-1.4-1.4
	C230.9,165.1,231.2,164.6,231.8,164.4z"/>
<path class="st5" d="M218.1,119.1c-0.1-0.2-0.1-0.5-0.1-0.7c0-1.8,1.5-3.2,3.4-3.2c1.3,0,2.4,0.7,3,1.7c0.3-0.2,0.7-0.3,1.2-0.3
	c1.3,0,2.4,1,2.4,2.3v0.1l0,0c1.1,0,2.1,0.9,2.1,2s-0.9,2-2.1,2h-9.1c-1.1,0-2.1-0.9-2.1-2C216.8,120.1,217.3,119.4,218.1,119.1z"/>
<g>
	<g>
		<path class="st6" d="M242.5,114.6L242.5,114.6l-3.5,0.3l-3.5-0.3l0,0c-2.2,0.7-2.9,1.8-3,1.9h3.2h6.5h3.3
			C245.3,116.4,244.6,115.2,242.5,114.6z"/>
		<path class="st6" d="M245.3,116.7h-12.8c0.5,0.8,1.2,1.4,2,1.8v1.3c0,0,0.5-0.4,1.1-0.8c1.2,0.4,2.3,0.4,2.9,0.4v0.5
			c0,0.2,0.1,0.3,0.3,0.3s0.3-0.1,0.3-0.3v-0.5c0.6,0,1.8,0,3.1-0.4c0.5,0.4,1.1,0.8,1.1,0.8v-1.3
			C244.2,118.1,244.9,117.5,245.3,116.7z"/>
		<circle class="st9" cx="235.1" cy="115.6" r="0.3"/>
		<circle class="st9" cx="242.9" cy="115.6" r="0.3"/>
		<circle class="st9" cx="237" cy="115.7" r="0.3"/>
		<circle class="st9" cx="241" cy="115.7" r="0.3"/>
		<circle class="st9" cx="239" cy="115.8" r="0.3"/>
	</g>
	<path class="st9" d="M239.1,111.5v-0.6c0.1-0.1,0.2-0.2,0.2-0.3c0-0.2-0.2-0.3-0.3-0.3c-0.2,0-0.3,0.2-0.3,0.3
		c0,0.1,0.1,0.3,0.2,0.3v0.6c-1.7,0-3.1,1.3-3.4,2.9l3.5,0.3l3.4-0.2C242.1,112.8,240.7,111.6,239.1,111.5z M236.3,114.3H236
		c0-2.1,2.7-2.5,2.7-2.5C236,112.9,236.3,114.3,236.3,114.3z"/>
</g>
<g>
	<g>
		<path class="st6" d="M312.7,132.4L312.7,132.4l-3.5,0.3l-3.5-0.3l0,0c-2.2,0.7-2.9,1.8-3,1.9h3.2h6.5h3.3
			C315.6,134.2,314.9,133,312.7,132.4z"/>
		<path class="st6" d="M315.6,134.5h-12.8c0.5,0.8,1.2,1.4,2,1.8v1.3c0,0,0.5-0.4,1.1-0.8c1.2,0.4,2.3,0.4,2.9,0.4v0.5
			c0,0.2,0.1,0.3,0.3,0.3s0.3-0.1,0.3-0.3v-0.5c0.6,0,1.8,0,3.1-0.4c0.5,0.4,1.1,0.8,1.1,0.8v-1.3
			C314.4,135.8,315.1,135.3,315.6,134.5z"/>
		<circle class="st9" cx="305.3" cy="133.4" r="0.3"/>
		<circle class="st9" cx="313.2" cy="133.4" r="0.3"/>
		<circle class="st9" cx="307.3" cy="133.5" r="0.3"/>
		<circle class="st9" cx="311.2" cy="133.5" r="0.3"/>
		<circle class="st9" cx="309.2" cy="133.6" r="0.3"/>
	</g>
	<path class="st9" d="M309.3,129.3v-0.6c0.1-0.1,0.2-0.2,0.2-0.3c0-0.2-0.2-0.3-0.3-0.3c-0.2,0-0.3,0.2-0.3,0.3s0.1,0.3,0.2,0.3v0.6
		c-1.7,0-3.1,1.3-3.4,2.9l3.5,0.3l3.4-0.2C312.3,130.6,311,129.3,309.3,129.3z M306.5,132.1h-0.3c0-2.1,2.7-2.5,2.7-2.5
		C306.3,130.6,306.5,132.1,306.5,132.1z"/>
</g>
<g>
	<g>
		<path class="st6" d="M260.9,136.5L260.9,136.5l-3.5,0.3l-3.5-0.3l0,0c-2.2,0.7-2.9,1.8-3,1.9h3.2h6.5h3.3
			C263.8,138.3,263.1,137.1,260.9,136.5z"/>
		<path class="st6" d="M263.8,138.6H251c0.5,0.8,1.2,1.4,2,1.8v1.3c0,0,0.5-0.4,1.1-0.8c1.2,0.4,2.3,0.4,2.9,0.4v0.5
			c0,0.2,0.1,0.3,0.3,0.3c0.2,0,0.3-0.1,0.3-0.3v-0.5c0.6,0,1.8,0,3.1-0.4c0.5,0.4,1.1,0.8,1.1,0.8v-1.3
			C262.6,140,263.3,139.4,263.8,138.6z"/>
		<circle class="st9" cx="253.5" cy="137.5" r="0.3"/>
		<circle class="st9" cx="261.4" cy="137.5" r="0.3"/>
		<circle class="st9" cx="255.5" cy="137.6" r="0.3"/>
		<circle class="st9" cx="259.4" cy="137.6" r="0.3"/>
		<circle class="st9" cx="257.4" cy="137.7" r="0.3"/>
	</g>
	<path class="st9" d="M257.5,133.4v-0.6c0.1-0.1,0.2-0.2,0.2-0.3c0-0.2-0.2-0.3-0.3-0.3c-0.2,0-0.3,0.2-0.3,0.3s0.1,0.3,0.2,0.3v0.6
		c-1.7,0-3.1,1.3-3.4,2.9l3.5,0.3l3.4-0.2C260.5,134.7,259.2,133.5,257.5,133.4z M254.7,136.2h-0.3c0-2.1,2.7-2.5,2.7-2.5
		C254.5,134.8,254.7,136.2,254.7,136.2z"/>
</g>
<g>
	<g>
		<path class="st6" d="M334.2,111.5L334.2,111.5l-3.5,0.3l-3.5-0.3l0,0c-2.2,0.7-2.9,1.8-3,1.9h3.2h6.5h3.3
			C337.1,113.3,336.4,112.2,334.2,111.5z"/>
		<path class="st6" d="M337.1,113.6h-12.8c0.5,0.8,1.2,1.4,2,1.8v1.3c0,0,0.5-0.4,1.1-0.8c1.2,0.4,2.3,0.4,2.9,0.4v0.5
			c0,0.2,0.1,0.3,0.3,0.3c0.2,0,0.3-0.1,0.3-0.3v-0.5c0.6,0,1.8,0,3.1-0.4c0.5,0.4,1.1,0.8,1.1,0.8v-1.3
			C335.9,115,336.6,114.4,337.1,113.6z"/>
		<circle class="st9" cx="326.8" cy="112.6" r="0.3"/>
		<circle class="st9" cx="334.7" cy="112.6" r="0.3"/>
		<circle class="st9" cx="328.8" cy="112.6" r="0.3"/>
		<circle class="st9" cx="332.7" cy="112.6" r="0.3"/>
		<circle class="st9" cx="330.7" cy="112.7" r="0.3"/>
	</g>
	<path class="st9" d="M330.8,108.4v-0.6c0.1-0.1,0.2-0.2,0.2-0.3c0-0.2-0.2-0.3-0.3-0.3c-0.2,0-0.3,0.2-0.3,0.3
		c0,0.1,0.1,0.3,0.2,0.3v0.6c-1.7,0-3.1,1.3-3.4,2.9l3.5,0.3l3.4-0.2C333.8,109.8,332.5,108.5,330.8,108.4z M328,111.2h-0.3
		c0-2.1,2.7-2.5,2.7-2.5C327.8,109.8,328,111.2,328,111.2z"/>
</g>
<path class="st5" d="M327.8,116.7c0-0.2,0.1-0.3,0.1-0.5c0-1.2-1.1-2.2-2.3-2.2c-0.9,0-1.7,0.5-2.1,1.2c-0.2-0.1-0.5-0.2-0.8-0.2
	c-0.9,0-1.7,0.7-1.7,1.6c0,0,0,0,0,0.1l0,0c-0.8,0-1.4,0.6-1.4,1.4s0.6,1.4,1.4,1.4h6.3c0.8,0,1.4-0.6,1.4-1.4
	C328.7,117.4,328.4,116.9,327.8,116.7z"/>
<g>
	<g>
		<g>
			<path class="st6" d="M284.8,115.7L284.8,115.7l-3.5,0.3l-3.5-0.3l0,0c-2.2,0.7-2.9,1.8-3,1.9h3.2h6.5h3.3
				C287.7,117.5,286.9,116.3,284.8,115.7z"/>
			<path class="st6" d="M287.7,117.8h-12.8c0.5,0.8,1.2,1.4,2,1.8v1.3c0,0,0.5-0.4,1.1-0.8c1.2,0.4,2.3,0.4,2.9,0.4v0.5
				c0,0.2,0.1,0.3,0.3,0.3s0.3-0.1,0.3-0.3v-0.5c0.6,0,1.8,0,3.1-0.4c0.5,0.4,1.1,0.8,1.1,0.8v-1.3
				C286.5,119.1,287.2,118.6,287.7,117.8z"/>
			<circle class="st9" cx="277.4" cy="116.7" r="0.3"/>
			<circle class="st9" cx="285.2" cy="116.7" r="0.3"/>
			<circle class="st9" cx="279.3" cy="116.8" r="0.3"/>
			<circle class="st9" cx="283.3" cy="116.8" r="0.3"/>
			<circle class="st9" cx="281.3" cy="116.9" r="0.3"/>
		</g>
		<path class="st9" d="M281.4,112.6V112c0.1-0.1,0.2-0.2,0.2-0.3c0-0.2-0.2-0.3-0.3-0.3c-0.2,0-0.3,0.2-0.3,0.3
			c0,0.1,0.1,0.3,0.2,0.3v0.6c-1.7,0-3.1,1.3-3.4,2.9l3.5,0.3l3.4-0.2C284.4,113.9,283,112.6,281.4,112.6z M278.6,115.4h-0.3
			c0-2.1,2.7-2.5,2.7-2.5C278.4,113.9,278.6,115.4,278.6,115.4z"/>
	</g>
	<path class="st13" d="M285.4,122.3c3.3-0.8,6.7-0.1,6.7-0.1c-2.9-0.6-4.9-2.2-5.9-3.2c1.4-1.9,3.3-3.2,3.3-3.2
		c-1.5,1-3.1,1.4-4.3,1.5c-0.8-3.3-0.1-6.8-0.1-6.8c-0.6,2.9-2.2,4.8-3.2,5.9c-1.8-1.4-3-3.2-3-3.2c1,1.5,1.4,3,1.5,4.2
		c-3.3,0.8-6.8,0.1-6.8,0.1c2.9,0.6,4.8,2.1,5.8,3.2c-1.4,1.9-3.2,3.1-3.2,3.1c1.5-1,3-1.3,4.1-1.5c0.8,3.3,0.1,6.8,0.1,6.8
		c0.6-2.9,2.2-4.9,3.3-5.9c1.9,1.4,3.1,3.3,3.1,3.3C285.9,125,285.5,123.5,285.4,122.3z"/>
	<path class="st14" d="M284.7,121.7c2.4-0.6,4.9-0.1,4.9-0.1c-2.1-0.4-3.6-1.6-4.3-2.4c1-1.4,2.4-2.3,2.4-2.3
		c-1.1,0.7-2.3,1-3.1,1.1c-0.6-2.4-0.1-5-0.1-5c-0.4,2.1-1.6,3.6-2.4,4.3c-1.3-1-2.2-2.3-2.2-2.3c0.7,1.1,1,2.2,1.1,3.1
		c-2.4,0.6-5,0.1-5,0.1c2.1,0.4,3.5,1.6,4.3,2.3c-1,1.4-2.4,2.3-2.4,2.3c1.1-0.7,2.2-1,3-1.1c0.6,2.5,0.1,5,0.1,5
		c0.4-2.2,1.6-3.6,2.4-4.3c1.4,1,2.3,2.4,2.3,2.4C285.1,123.6,284.8,122.5,284.7,121.7z"/>
	<path class="st15" d="M284.2,121.1c1.7-0.4,3.4,0,3.4,0c-1.5-0.3-2.5-1.1-3-1.6c0.7-1,1.7-1.6,1.7-1.6c-0.8,0.5-1.6,0.7-2.2,0.7
		c-0.4-1.7-0.1-3.4-0.1-3.4c-0.3,1.5-1.1,2.5-1.6,3c-0.9-0.7-1.5-1.6-1.5-1.6c0.5,0.8,0.7,1.5,0.7,2.1c-1.7,0.4-3.4,0.1-3.4,0.1
		c1.4,0.3,2.4,1.1,2.9,1.6c-0.7,1-1.6,1.6-1.6,1.6c0.7-0.5,1.5-0.7,2.1-0.7c0.4,1.7,0.1,3.5,0.1,3.5c0.3-1.5,1.1-2.5,1.6-3
		c1,0.7,1.6,1.6,1.6,1.6C284.4,122.4,284.2,121.7,284.2,121.1z"/>
</g>
<g>
	<path class="st15" d="M282.6,146.6h0.3v1.5h-0.3V146.6z"/>
	<path class="st15" d="M282.6,144.5h0.3v1.5h-0.3V144.5z"/>
	<path class="st15" d="M282.6,142.4h0.3v1.5h-0.3V142.4z"/>
	<path class="st15" d="M282.6,140.3h0.3v1.5h-0.3V140.3z"/>
	<path class="st15" d="M282.6,138.2h0.3v1.5h-0.3V138.2z"/>
	<path class="st15" d="M282.6,136.1h0.3v1.5h-0.3V136.1z"/>
	<path class="st15" d="M282.6,134h0.3v1.5h-0.3V134z"/>
	<path class="st15" d="M282.6,131.9h0.3v1.5h-0.3V131.9z"/>
	<path class="st15" d="M282.6,129.8h0.3v1.5h-0.3V129.8z"/>
	<path class="st15" d="M282.6,127.7h0.3v1.5h-0.3V127.7z"/>
	<path class="st15" d="M282.6,125.6h0.3v1.5h-0.3V125.6z"/>
</g>
<g>
	<path class="st22" d="M329.4,169.4c-2.2-0.2-4.7-0.2-7.2,0c-7.9,0.7-13.2,3.7-11.7,6.6c0,0.1,0.1,0.2,0.1,0.2l0,0
		c-3.7,0.3-6.7,1.3-8.5,2.4c-1.3,0.9-2,1.9-1.7,2.9l15.1-1.4l31.1-2.9v-13.5c-0.4,0-0.9,0.1-1.3,0.1
		C337.6,164.6,331.7,166.8,329.4,169.4z"/>
	<g>
		<path class="st23" d="M321.5,175.3c-2.1-0.4-4.5-0.7-7-0.7c-8.1,0-14.6,2.4-14.6,5.4l0,0c1.6,0.5,3,1,4.3,1.6h42.4v-9.9
			c-2.2-0.3-4.5-0.4-6.9-0.4C331.8,171.3,325,172.9,321.5,175.3z"/>
		<path class="st22" d="M299.9,180.1c-2.1-0.6-4.5-1.1-7.1-1.4c-7.6-0.9-15.1,0-19.8,1.9c-1.8-0.6-4-1.1-6.4-1.4
			c-1.3-0.1-2.5-0.2-3.8-0.2c1.7,0.7,2.8,1.7,3,2.7H291h13.2C302.9,181,301.5,180.5,299.9,180.1z"/>
		<path class="st23" d="M262.7,178.9c-2.3-1-5.7-1.6-9.4-1.6l0,0c0-0.1,0-0.2,0-0.2c0-3-6.5-5.4-14.6-5.4c-2.6,0-5,0.2-7,0.7
			c-3.5-2.4-10.3-4-18.1-4c-2.3,0-4.5,0.1-6.6,0.4v12.8h43.5h15.4C265.5,180.6,264.4,179.7,262.7,178.9z"/>
	</g>
	<path class="st22" d="M248.4,180.2c-2.7-0.7-6.3-1-10-0.7l0,0c0-0.1-0.1-0.2-0.1-0.2c-1.5-2.9-9.1-4.6-16.9-3.9
		c-2.5,0.2-4.7,0.7-6.6,1.3c-2.1-0.9-4.9-1.6-7.9-2v6.9h44.9C250.9,181.1,249.8,180.6,248.4,180.2z"/>
</g>
<g>
	<g>
		<rect x="415.5" y="84.6" class="st24" width="11.1" height="16.9"/>
		<g>
			<path class="st25" d="M417.8,87v6c0,0.9,0.7,1.6,1.6,1.6c0.1,0,0.1,0,0.2,0v-9.3c-0.1,0-0.1,0-0.2,0
				C418.5,85.3,417.8,86.1,417.8,87z"/>
			<path class="st5" d="M430.3,108.1V89.2c0,0-0.1-7.6-9.7-8.2c-0.3,0-0.7,0-1.1,0l0,0v4.4c0.8,0.1,1.5,0.8,1.5,1.6v6
				c0,0.8-0.6,1.5-1.5,1.6V118c0.3,0,0.5,0,0.8,0c8.6-0.4,9.6-6.5,9.8-7.9C430.4,108.9,430.3,108.1,430.3,108.1z"/>
			<path class="st26" d="M419.4,94.6c-0.9,0-1.6-0.7-1.6-1.6v-6c0-0.9,0.7-1.6,1.6-1.6c0.1,0,0.1,0,0.2,0V81c-0.3,0-0.6,0-0.9,0
				c-8.6,0.4-9.6,6.5-9.8,7.9c-0.3,1.2-0.3,2.1-0.3,2.1v18.9c0,0,0.1,7.6,9.7,8.2c0.3,0,0.7,0,1.1,0c0.1,0,0.1,0,0.2,0V94.6
				C419.5,94.6,419.5,94.6,419.4,94.6z"/>
		</g>
	</g>
</g>
<g>
	<g>
		<path class="st5" d="M437.8,186c0,1-0.8,1.7-1.7,1.7h-12.2c-1,0-1.7-0.8-1.7-1.7v-12.2c0-1,0.8-1.7,1.7-1.7h12.2
			c1,0,1.7,0.8,1.7,1.7V186z"/>
		<polygon class="st27" points="432.9,179.2 430,175.4 427.1,179.2 429.4,179.2 429.4,184.4 430.7,184.4 430.7,179.2 		"/>
	</g>
	<g>
		<path class="st5" d="M441.9,204.4c-1,0-1.7-0.8-1.7-1.7v-12.2c0-1,0.8-1.7,1.7-1.7h12.2c1,0,1.7,0.8,1.7,1.7v12.2
			c0,1-0.8,1.7-1.7,1.7H441.9z"/>
		<polygon class="st27" points="448.7,199.4 452.5,196.6 448.7,193.6 448.7,195.9 443.5,195.9 443.5,197.2 448.7,197.2 		"/>
	</g>
	<g>
		<path class="st5" d="M417.7,188.7c1,0,1.7,0.8,1.7,1.7v12.2c0,1-0.8,1.7-1.7,1.7h-12.2c-1,0-1.7-0.8-1.7-1.7v-12.2
			c0-1,0.8-1.7,1.7-1.7H417.7z"/>
		<polygon class="st27" points="410.9,193.6 407.1,196.5 410.9,199.4 410.9,197.2 416.1,197.2 416.1,195.9 410.9,195.9 		"/>
	</g>
	<g>
		<path class="st5" d="M422,190.4c0-1,0.8-1.7,1.7-1.7h12.2c1,0,1.7,0.8,1.7,1.7v12.2c0,1-0.8,1.7-1.7,1.7h-12.2
			c-1,0-1.7-0.8-1.7-1.7V190.4z"/>
		<polygon class="st27" points="426.9,197.3 429.8,201 432.7,197.3 430.5,197.3 430.5,192 429.2,192 429.2,197.3 		"/>
	</g>
</g>
<g>
	<g>
		<path class="st5" d="M372.6,29.6L372.6,29.6l-45-0.1v0.1c-7.8,0.8-13.9,7.4-13.9,15.4c0,8.6,6.9,15.5,15.5,15.5
			c6.6,0,12.1-4.1,14.4-9.8h13c2.3,5.7,7.9,9.8,14.4,9.8c8.6,0,15.5-6.9,15.5-15.5C386.6,37,380.5,30.4,372.6,29.6z"/>
		<polygon class="st28" points="335.1,41.5 331.5,41.5 331.5,37.9 325.8,37.9 325.8,41.5 322.2,41.5 322.2,47.2 325.8,47.2 
			325.8,50.8 331.5,50.8 331.5,47.2 335.1,47.2 		"/>
		<g>
			<circle class="st28" cx="371.6" cy="39.1" r="3.6"/>
			<circle class="st29" cx="371.6" cy="52" r="3.6"/>
		</g>
		<g>
			<circle class="st30" cx="378" cy="45.6" r="3.6"/>
			<circle class="st30" cx="365.1" cy="45.6" r="3.6"/>
		</g>
	</g>
	<g>
		<path class="st29" d="M348.2,43.8c0,0.7-0.6,1.3-1.3,1.3h-3.7c-0.7,0-1.3-0.6-1.3-1.3l0,0c0-0.7,0.6-1.3,1.3-1.3h3.7
			C347.6,42.5,348.2,43.1,348.2,43.8L348.2,43.8z"/>
		<path class="st28" d="M358.4,43.8c0,0.7-0.6,1.3-1.3,1.3h-3.7c-0.7,0-1.3-0.6-1.3-1.3l0,0c0-0.7,0.6-1.3,1.3-1.3h3.7
			C357.8,42.5,358.4,43.1,358.4,43.8L358.4,43.8z"/>
	</g>
	<path class="st5" d="M356.3,29c0,1.5-1.2,2.6-2.6,2.6h-6.9c-1.5,0-2.6-1.2-2.6-2.6l0,0c0-1.5,1.2-2.6,2.6-2.6h6.9
		C355.1,26.3,356.3,27.5,356.3,29L356.3,29z"/>
</g>
<g>
	<g>
		<g>
			<path class="st9" d="M143.3,167.4h-5.1H96.4h-5.1c-10.2,0-18,10.1-18,20.3S81.4,208,91.6,208h4.5h42.5h4.5
				c10.2,0,18.3-10.1,18.3-20.3C161.3,177.5,153.6,167.4,143.3,167.4z"/>
			<g>
				<rect x="80.7" y="181.6" class="st31" width="4.1" height="12.1"/>
				<rect x="76.7" y="185.6" class="st31" width="12.1" height="4.1"/>
			</g>
			<polygon class="st32" points="142,169.8 92.2,169.8 92.2,205.6 92.5,205.6 142.5,205.6 142.5,169.8 			"/>
		</g>
		<g>
			<path class="st31" d="M141.7,170.6v34.1H93v-34.1H141.7 M142.5,169.8H142H92.2v35.7h0.3h50V169.8L142.5,169.8z"/>
		</g>
		<g>
			<g>
				<circle class="st10" cx="151.5" cy="183.4" r="2.3"/>
				<circle class="st10" cx="151.5" cy="192" r="2.3"/>
			</g>
			<g>
				<circle class="st10" cx="155.8" cy="187.7" r="2.3"/>
				<circle class="st10" cx="147.2" cy="187.7" r="2.3"/>
			</g>
		</g>
	</g>
	<polygon class="st12" points="141.1,170.7 93,170.7 93,204.7 93,204.7 141.5,204.7 141.5,170.7 	"/>
	<path class="st5" d="M114.9,176.9c0-0.1,0-0.2,0-0.3c0-0.8-0.6-1.4-1.4-1.4c-0.5,0-1,0.3-1.2,0.7c-0.1-0.1-0.3-0.1-0.5-0.1
		c-0.6,0-1,0.4-1,1l0,0l0,0c-0.5,0-0.9,0.4-0.9,0.9s0.4,0.9,0.9,0.9h3.8c0.5,0,0.9-0.4,0.9-0.9C115.5,177.3,115.2,177,114.9,176.9z"
		/>
	<path class="st5" d="M131,190.1c0-0.1,0-0.2,0-0.3c0-0.6,0.5-1.2,1.2-1.2c0.4,0,0.8,0.2,1,0.6c0.1-0.1,0.3-0.1,0.4-0.1
		c0.5,0,0.8,0.4,0.8,0.8l0,0l0,0c0.4,0,0.7,0.3,0.7,0.7s-0.3,0.7-0.7,0.7h-3.2c-0.4,0-0.7-0.3-0.7-0.7
		C130.5,190.4,130.7,190.2,131,190.1z"/>
	<g>
		<path class="st13" d="M120.4,200.5c0,0.8-1,1.8-1,1.8s-1-1-1-1.8s0.5-1,1-1S120.4,199.7,120.4,200.5z"/>
		<path class="st14" d="M120.1,200.3c0,0.5-0.7,1.2-0.7,1.2s-0.7-0.7-0.7-1.2s0.3-0.7,0.7-0.7C119.8,199.7,120.1,199.8,120.1,200.3z
			"/>
		<path class="st15" d="M119.8,200.1c0,0.3-0.4,0.7-0.4,0.7s-0.4-0.4-0.4-0.7s0.2-0.4,0.4-0.4C119.6,199.7,119.8,199.8,119.8,200.1z
			"/>
		<g>
			<g>
				<path class="st16" d="M118.5,197.8c0,0-1.4,0.8-1.4,2.5c0,0,0.1,0.2,0.2,0s0.3-0.8,1.2-0.8L118.5,197.8z"/>
				<path class="st17" d="M120.2,197.8c0,0,1.4,0.8,1.4,2.5c0,0-0.1,0.2-0.2,0s-0.3-0.8-1.2-0.8L120.2,197.8z"/>
			</g>
			<g>
				<path class="st18" d="M120.9,196.1c0-0.7-0.1-1.3-0.3-1.9h-1.3v0.6c0.5,0,0.9,0.4,0.9,0.9s-0.4,0.9-0.9,0.9v2.9h0.9
					C120.6,198.8,120.9,197.5,120.9,196.1z"/>
				<path class="st18" d="M118.5,195.7c0-0.5,0.4-0.9,0.9-0.9v-0.6h-1.3c-0.2,0.6-0.3,1.2-0.3,1.9c0,1.4,0.3,2.7,0.7,3.4h0.9v-2.9
					C118.9,196.6,118.5,196.2,118.5,195.7z"/>
				<path class="st19" d="M118.5,199.5L118.5,199.5v0.2l0,0h0.8v-0.3h-0.8V199.5z"/>
				<path class="st20" d="M120.2,199.5h-0.8v0.3h0.8l0,0V199.5L120.2,199.5z"/>
				<path class="st20" d="M120,195.7c0,0.3-0.3,0.6-0.6,0.6v0.3c0.5,0,0.9-0.4,0.9-0.9s-0.4-0.9-0.9-0.9v0.3
					C119.7,195.1,120,195.3,120,195.7z"/>
				<path class="st19" d="M118.5,195.7c0,0.5,0.4,0.9,0.9,0.9v-0.3c-0.3,0-0.6-0.3-0.6-0.6s0.3-0.6,0.6-0.6v-0.3
					C118.9,194.8,118.5,195.2,118.5,195.7z"/>
				<path class="st6" d="M120,195.7c0-0.3-0.3-0.6-0.6-0.6v1.2C119.7,196.3,120,196,120,195.7z"/>
				<path class="st21" d="M118.8,195.7c0,0.3,0.3,0.6,0.6,0.6v-1.2C119,195.1,118.8,195.3,118.8,195.7z"/>
			</g>
		</g>
		<g>
			<path class="st17" d="M119.4,192.1v2.1h1.3C120.3,192.9,119.6,192.1,119.4,192.1z"/>
			<path class="st16" d="M119.4,192.1c-0.3,0-0.9,0.9-1.3,2.1h1.3V192.1L119.4,192.1z"/>
			<path class="st17" d="M119.4,198.2L119.4,198.2L119.4,198.2L119.4,198.2l-0.1,2.1l0,0l0,0l0,0v-0.1v-0.1l0.1-1.7
				C119.6,198.3,119.4,198.2,119.4,198.2z"/>
			<path class="st16" d="M119.3,198.2L119.3,198.2L119.3,198.2L119.3,198.2c-0.1,0-0.2,0.1-0.2,0.2l0.1,1.7v0.1v0.1l0,0l0,0l0,0l0,0
				L119.3,198.2L119.3,198.2z"/>
		</g>
	</g>
	<path class="st5" d="M101.7,194.2c0-0.1,0-0.1,0-0.2c0-0.4,0.4-0.8,0.8-0.8c0.3,0,0.6,0.2,0.7,0.4c0.1,0,0.2-0.1,0.3-0.1
		c0.3,0,0.6,0.3,0.6,0.6l0,0l0,0c0.3,0,0.5,0.2,0.5,0.5s-0.2,0.5-0.5,0.5h-2.2c-0.3,0-0.5-0.2-0.5-0.5
		C101.4,194.4,101.5,194.2,101.7,194.2z"/>
	<path class="st5" d="M97,177.8c0-0.1,0-0.2,0-0.3c0-0.6,0.5-1.2,1.2-1.2c0.4,0,0.8,0.2,1,0.6c0.1-0.1,0.3-0.1,0.4-0.1
		c0.5,0,0.8,0.4,0.8,0.8l0,0l0,0c0.4,0,0.7,0.3,0.7,0.7s-0.3,0.7-0.7,0.7h-3.2c-0.4,0-0.7-0.3-0.7-0.7
		C96.5,178.1,96.7,177.9,97,177.8z"/>
	<g>
		<g>
			<path class="st6" d="M105.4,176.1L105.4,176.1l-1.2,0.1l-1.2-0.1l0,0c-0.8,0.2-1,0.6-1,0.7h1h2.2h1.1
				C106.4,176.8,106.1,176.4,105.4,176.1z"/>
			<path class="st6" d="M106.4,176.9h-4.5c0.2,0.3,0.4,0.5,0.7,0.7v0.5c0,0,0.2-0.2,0.4-0.3c0.4,0.1,0.8,0.2,1,0.2v0.2
				c0,0.1,0,0.1,0.1,0.1s0.1-0.1,0.1-0.1V178c0.2,0,0.6,0,1.1-0.2c0.2,0.1,0.4,0.3,0.4,0.3v-0.5C106,177.4,106.2,177.2,106.4,176.9z
				"/>
			<ellipse class="st9" cx="102.8" cy="176.5" rx="0.1" ry="0.1"/>
			<ellipse class="st9" cx="105.6" cy="176.5" rx="0.1" ry="0.1"/>
			<ellipse class="st9" cx="103.5" cy="176.5" rx="0.1" ry="0.1"/>
			<ellipse class="st9" cx="104.9" cy="176.5" rx="0.1" ry="0.1"/>
			<ellipse class="st9" cx="104.2" cy="176.6" rx="0.1" ry="0.1"/>
		</g>
		<path class="st9" d="M104.2,175v-0.2l0.1-0.1c0-0.1-0.1-0.1-0.1-0.1c-0.1,0-0.1,0.1-0.1,0.1c0,0.1,0,0.1,0.1,0.1V175
			c-0.7,0-1.2,0.5-1.3,1.1l1.2,0.1l1.2-0.1C105.3,175.5,104.8,175,104.2,175z M103.3,176L103.3,176c-0.1-0.8,0.8-0.9,0.8-0.9
			C103.2,175.5,103.3,176,103.3,176z"/>
	</g>
	<g>
		<g>
			<path class="st6" d="M130.4,184.6L130.4,184.6l-1.2,0.1l-1.2-0.1l0,0c-0.8,0.2-1,0.6-1,0.7h1.1h2.2h1.1
				C131.4,185.3,131.1,184.9,130.4,184.6z"/>
			<path class="st6" d="M131.4,185.4h-4.5c0.2,0.3,0.4,0.5,0.7,0.7v0.5c0,0,0.2-0.2,0.4-0.3c0.4,0.1,0.8,0.2,1,0.2v0.2
				c0,0.1,0,0.1,0.1,0.1c0.1,0,0.1-0.1,0.1-0.1v-0.2c0.2,0,0.6,0,1.1-0.2c0.2,0.1,0.4,0.3,0.4,0.3v-0.5
				C131,185.9,131.2,185.7,131.4,185.4z"/>
			<ellipse class="st9" cx="127.8" cy="185" rx="0.1" ry="0.1"/>
			<ellipse class="st9" cx="130.5" cy="185" rx="0.1" ry="0.1"/>
			<ellipse class="st9" cx="128.5" cy="185" rx="0.1" ry="0.1"/>
			<ellipse class="st9" cx="129.8" cy="185" rx="0.1" ry="0.1"/>
			<ellipse class="st9" cx="129.2" cy="185.1" rx="0.1" ry="0.1"/>
		</g>
		<path class="st9" d="M129.2,183.5v-0.2l0.1-0.1c0-0.1-0.1-0.1-0.1-0.1c-0.1,0-0.1,0.1-0.1,0.1c0,0.1,0,0.1,0.1,0.1V183.5
			c-0.7,0-1.2,0.5-1.3,1.1l1.2,0.1l1.2-0.1C130.2,184,129.8,183.5,129.2,183.5z M128.2,184.5L128.2,184.5c-0.1-0.8,0.8-0.9,0.8-0.9
			C128.1,184,128.2,184.5,128.2,184.5z"/>
	</g>
	<g>
		<g>
			<path class="st6" d="M111.8,184.1L111.8,184.1l-1.2,0.1l-1.2-0.1l0,0c-0.8,0.2-1,0.6-1,0.7h1.1h2.2h1.1
				C112.8,184.7,112.5,184.3,111.8,184.1z"/>
			<path class="st6" d="M112.8,184.8h-4.5c0.2,0.3,0.4,0.5,0.7,0.7v0.5c0,0,0.2-0.2,0.4-0.3c0.4,0.1,0.8,0.2,1,0.2v0.2
				c0,0.1,0,0.1,0.1,0.1s0.1-0.1,0.1-0.1v-0.2c0.2,0,0.6,0,1.1-0.2c0.2,0.1,0.4,0.3,0.4,0.3v-0.5
				C112.4,185.3,112.6,185.1,112.8,184.8z"/>
			<ellipse class="st9" cx="109.2" cy="184.4" rx="0.1" ry="0.1"/>
			<ellipse class="st9" cx="111.9" cy="184.4" rx="0.1" ry="0.1"/>
			<ellipse class="st9" cx="109.9" cy="184.5" rx="0.1" ry="0.1"/>
			<ellipse class="st9" cx="111.3" cy="184.5" rx="0.1" ry="0.1"/>
			<ellipse class="st9" cx="110.6" cy="184.5" rx="0.1" ry="0.1"/>
		</g>
		<path class="st9" d="M110.6,182.9v-0.2l0.1-0.1c0-0.1-0.1-0.1-0.1-0.1c-0.1,0-0.1,0.1-0.1,0.1c0,0.1,0,0.1,0.1,0.1V182.9
			c-0.7,0-1.2,0.5-1.3,1.1l1.2,0.1l1.2-0.1C111.7,183.4,111.2,183,110.6,182.9z M109.6,183.9L109.6,183.9c-0.1-0.8,0.8-0.9,0.8-0.9
			C109.6,183.4,109.6,183.9,109.6,183.9z"/>
	</g>
	<g>
		<g>
			<path class="st6" d="M137.2,175L137.2,175l-1.2,0.1l-1.2-0.1l0,0c-0.8,0.2-1,0.6-1,0.7h1.1h2.2h1.1
				C138.2,175.7,138,175.3,137.2,175z"/>
			<path class="st6" d="M138.2,175.8h-4.5c0.2,0.3,0.4,0.5,0.7,0.7v0.5c0,0,0.2-0.2,0.4-0.3c0.4,0.1,0.8,0.2,1,0.2v0.2
				c0,0.1,0,0.1,0.1,0.1s0.1-0.1,0.1-0.1v-0.2c0.2,0,0.6,0,1.1-0.2c0.2,0.1,0.4,0.3,0.4,0.3v-0.5C137.8,176.3,138,176.1,138.2,175.8
				z"/>
			<ellipse class="st9" cx="134.6" cy="175.4" rx="0.1" ry="0.1"/>
			<ellipse class="st9" cx="137.4" cy="175.4" rx="0.1" ry="0.1"/>
			<ellipse class="st9" cx="135.3" cy="175.4" rx="0.1" ry="0.1"/>
			<ellipse class="st9" cx="136.7" cy="175.4" rx="0.1" ry="0.1"/>
			<ellipse class="st9" cx="136" cy="175.5" rx="0.1" ry="0.1"/>
		</g>
		<path class="st9" d="M136,173.9v-0.2l0.1-0.1c0-0.1-0.1-0.1-0.1-0.1c-0.1,0-0.1,0.1-0.1,0.1c0,0.1,0,0.1,0.1,0.1V173.9
			c-0.7,0-1.2,0.5-1.3,1.1l1.2,0.1l1.2-0.1C137.1,174.4,136.6,173.9,136,173.9z M135.1,174.9H135c0-0.8,0.9-0.9,0.9-0.9
			C135,174.4,135.1,174.9,135.1,174.9z"/>
	</g>
	<path class="st5" d="M135,176.9c0-0.1,0-0.1,0-0.2c0-0.4-0.4-0.8-0.8-0.8c-0.3,0-0.6,0.2-0.7,0.4c-0.1,0-0.2-0.1-0.3-0.1
		c-0.3,0-0.6,0.3-0.6,0.6l0,0l0,0c-0.3,0-0.5,0.2-0.5,0.5s0.2,0.5,0.5,0.5h2.2c0.3,0,0.5-0.2,0.5-0.5
		C135.3,177.2,135.2,177,135,176.9z"/>
	<g>
		<g>
			<g>
				<path class="st6" d="M120.1,177.4L120.1,177.4l-1.2,0.1l-1.2-0.1l0,0c-0.8,0.2-1,0.6-1,0.7h1.1h2.2h1.1
					C121.1,178,120.8,177.6,120.1,177.4z"/>
				<path class="st6" d="M121.1,178.1h-4.5c0.2,0.3,0.4,0.5,0.7,0.7v0.5c0,0,0.2-0.2,0.4-0.3c0.4,0.1,0.8,0.2,1,0.2v0.2
					c0,0.1,0,0.1,0.1,0.1s0.1-0.1,0.1-0.1v-0.2c0.2,0,0.6,0,1.1-0.2c0.2,0.1,0.4,0.3,0.4,0.3v-0.5
					C120.7,178.6,120.9,178.4,121.1,178.1z"/>
				<ellipse class="st9" cx="117.5" cy="177.7" rx="0.1" ry="0.1"/>
				<ellipse class="st9" cx="120.2" cy="177.7" rx="0.1" ry="0.1"/>
				<ellipse class="st9" cx="118.2" cy="177.8" rx="0.1" ry="0.1"/>
				<ellipse class="st9" cx="119.5" cy="177.8" rx="0.1" ry="0.1"/>
				<ellipse class="st9" cx="118.9" cy="177.8" rx="0.1" ry="0.1"/>
			</g>
			<path class="st9" d="M118.9,176.3V176l0.1-0.1c0-0.1-0.1-0.1-0.1-0.1c-0.1,0-0.1,0.1-0.1,0.1c0,0.1,0,0.1,0.1,0.1V176.3
				c-0.7,0-1.2,0.5-1.3,1.1l1.2,0.1l1.2-0.1C119.9,176.7,119.5,176.3,118.9,176.3z M117.9,177.3L117.9,177.3
				c-0.1-0.8,0.8-0.9,0.8-0.9C117.8,176.8,117.9,177.3,117.9,177.3z"/>
		</g>
		<path class="st13" d="M120.3,179.8c1.2-0.3,2.3,0,2.3,0c-1-0.2-1.7-0.8-2-1.2c0.5-0.7,1.1-1.1,1.1-1.1c-0.5,0.4-1.1,0.5-1.5,0.5
			c-0.3-1.2,0-2.4,0-2.4c-0.2,1-0.8,1.8-1.1,2.1c-0.6-0.5-1-1.1-1-1.1c0.3,0.5,0.5,1.1,0.5,1.5c-1.2,0.3-2.4,0-2.4,0
			c1,0.2,1.7,0.8,2,1.1c-0.5,0.7-1.1,1.1-1.1,1.1c0.5-0.4,1-0.5,1.4-0.5c0.3,1.2,0,2.5,0,2.5c0.2-1.1,0.8-1.8,1.1-2.1
			c0.7,0.5,1.1,1.2,1.1,1.2C120.5,180.7,120.3,180.2,120.3,179.8z"/>
		<path class="st14" d="M120.1,179.5c0.8-0.2,1.7,0,1.7,0c-0.7-0.2-1.2-0.6-1.5-0.9c0.4-0.5,0.8-0.8,0.8-0.8
			c-0.4,0.3-0.8,0.4-1.1,0.4c-0.2-0.9,0-1.8,0-1.8c-0.2,0.8-0.6,1.3-0.8,1.6c-0.5-0.4-0.8-0.8-0.8-0.8c0.3,0.4,0.3,0.8,0.4,1.1
			c-0.8,0.2-1.7,0-1.7,0c0.7,0.2,1.2,0.6,1.5,0.8c-0.4,0.5-0.8,0.8-0.8,0.8c0.4-0.3,0.8-0.4,1-0.4c0.2,0.9,0,1.8,0,1.8
			c0.2-0.8,0.6-1.3,0.8-1.6c0.5,0.4,0.8,0.9,0.8,0.9C120.2,180.2,120.1,179.8,120.1,179.5z"/>
		<path class="st15" d="M119.9,179.3c0.6-0.1,1.2,0,1.2,0c-0.5-0.1-0.9-0.4-1-0.6c0.2-0.4,0.6-0.6,0.6-0.6c-0.3,0.2-0.5,0.3-0.7,0.3
			c-0.1-0.6,0-1.2,0-1.2c-0.1,0.5-0.4,0.9-0.6,1.1c-0.3-0.3-0.5-0.6-0.5-0.6c0.2,0.3,0.2,0.6,0.3,0.8c-0.6,0.2-1.2,0-1.2,0
			c0.5,0.1,0.8,0.4,1,0.6c-0.2,0.3-0.6,0.6-0.6,0.6c0.3-0.2,0.5-0.2,0.7-0.3c0.1,0.6,0,1.2,0,1.2c0.1-0.5,0.4-0.9,0.6-1.1
			c0.3,0.3,0.5,0.6,0.5,0.6C119.9,179.8,119.9,179.5,119.9,179.3z"/>
	</g>
	<g>
		<path class="st15" d="M119.3,190.9L119.3,190.9l0.1,0.6h-0.1V190.9z"/>
		<path class="st15" d="M119.3,190L119.3,190l0.1,0.6h-0.1V190z"/>
		<path class="st15" d="M119.3,189.1L119.3,189.1l0.1,0.6h-0.1V189.1z"/>
		<path class="st15" d="M119.3,188.3L119.3,188.3l0.1,0.6h-0.1V188.3z"/>
		<path class="st15" d="M119.3,187.4L119.3,187.4l0.1,0.6h-0.1V187.4z"/>
		<path class="st15" d="M119.3,186.5L119.3,186.5l0.1,0.6h-0.1V186.5z"/>
		<path class="st15" d="M119.3,185.7L119.3,185.7l0.1,0.6h-0.1V185.7z"/>
		<path class="st15" d="M119.3,184.8L119.3,184.8l0.1,0.6h-0.1V184.8z"/>
		<path class="st15" d="M119.3,183.9L119.3,183.9l0.1,0.6h-0.1V183.9z"/>
		<path class="st15" d="M119.3,183L119.3,183l0.1,0.6h-0.1V183z"/>
		<path class="st15" d="M119.3,182.2L119.3,182.2l0.1,0.6h-0.1V182.2z"/>
	</g>
	<g>
		<path class="st22" d="M135.5,199.7c-0.8-0.1-1.6-0.1-2.5,0c-2.7,0.3-4.6,1.5-4.1,2.7v0.1l0,0c-1.3,0.1-2.3,0.5-2.9,1
			c-0.5,0.4-0.7,0.8-0.6,1.2l5.2-0.6l10.8-1.2v-5.6c-0.1,0-0.3,0-0.5,0C138.4,197.7,136.3,198.6,135.5,199.7z"/>
		<g>
			<path class="st23" d="M132.8,202.1c-0.7-0.2-1.6-0.3-2.4-0.3c-2.8,0-5.1,1-5.1,2.2l0,0c0.6,0.2,1.1,0.4,1.5,0.7h14.7v-4.1
				c-0.7-0.1-1.5-0.2-2.4-0.2C136.4,200.5,134,201.1,132.8,202.1z"/>
			<path class="st22" d="M125.3,204.1c-0.7-0.2-1.6-0.4-2.5-0.6c-2.6-0.4-5.2,0-6.9,0.8c-0.6-0.3-1.4-0.5-2.2-0.6
				c-0.4-0.1-0.9-0.1-1.3-0.1c0.6,0.3,1,0.7,1,1.1h8.7h4.6C126.4,204.5,125.9,204.3,125.3,204.1z"/>
			<path class="st23" d="M112.4,203.6c-0.8-0.4-2-0.7-3.3-0.7l0,0v-0.1c0-1.2-2.3-2.2-5.1-2.2c-0.9,0-1.7,0.1-2.4,0.3
				c-1.2-1-3.6-1.6-6.3-1.6c-0.8,0-1.6,0.1-2.3,0.2v5.3h15.1h5.3C113.4,204.3,113,203.9,112.4,203.6z"/>
		</g>
		<path class="st22" d="M107.4,204.2c-0.9-0.3-2.2-0.4-3.5-0.3l0,0v-0.1c-0.5-1.2-3.1-1.9-5.9-1.6c-0.9,0.1-1.6,0.3-2.3,0.5
			c-0.7-0.4-1.7-0.7-2.8-0.8v2.9h15.6C108.3,204.5,107.9,204.3,107.4,204.2z"/>
	</g>
</g>
<g>
	<path class="st33" d="M206.5,223.2h-2.3l-3.7-4.8c-0.1-0.2-0.2-0.3-0.2-0.4l0,0v5.2h-1.7v-10.5h1.7v4.9l0,0
		c0.1-0.1,0.1-0.2,0.2-0.4l3.5-4.6h2.1l-4.1,5L206.5,223.2z"/>
	<path class="st33" d="M213.4,215.7l-3.4,8.7c-0.7,1.6-1.7,2.3-3,2.3c-0.4,0-0.7,0-0.9-0.1v-1.4c0.3,0.1,0.5,0.1,0.7,0.1
		c0.6,0,1.1-0.3,1.4-0.9l0.5-1.2l-3-7.5h1.9l1.8,5.4c0,0.1,0.1,0.2,0.1,0.5l0,0c0-0.1,0.1-0.3,0.1-0.5l1.9-5.5L213.4,215.7
		L213.4,215.7z"/>
	<path class="st33" d="M216.2,222.1L216.2,222.1v4.6h-1.7v-10.9h1.7v1.3l0,0c0.6-1,1.4-1.5,2.5-1.5c1,0,1.7,0.3,2.2,1
		s0.8,1.6,0.8,2.7c0,1.3-0.3,2.3-0.9,3c-0.6,0.8-1.4,1.1-2.5,1.1C217.5,223.4,216.8,222.9,216.2,222.1z M216.2,219.1v0.9
		c0,0.5,0.2,1,0.5,1.4s0.8,0.6,1.3,0.6c0.6,0,1.1-0.2,1.5-0.7s0.5-1.2,0.5-2.1c0-0.7-0.2-1.3-0.5-1.7s-0.8-0.6-1.4-0.6
		c-0.6,0-1.1,0.2-1.5,0.6C216.4,218,216.2,218.5,216.2,219.1z"/>
	<path class="st33" d="M228.9,222.9c-0.6,0.3-1.3,0.5-2.1,0.5c-1.1,0-2-0.3-2.7-1s-1-1.6-1-2.7c0-1.2,0.4-2.2,1.1-3
		c0.7-0.7,1.7-1.1,2.9-1.1c0.7,0,1.3,0.1,1.8,0.4v1.6c-0.5-0.4-1.1-0.6-1.7-0.6c-0.7,0-1.3,0.2-1.8,0.7s-0.7,1.1-0.7,1.9
		c0,0.8,0.2,1.4,0.6,1.8c0.4,0.4,1,0.7,1.7,0.7c0.6,0,1.2-0.2,1.7-0.7v1.5H228.9z"/>
	<path class="st33" d="M241.4,223.2h-1.7V217h-3.3v6.2h-1.7v-7.5h6.7V223.2z"/>
	<path class="st33" d="M246.9,223.4c-1.2,0-2.1-0.4-2.8-1.1c-0.7-0.7-1-1.6-1-2.8c0-1.3,0.4-2.2,1.1-3c0.7-0.7,1.7-1.1,2.9-1.1
		s2.1,0.3,2.7,1c0.7,0.7,1,1.6,1,2.9c0,1.2-0.4,2.2-1.1,2.9C249.1,223,248.1,223.4,246.9,223.4z M247,216.9c-0.7,0-1.2,0.2-1.6,0.7
		s-0.6,1.1-0.6,1.9c0,0.8,0.2,1.4,0.6,1.9c0.4,0.5,0.9,0.7,1.6,0.7c0.7,0,1.2-0.2,1.5-0.7c0.4-0.4,0.5-1.1,0.5-1.9
		c0-0.8-0.2-1.5-0.5-1.9C248.2,217.1,247.7,216.9,247,216.9z"/>
	<path class="st33" d="M258.4,222.1L258.4,222.1v4.6h-1.7v-10.9h1.7v1.3l0,0c0.6-1,1.4-1.5,2.5-1.5c1,0,1.7,0.3,2.2,1
		s0.8,1.6,0.8,2.7c0,1.3-0.3,2.3-0.9,3c-0.6,0.8-1.4,1.1-2.5,1.1C259.7,223.4,258.9,222.9,258.4,222.1z M258.4,219.1v0.9
		c0,0.5,0.2,1,0.5,1.4s0.8,0.6,1.3,0.6c0.6,0,1.1-0.2,1.5-0.7c0.4-0.5,0.5-1.2,0.5-2.1c0-0.7-0.2-1.3-0.5-1.7
		c-0.3-0.4-0.8-0.6-1.4-0.6c-0.6,0-1.1,0.2-1.5,0.6C258.6,218,258.4,218.5,258.4,219.1z"/>
	<path class="st33" d="M271.3,223.2h-1.6V222l0,0c-0.5,0.9-1.3,1.3-2.3,1.3c-0.7,0-1.3-0.2-1.7-0.6c-0.4-0.4-0.6-0.9-0.6-1.6
		c0-1.4,0.8-2.2,2.4-2.5l2.2-0.3c0-1.1-0.5-1.6-1.5-1.6c-0.9,0-1.7,0.3-2.4,0.9v-1.5c0.8-0.5,1.7-0.7,2.7-0.7c1.9,0,2.8,0.9,2.8,2.8
		V223.2L271.3,223.2z M269.7,219.5l-1.6,0.2c-0.5,0.1-0.9,0.2-1.1,0.4s-0.4,0.5-0.4,0.9c0,0.3,0.1,0.6,0.3,0.8s0.5,0.3,0.9,0.3
		c0.5,0,0.9-0.2,1.3-0.5c0.3-0.4,0.5-0.8,0.5-1.4v-0.7H269.7z"/>
	<path class="st33" d="M272.9,223v-1.4c0.6,0.4,1.4,0.5,2.2,0.5c1.2,0,1.8-0.4,1.8-1.1s-0.7-1.1-2.1-1.1h-0.7v-1.2h0.7
		c1.3,0,1.9-0.3,1.9-1c0-0.3-0.1-0.5-0.4-0.7s-0.6-0.3-1.1-0.3c-0.7,0-1.4,0.2-2.1,0.5V216c0.8-0.3,1.6-0.4,2.3-0.4c2,0,3,0.7,3,2
		c0,0.4-0.1,0.8-0.4,1.1c-0.3,0.3-0.7,0.5-1.2,0.6l0,0c0.6,0,1,0.2,1.4,0.6s0.5,0.7,0.5,1.2c0,0.7-0.3,1.2-0.9,1.6
		c-0.6,0.4-1.4,0.6-2.5,0.6S273.4,223.3,272.9,223z"/>
	<path class="st33" d="M282,222.1L282,222.1v4.6h-1.7v-10.9h1.7v1.3l0,0c0.6-1,1.4-1.5,2.5-1.5c1,0,1.7,0.3,2.2,1s0.8,1.6,0.8,2.7
		c0,1.3-0.3,2.3-0.9,3c-0.6,0.8-1.4,1.1-2.5,1.1C283.3,223.4,282.6,222.9,282,222.1z M282,219.1v0.9c0,0.5,0.2,1,0.5,1.4
		s0.8,0.6,1.3,0.6c0.6,0,1.1-0.2,1.5-0.7s0.5-1.2,0.5-2.1c0-0.7-0.2-1.3-0.5-1.7s-0.8-0.6-1.4-0.6s-1.1,0.2-1.5,0.6
		C282.2,218,282,218.5,282,219.1z"/>
	<path class="st33" d="M294.9,223.2h-1.6V222l0,0c-0.5,0.9-1.3,1.3-2.3,1.3c-0.7,0-1.3-0.2-1.7-0.6c-0.4-0.4-0.6-0.9-0.6-1.6
		c0-1.4,0.8-2.2,2.4-2.5l2.2-0.3c0-1.1-0.5-1.6-1.5-1.6c-0.9,0-1.7,0.3-2.4,0.9v-1.5c0.8-0.5,1.7-0.7,2.7-0.7c1.9,0,2.8,0.9,2.8,2.8
		V223.2z M293.3,219.5l-1.6,0.2c-0.5,0.1-0.9,0.2-1.1,0.4s-0.4,0.5-0.4,0.9c0,0.3,0.1,0.6,0.3,0.8c0.2,0.2,0.5,0.3,0.9,0.3
		c0.5,0,0.9-0.2,1.3-0.5c0.3-0.4,0.5-0.8,0.5-1.4v-0.7H293.3z"/>
	<path class="st33" d="M303.2,212v1.4c-0.2,0.1-0.5,0.2-0.9,0.3c-1.1,0.2-1.8,0.3-2.3,0.4c-0.4,0.1-0.8,0.4-1.1,0.9
		c-0.3,0.5-0.4,1.1-0.5,2l0,0c0.6-0.8,1.4-1.1,2.4-1.1s1.8,0.3,2.4,1s0.9,1.5,0.9,2.6c0,1.2-0.3,2.1-1,2.8s-1.6,1.1-2.7,1.1
		c-1.2,0-2.1-0.4-2.8-1.2c-0.7-0.8-1-2-1-3.5c0-1.2,0.1-2.2,0.4-3s0.6-1.4,1-1.9s0.9-0.7,1.4-0.9s1.4-0.3,2.7-0.5
		C302.6,212.2,302.9,212.1,303.2,212z M298.4,218.4v0.9c0,0.3,0.1,0.7,0.2,1s0.2,0.6,0.4,0.9c0.2,0.3,0.4,0.5,0.6,0.6
		s0.5,0.2,0.8,0.2c0.6,0,1.1-0.2,1.4-0.7c0.4-0.4,0.5-1,0.5-1.7s-0.2-1.3-0.6-1.8c-0.4-0.4-0.9-0.7-1.5-0.7
		C299.5,217.2,298.8,217.6,298.4,218.4z"/>
	<path class="st33" d="M309.2,223.4c-1.2,0-2.1-0.4-2.8-1.1c-0.7-0.7-1-1.6-1-2.8c0-1.3,0.4-2.2,1.1-3c0.7-0.7,1.7-1.1,2.9-1.1
		c1.2,0,2.1,0.3,2.7,1c0.7,0.7,1,1.6,1,2.9c0,1.2-0.4,2.2-1.1,2.9C311.3,223,310.4,223.4,309.2,223.4z M309.3,216.9
		c-0.7,0-1.2,0.2-1.6,0.7s-0.6,1.1-0.6,1.9c0,0.8,0.2,1.4,0.6,1.9s0.9,0.7,1.6,0.7s1.2-0.2,1.5-0.7c0.4-0.4,0.5-1.1,0.5-1.9
		c0-0.8-0.2-1.5-0.5-1.9C310.5,217.1,310,216.9,309.3,216.9z"/>
	<path class="st33" d="M319.7,217.1h-2.1v6.1h-1.7v-6.1h-2.2v-1.4h6L319.7,217.1L319.7,217.1z"/>
	<path class="st33" d="M327.9,223.2h-2.2l-2.9-3.7l0,0v3.7h-1.7v-7.5h1.7v3.4l0,0l2.8-3.4h2.1l-3.1,3.6L327.9,223.2z"/>
	<path class="st33" d="M347.7,223.2h-1.5v-5.5c-0.1,0.2-0.2,0.5-0.4,0.8l-3.2,4.7h-1.7v-7.5h1.6v5.4c0.1-0.1,0.2-0.3,0.3-0.7
		l3.2-4.7h1.7V223.2z"/>
	<path class="st33" d="M354.4,217.1h-2.8v6.1h-1.7v-7.5h4.5V217.1z"/>
	<path class="st33" d="M357.6,222.1L357.6,222.1v4.6h-1.7v-10.9h1.7v1.3l0,0c0.6-1,1.4-1.5,2.5-1.5c1,0,1.7,0.3,2.2,1
		s0.8,1.6,0.8,2.7c0,1.3-0.3,2.3-0.9,3c-0.6,0.8-1.4,1.1-2.5,1.1C358.8,223.4,358.1,222.9,357.6,222.1z M357.5,219.1v0.9
		c0,0.5,0.2,1,0.5,1.4s0.8,0.6,1.3,0.6c0.6,0,1.1-0.2,1.5-0.7s0.5-1.2,0.5-2.1c0-0.7-0.2-1.3-0.5-1.7s-0.8-0.6-1.4-0.6
		s-1.1,0.2-1.5,0.6C357.7,218,357.5,218.5,357.5,219.1z"/>
</g>
<path class="st33" d="M334.7,219.9h-5.1c0,0.7,0.2,1.2,0.6,1.6c0.4,0.4,1,0.6,1.7,0.6c0.8,0,1.5-0.2,2.2-0.7v1.4
	c-0.7,0.4-1.6,0.6-2.7,0.6s-2-0.3-2.6-1s-0.9-1.6-0.9-2.9c0-1.2,0.3-2.1,1-2.9c0.7-0.7,1.5-1.1,2.6-1.1s1.8,0.3,2.4,1
	s0.8,1.6,0.8,2.7V219.9z M333,218.7c0-0.6-0.1-1.1-0.4-1.4s-0.7-0.5-1.2-0.5s-0.9,0.2-1.2,0.5c-0.3,0.3-0.5,0.8-0.6,1.4H333z"/>
</svg>
