<?xml version="1.0" encoding="utf-8"?>
<!-- Generator: Adobe Illustrator 21.0.0, SVG Export Plug-In . SVG Version: 6.00 Build 0)  -->
<svg version="1.1" id="Layer_1" xmlns="http://www.w3.org/2000/svg" xmlns:xlink="http://www.w3.org/1999/xlink" x="0px" y="0px"
	 viewBox="0 0 555 250" style="enable-background:new 0 0 555 250;" xml:space="preserve">
<style type="text/css">
	.st0{fill:#93B1C6;}
	.st1{fill:#F2F2F2;}
	.st2{fill:#4C8EB4;}
	.st3{fill:#609DC1;}
	.st4{fill:#73ACCD;}
	.st5{fill:#87BBDA;}
	.st6{fill:#9ACAE6;}
	.st7{fill:#CCCCCC;}
	.st8{fill:#FEC00F;}
	.st9{fill:#15B0BF;}
	.st10{fill:#FFFFFF;}
	.st11{fill:#00A295;}
	.st12{fill:#FF7C55;}
	.st13{fill:#2C465F;}
	.st14{fill:#617B93;}
	.st15{opacity:0.1;fill:#FFFFFF;enable-background:new    ;}
	.st16{fill:#21D8DE;}
	.st17{fill:#E64717;}
	.st18{fill:#F2F9FF;}
	.st19{fill:#20364D;}
	.st20{fill:#365772;}
	.st21{fill:#2F4F6B;}
	.st22{fill:#044470;}
	.st23{fill:#3793D1;}
	.st24{fill:#043049;}
	.st25{fill:#1C75BA;}
	.st26{fill:#F0ECDA;}
	.st27{fill:#F4EBE6;}
	.st28{fill:#FFA91B;}
	.st29{fill:#183A4A;}
	.st30{fill:#FF9827;}
	.st31{fill:#F23130;}
	.st32{fill:#00CCCC;}
	.st33{fill:#FF6666;}
	.st34{fill:#FFFF66;}
	.st35{fill:#666666;}
	.st36{fill:#999999;}
	.st37{fill:#2E3192;}
	.st38{fill:#E6E6E6;}
	.st39{fill:#F15A24;}
	.st40{fill:#2C4449;}
	.st41{opacity:0.2;}
	.st42{fill:#75CFEA;}
	.st43{fill:#6FC5DF;}
	.st44{fill:#6ABBD4;}
	.st45{fill:#64B1C9;}
	.st46{fill:#5FA8BD;}
	.st47{fill:#599EB2;}
	.st48{fill:#5494A7;}
	.st49{fill:#4E8A9C;}
	.st50{fill:#488091;}
	.st51{fill:#437686;}
	.st52{fill:#3D6C7B;}
	.st53{fill:#38636F;}
	.st54{fill:#325964;}
	.st55{fill:#2D4F59;}
	.st56{fill:#27454E;}
	.st57{fill:#213B43;}
	.st58{fill:#1C3138;}
	.st59{fill:#16272D;}
	.st60{fill:#111E21;}
	.st61{fill:#0B1416;}
	.st62{fill:#060A0B;}
	.st63{fill:#FFC52D;}
	.st64{fill:#00B4BA;}
	.st65{fill:#06756A;}
	.st66{fill:#00A59B;}
	.st67{fill:#22B573;}
	.st68{fill:#CE0F0F;}
	.st69{fill:#C7B299;}
	.st70{fill:#FAF6F1;}
	.st71{fill:#ED1C24;}
	.st72{fill:#9E4A25;}
	.st73{fill:#C1272D;}
	.st74{fill:#893D22;}
	.st75{fill:#2E3E52;}
	.st76{fill:#F0D6C1;}
	.st77{fill:#FEE1C9;}
	.st78{fill:#DDC0AC;}
	.st79{fill:#212D3A;}
	.st80{fill:#998675;}
	.st81{fill:url(#SVGID_1_);}
	.st82{fill:#F5FFFE;}
	.st83{fill:#EE4A3B;}
	.st84{fill:#E23A33;}
	.st85{fill:#B3B3B3;}
	.st86{opacity:0.6;fill:#FFFFFF;enable-background:new    ;}
	.st87{fill:#5B5959;}
	.st88{fill:#231F20;}
</style>
<rect y="0.3" class="st0" width="555" height="250"/>
<g id="Design">
	<g>
		<g id="paper_2_">
			<g>
				<path class="st1" d="M166.3,24.8l30.1-4.7l6.7,42.5L173,67.3L166.3,24.8z"/>
				<g>
					<polygon class="st2" points="173.5,46.2 176.1,45.8 176.5,48.1 173.9,48.5 					"/>
					
						<rect x="176.6" y="44.4" transform="matrix(0.9878 -0.1556 0.1556 0.9878 -5.0062 28.2444)" class="st3" width="2.6" height="3.4"/>
					
						<rect x="179.4" y="41.6" transform="matrix(0.9878 -0.1558 0.1558 0.9878 -4.7264 28.698)" class="st4" width="2.6" height="5.8"/>
					
						<rect x="182.5" y="41.9" transform="matrix(0.9879 -0.1554 0.1554 0.9879 -4.6669 29.1032)" class="st5" width="2.6" height="5"/>
					
						<rect x="185.7" y="43.9" transform="matrix(0.9878 -0.1558 0.1558 0.9878 -4.7508 29.6875)" class="st6" width="2.6" height="2.5"/>
					
						<rect x="188.5" y="42.5" transform="matrix(0.9878 -0.1558 0.1558 0.9878 -4.5763 30.1127)" class="st4" width="2.6" height="3.5"/>
					
						<rect x="191.4" y="40.5" transform="matrix(0.9878 -0.1556 0.1556 0.9878 -4.3436 30.5095)" class="st5" width="2.6" height="5"/>
					
						<rect x="194.2" y="36.7" transform="matrix(0.9878 -0.1558 0.1558 0.9878 -3.977 30.9592)" class="st6" width="2.6" height="8.3"/>
				</g>
				
					<rect x="173.4" y="51.3" transform="matrix(0.9878 -0.1557 0.1557 0.9878 -5.8653 28.518)" class="st7" width="11.4" height="0.8"/>
				
					<rect x="173.6" y="52.6" transform="matrix(0.9878 -0.1557 0.1557 0.9878 -6.0653 28.565)" class="st7" width="11.4" height="0.8"/>
				
					<rect x="173.8" y="53.9" transform="matrix(0.9878 -0.1556 0.1556 0.9878 -6.2626 28.5932)" class="st7" width="11.4" height="0.8"/>
				
					<rect x="174" y="55.2" transform="matrix(0.9878 -0.1556 0.1556 0.9878 -6.4625 28.6402)" class="st7" width="11.4" height="0.8"/>
				
					<rect x="174.2" y="56.5" transform="matrix(0.9878 -0.1557 0.1557 0.9878 -6.6652 28.7059)" class="st7" width="11.4" height="0.8"/>
				
					<rect x="174.4" y="57.8" transform="matrix(0.9878 -0.1555 0.1555 0.9878 -6.8591 28.7152)" class="st7" width="11.4" height="0.8"/>
				
					<rect x="174.7" y="59.2" transform="matrix(0.9878 -0.1556 0.1556 0.9878 -7.0763 28.7978)" class="st7" width="11.4" height="0.8"/>
				
					<rect x="174.9" y="60.9" transform="matrix(0.9878 -0.1557 0.1557 0.9878 -7.3765 28.4249)" class="st7" width="5.7" height="0.8"/>
				
					<rect x="186.7" y="49.2" transform="matrix(0.9878 -0.1556 0.1556 0.9878 -5.3742 30.5432)" class="st7" width="11.4" height="0.8"/>
				
					<rect x="186.9" y="50.5" transform="matrix(0.9878 -0.1556 0.1556 0.9878 -5.574 30.5902)" class="st7" width="11.4" height="0.8"/>
				
					<rect x="187.1" y="51.8" transform="matrix(0.9878 -0.1557 0.1557 0.9878 -5.7761 30.6572)" class="st7" width="11.4" height="0.8"/>
				
					<rect x="187.3" y="53.1" transform="matrix(0.9878 -0.1556 0.1556 0.9878 -5.9737 30.6841)" class="st7" width="11.4" height="0.8"/>
				
					<rect x="187.5" y="54.4" transform="matrix(0.9878 -0.1557 0.1557 0.9878 -6.176 30.7512)" class="st7" width="11.4" height="0.8"/>
				
					<rect x="187.7" y="55.8" transform="matrix(0.9878 -0.1556 0.1556 0.9878 -6.389 30.7792)" class="st7" width="11.4" height="0.8"/>
				
					<rect x="187.9" y="57.1" transform="matrix(0.9878 -0.1557 0.1557 0.9878 -6.5915 30.8463)" class="st7" width="11.4" height="0.8"/>
				
					<rect x="188.2" y="58.6" transform="matrix(0.9878 -0.1556 0.1556 0.9878 -6.8393 30.6266)" class="st7" width="8" height="0.8"/>
				<g>
					<g>
						<polygon class="st8" points="172.9,38.3 172,37.4 179.6,29.8 185.8,32.7 193.7,25.2 194.5,26.1 186,34.1 179.9,31.2 						"/>
					</g>
					<g>
						<polygon class="st8" points="194.9,28.1 194,28.2 193.7,26.2 191.6,26.5 191.5,25.6 194.5,25.1 						"/>
					</g>
				</g>
				
					<ellipse transform="matrix(0.9877 -0.1563 0.1563 0.9877 -2.9055 29.4502)" class="st9" cx="185.8" cy="33.2" rx="1.3" ry="1.3"/>
				
					<ellipse transform="matrix(0.9877 -0.1563 0.1563 0.9877 -2.5572 28.4792)" class="st9" cx="179.8" cy="30.5" rx="1.3" ry="1.3"/>
			</g>
			<g>
				<path class="st10" d="M181.1,29.4l30.2-4l5.6,42.7l-30.2,4L181.1,29.4z"/>
				
					<rect x="187.5" y="55.3" transform="matrix(0.9913 -0.1313 0.1313 0.9913 -5.5831 26.724)" class="st7" width="24.7" height="0.8"/>
				
					<rect x="187.7" y="56.6" transform="matrix(0.9913 -0.1313 0.1313 0.9913 -5.752 26.7615)" class="st7" width="24.7" height="0.8"/>
				
					<rect x="187.9" y="57.9" transform="matrix(0.9914 -0.1312 0.1312 0.9914 -5.918 26.7779)" class="st7" width="24.7" height="0.8"/>
				
					<rect x="188" y="59.3" transform="matrix(0.9914 -0.1312 0.1312 0.9914 -6.1008 26.8031)" class="st7" width="24.7" height="0.8"/>
				
					<rect x="188.2" y="60.6" transform="matrix(0.9913 -0.1313 0.1313 0.9913 -6.2729 26.8618)" class="st7" width="24.7" height="0.8"/>
				
					<rect x="188.4" y="61.9" transform="matrix(0.9914 -0.1312 0.1312 0.9914 -6.4385 26.8781)" class="st7" width="24.7" height="0.8"/>
				
					<rect x="188.6" y="63.2" transform="matrix(0.9913 -0.1313 0.1313 0.9913 -6.6108 26.9368)" class="st7" width="24.7" height="0.8"/>
				
					<rect x="188.8" y="65.8" transform="matrix(0.9914 -0.1311 0.1311 0.9914 -7.0247 25.6979)" class="st7" width="5.7" height="0.8"/>
				<g>
					<path class="st11" d="M201.7,42.5c-0.1,0.5-0.3,1-0.6,1.4l3.1,3.3c1.2-1.3,1.9-3,2.1-4.9L201.7,42.5z"/>
					<path class="st8" d="M198.4,38.2c1.6,0.1,2.9,1.3,3.3,2.8l4.6-0.1c0-0.1,0-0.1,0-0.2c-0.6-4.2-4.3-7.3-8.5-7.1L198.4,38.2z"/>
					<path class="st12" d="M195.1,39.8c0.4-0.6,1-1.1,1.8-1.4l-0.6-4.5c-2.4,0.5-4.3,2.1-5.4,4.1L195.1,39.8z"/>
					<path class="st13" d="M200,45c-0.4,0.3-0.9,0.4-1.4,0.5c-2,0.3-3.8-1.1-4.1-3.1c-0.1-0.4,0-0.8,0.1-1.2l-4.2-1.8
						c-0.4,1.1-0.5,2.3-0.3,3.6c0.6,4.5,4.7,7.6,9.2,7c1.5-0.2,2.8-0.8,4-1.7L200,45z"/>
				</g>
			</g>
		</g>
		<g id="calculator">
			<path class="st14" d="M135.2,90.7l-18.9,10.5l10,18.1c0.1,0.2,0.3,0.4,0.6,0.5c0.3,0.1,0.5,0,0.8-0.1l17.2-9.5
				c0.2-0.1,0.4-0.3,0.5-0.6c0.1-0.3,0-0.5-0.1-0.8L135.2,90.7z"/>
			<polygon class="st15" points="118.6,99.8 135.2,90.7 143.9,106.6 			"/>
			<g>
				<g>
					<g>
						<path class="st16" d="M127,100.5c0,0.1,0,0.2-0.1,0.2l-6.3,3.5c-0.1,0-0.2,0-0.2-0.1l-1.1-2c0-0.1,0-0.2,0.1-0.2l6.3-3.5
							c0.1,0,0.2,0,0.2,0.1L127,100.5z"/>
					</g>
					<g>
						<path class="st17" d="M131.3,98.1c0,0.1,0,0.2-0.1,0.2l-2,1.1c-0.1,0-0.2,0-0.2-0.1l-1.1-2c0-0.1,0-0.2,0.1-0.2l2-1.1
							c0.1,0,0.2,0,0.2,0.1L131.3,98.1z"/>
					</g>
					<g>
						<g>
							<path class="st18" d="M135.6,95.8c0,0.1,0,0.2-0.1,0.2l-2,1.1c-0.1,0-0.2,0-0.2-0.1l-1.1-2c0-0.1,0-0.2,0.1-0.2l2-1.1
								c0.1,0,0.2,0,0.2,0.1L135.6,95.8z"/>
						</g>
					</g>
					<g>
						<g>
							<path class="st18" d="M125.1,107.1c0,0.1,0,0.2-0.1,0.2l-2,1.1c-0.1,0-0.2,0-0.2-0.1l-1.1-2c0-0.1,0-0.2,0.1-0.2l2-1.1
								c0.1,0,0.2,0,0.2,0.1L125.1,107.1z"/>
						</g>
					</g>
					<g>
						<g>
							<path class="st18" d="M129.4,104.8c0,0.1,0,0.2-0.1,0.2l-2,1.1c-0.1,0-0.2,0-0.2-0.1l-1.1-2c0-0.1,0-0.2,0.1-0.2l2-1.1
								c0.1,0,0.2,0,0.2,0.1L129.4,104.8z"/>
						</g>
					</g>
					<g>
						<g>
							<path class="st18" d="M133.7,102.4c0,0.1,0,0.2-0.1,0.2l-2,1.1c-0.1,0-0.2,0-0.2-0.1l-1.1-2c0-0.1,0-0.2,0.1-0.2l2-1.1
								c0.1,0,0.2,0,0.2,0.1L133.7,102.4z"/>
						</g>
					</g>
					<g>
						<g>
							<path class="st18" d="M137.9,100c0,0.1,0,0.2-0.1,0.2l-2,1.1c-0.1,0-0.2,0-0.2-0.1l-1.1-2c0-0.1,0-0.2,0.1-0.2l2-1.1
								c0.1,0,0.2,0,0.2,0.1L137.9,100z"/>
						</g>
					</g>
					<g>
						<g>
							<path class="st18" d="M127.5,111.4c0,0.1,0,0.2-0.1,0.2l-2,1.1c-0.1,0-0.2,0-0.2-0.1l-1.1-2c0-0.1,0-0.2,0.1-0.2l2-1.1
								c0.1,0,0.2,0,0.2,0.1L127.5,111.4z"/>
						</g>
					</g>
					<g>
						<g>
							<path class="st18" d="M131.8,109.1c0,0.1,0,0.2-0.1,0.2l-2,1.1c-0.1,0-0.2,0-0.2-0.1l-1.1-2c0-0.1,0-0.2,0.1-0.2l2-1.1
								c0.1,0,0.2,0,0.2,0.1L131.8,109.1z"/>
						</g>
					</g>
					<g>
						<path class="st19" d="M136,106.7c0,0.1,0,0.2-0.1,0.2l-2,1.1c-0.1,0-0.2,0-0.2-0.1l-1.1-2c0-0.1,0-0.2,0.1-0.2l2-1.1
							c0.1,0,0.2,0,0.2,0.1L136,106.7z"/>
					</g>
					<g>
						<g>
							<path class="st18" d="M129.8,115.7c0,0.1,0,0.2-0.1,0.2l-2,1.1c-0.1,0-0.2,0-0.2-0.1l-1.1-2c0-0.1,0-0.2,0.1-0.2l2-1.1
								c0.1,0,0.2,0,0.2,0.1L129.8,115.7z"/>
						</g>
					</g>
					<g>
						<g>
							<path class="st18" d="M134.1,113.3c0,0.1,0,0.2-0.1,0.2l-2,1.1c-0.1,0-0.2,0-0.2-0.1l-1.1-2c0-0.1,0-0.2,0.1-0.2l2-1.1
								c0.1,0,0.2,0,0.2,0.1L134.1,113.3z"/>
						</g>
					</g>
					<g>
						<g>
							<path class="st19" d="M138.4,111c0,0.1,0,0.2-0.1,0.2l-2,1.1c-0.1,0-0.2,0-0.2-0.1l-1.1-2c0-0.1,0-0.2,0.1-0.2l2-1.1
								c0.1,0,0.2,0,0.2,0.1L138.4,111z"/>
						</g>
					</g>
					<g>
						<path class="st19" d="M142.7,108.6c0,0.1,0,0.2-0.1,0.2l-2,1.1c-0.1,0-0.2,0-0.2-0.1l-1.1-2c0-0.1,0-0.2,0.1-0.2l2-1.1
							c0.1,0,0.2,0,0.2,0.1L142.7,108.6z"/>
					</g>
					<g>
						<path class="st19" d="M140.3,104.3c0,0.1,0,0.2-0.1,0.2l-2,1.1c-0.1,0-0.2,0-0.2-0.1l-1.1-2c0-0.1,0-0.2,0.1-0.2l2-1.1
							c0.1,0,0.2,0,0.2,0.1L140.3,104.3z"/>
					</g>
				</g>
			</g>
			<path class="st20" d="M131,83.1c-0.1-0.2-0.3-0.4-0.6-0.5c-0.3-0.1-0.5,0-0.8,0.1l-17.2,9.5c-0.2,0.1-0.4,0.3-0.5,0.6
				c-0.1,0.3,0,0.5,0.1,0.8l4.2,7.6l18.9-10.5L131,83.1z"/>
			<path class="st21" d="M117.5,98.5c-0.1,0.1-0.3,0.1-0.4,0.1c-0.2,0-0.3-0.1-0.4-0.3l-2.4-4.4c-0.1-0.1-0.1-0.3,0-0.4
				c0-0.2,0.1-0.3,0.3-0.4l14.9-8.2c0.1-0.1,0.3-0.1,0.5,0c0.1,0,0.3,0.1,0.4,0.3l2.4,4.4c0.1,0.1,0.1,0.3,0.1,0.4
				c0,0.2-0.1,0.3-0.3,0.4L117.5,98.5z"/>
			<path class="st8" d="M114.7,93.5L114.7,93.5l-0.1,0.2l2.4,4.4l0.1,0.1h0.1l14.9-8.2l0.1-0.1v-0.1l-2.4-4.4l-0.1-0.1h-0.1
				L114.7,93.5z"/>
			
				<rect x="114.8" y="95.5" transform="matrix(0.8754 -0.4835 0.4835 0.8754 -30.6151 72.6617)" class="st21" width="21.6" height="0.4"/>
		</g>
		<g>
			
				<rect x="305.6" y="38.9" transform="matrix(0.2669 -0.9637 0.9637 0.2669 170.4844 339.5816)" class="st10" width="5.6" height="37.7"/>
			<path class="st22" d="M299.9,51c-0.6,2.1-3,3.3-5.4,2.7c-2.4-0.7-3.8-0.3-5,1.2l10.6-38.2c0.6-2.1,3-3.3,5.4-2.7
				c2.4,0.7,3.8,2.9,3.2,5.1L299.9,51z"/>
			
				<rect x="295.5" y="21.6" transform="matrix(0.2669 -0.9637 0.9637 0.2669 194.7106 332.6441)" class="st23" width="41.1" height="33.5"/>
			<path class="st24" d="M305.5,14.1c-0.4-0.1-0.8-0.2-1.2-0.2l-11,39.6c0.4,0.1,0.8,0.1,1.2,0.2c2.4,0.7,4.8-0.5,5.4-2.7l8.8-31.9
				C309.3,17,307.9,14.7,305.5,14.1"/>
			
				<rect x="286.8" y="28.1" transform="matrix(0.2669 -0.9637 0.9637 0.2669 190.5932 322.5991)" class="st25" width="41.1" height="15.8"/>
			<path class="st10" d="M326.6,62.6l-34.1-9.4c-1.2-0.3-2.5,0.5-2.9,2c-0.4,1.4,0.3,2.8,1.5,3.2l34.1,9.4L326.6,62.6z"/>
			<path class="st22" d="M324,67l0.8-3h0.1l0.4-1.3l1.2,0.3l0.1-0.4l-34.1-9.4c-1.2-0.3-2.5,0.5-2.9,2c-0.4,1.4,0.3,2.8,1.5,3.2
				l34.1,9.4l0.1-0.4L324,67z"/>
			<path class="st10" d="M326.5,63l-34.1-9.4c-1-0.3-2.1,0.5-2.4,1.7s0.2,2.4,1.2,2.7l34.1,9.4L326.5,63z"/>
			<path class="st26" d="M289.9,55.3c-0.3,1.2,0.2,2.3,1.2,2.6l34.1,9.4l0.6-2.1L289.9,55.3z"/>
			<g>
				<path class="st10" d="M324.6,41.4c-1.5,5.4-7.1,8.6-12.5,7.1s-8.6-7.1-7.1-12.5s7.1-8.6,12.5-7.1
					C322.9,30.4,326.1,36,324.6,41.4"/>
				<path class="st27" d="M317.5,28.9l-5.4,19.6c5.4,1.5,11-1.7,12.5-7.1S322.9,30.4,317.5,28.9"/>
			</g>
			<path class="st28" d="M299.1,20.5l-1.1,3.9c0.9-0.8,2.1-1.1,3.6-0.9l0.9-3.3C301.4,20.1,300.2,20.2,299.1,20.5"/>
			<path class="st28" d="M292.3,45.1l-1.1,3.9c0.9-0.8,2.1-1.1,3.6-0.9l0.9-3.3C294.5,44.7,293.4,44.8,292.3,45.1"/>
		</g>
		<g>
			<path class="st29" d="M417.9,97.1c0.2-0.6,0.7-1.7,0.1-2.2c-0.8-0.6-1.5,0.4-1.8,1.1c-0.1,0.3,0.3,0.4,0.4,0.2
				c0.1-0.3,0.2-0.6,0.5-0.8c0.2-0.2,0.6-0.3,0.8,0c0.2,0.4-0.1,1.1-0.3,1.5C417.4,97.2,417.8,97.4,417.9,97.1"/>
			<path class="st29" d="M421.4,98.6c0.2-0.6,0.7-1.7,0.1-2.2c-0.8-0.6-1.5,0.4-1.8,1.1c-0.1,0.3,0.3,0.4,0.4,0.2
				c0.1-0.3,0.2-0.6,0.5-0.8c0.2-0.2,0.6-0.3,0.8,0c0.2,0.4-0.1,1.1-0.3,1.5C420.9,98.6,421.3,98.8,421.4,98.6"/>
			<path class="st29" d="M424.9,100c0.2-0.6,0.7-1.7,0.1-2.2c-0.8-0.6-1.5,0.4-1.8,1.1c-0.1,0.3,0.3,0.4,0.4,0.2
				c0.1-0.3,0.2-0.6,0.5-0.8c0.2-0.2,0.6-0.3,0.8,0c0.2,0.4-0.1,1.1-0.3,1.5C424.4,100.1,424.8,100.3,424.9,100"/>
			<path class="st29" d="M428.4,101.5c0.2-0.6,0.7-1.7,0.1-2.2c-0.8-0.6-1.5,0.4-1.8,1.1c-0.1,0.3,0.3,0.4,0.4,0.2
				c0.1-0.3,0.2-0.6,0.5-0.8c0.2-0.2,0.6-0.3,0.8,0c0.2,0.4-0.1,1.1-0.3,1.5C427.9,101.5,428.3,101.7,428.4,101.5"/>
			<path class="st29" d="M432,102.9c0.2-0.6,0.7-1.7,0.1-2.2c-0.8-0.6-1.5,0.4-1.8,1.1c-0.1,0.3,0.3,0.4,0.4,0.2
				c0.1-0.3,0.2-0.6,0.5-0.8c0.2-0.2,0.6-0.3,0.8,0c0.2,0.4-0.1,1.1-0.3,1.5C431.5,103,431.9,103.2,432,102.9"/>
			<path class="st29" d="M435.5,104.3c0.2-0.6,0.7-1.7,0.1-2.2c-0.8-0.6-1.5,0.4-1.8,1.1c-0.1,0.3,0.3,0.4,0.4,0.2
				c0.1-0.3,0.2-0.6,0.5-0.8c0.2-0.2,0.6-0.3,0.8,0c0.2,0.4-0.1,1.1-0.3,1.5C435,104.4,435.4,104.6,435.5,104.3"/>
			<path class="st29" d="M438.9,105.8c0.2-0.6,0.7-1.7,0.1-2.2c-0.8-0.6-1.5,0.4-1.8,1.1c-0.1,0.3,0.3,0.4,0.4,0.2
				c0.1-0.3,0.2-0.6,0.5-0.8c0.2-0.2,0.6-0.3,0.8,0c0.2,0.4-0.1,1.1-0.3,1.5C438.4,105.9,438.8,106,438.9,105.8"/>
			<polygon class="st30" points="434.4,120.3 434,120.2 433.4,121.6 424.1,117.8 426.1,113 412.3,109.6 410.7,113.3 408.5,112.3 
				404.8,123.2 430.5,131.8 			"/>
			<polygon class="st31" points="431.8,121.5 437.8,106.8 435.9,105.8 431.8,116 410.6,107.3 403.8,120.7 427.9,133 433.4,122.2 			
				"/>
			
				<rect x="408.9" y="99.7" transform="matrix(0.3804 -0.9248 0.9248 0.3804 157.2146 461.1316)" class="st10" width="27.8" height="27.1"/>
			
				<rect x="425.4" y="88.7" transform="matrix(0.3804 -0.9248 0.9248 0.3804 170.2774 458.5628)" class="st27" width="3.9" height="27.1"/>
			
				<rect x="426.4" y="87.9" transform="matrix(0.3804 -0.9248 0.9248 0.3804 171.1617 458.3684)" class="st30" width="2.5" height="27.1"/>
			<path class="st29" d="M418.2,97.4c-0.2,0.4-0.6,0.5-0.9,0.4c-0.4-0.2-0.5-0.6-0.4-0.9c0.2-0.4,0.6-0.5,0.9-0.4
				C418.2,96.6,418.4,97,418.2,97.4"/>
			<path class="st29" d="M421.7,98.9c-0.2,0.4-0.6,0.5-0.9,0.4c-0.4-0.2-0.5-0.6-0.4-0.9c0.2-0.4,0.6-0.5,0.9-0.4
				C421.7,98.1,421.9,98.5,421.7,98.9"/>
			<path class="st29" d="M425.3,100.3c-0.2,0.4-0.6,0.5-0.9,0.4c-0.4-0.2-0.5-0.6-0.4-0.9c0.2-0.4,0.6-0.5,0.9-0.4
				C425.3,99.5,425.4,100,425.3,100.3"/>
			<path class="st29" d="M428.8,101.8c-0.2,0.4-0.6,0.5-0.9,0.4c-0.4-0.2-0.5-0.6-0.4-0.9c0.2-0.4,0.6-0.5,0.9-0.4
				C428.8,101,429,101.4,428.8,101.8"/>
			<path class="st29" d="M432.3,103.2c-0.2,0.4-0.6,0.5-0.9,0.4c-0.4-0.2-0.5-0.6-0.4-0.9c0.2-0.4,0.6-0.5,0.9-0.4
				C432.3,102.4,432.5,102.9,432.3,103.2"/>
			<path class="st29" d="M435.9,104.7c-0.2,0.4-0.6,0.5-0.9,0.4c-0.4-0.2-0.5-0.6-0.4-0.9c0.2-0.4,0.6-0.5,0.9-0.4
				C435.9,103.9,436,104.3,435.9,104.7"/>
			<path class="st29" d="M439.4,106.1c-0.2,0.4-0.6,0.5-0.9,0.4c-0.4-0.2-0.5-0.6-0.4-0.9c0.2-0.4,0.6-0.5,0.9-0.4
				C439.4,105.3,439.6,105.8,439.4,106.1"/>
			<path class="st29" d="M418,94.9c-0.4-0.3-0.8-0.2-1.1,0.1l0.5,0.2c0.2-0.1,0.4,0,0.5,0.2c0.2,0.4-0.1,1.1-0.3,1.5
				c-0.1,0.3,0.3,0.4,0.4,0.2C418.1,96.5,418.6,95.4,418,94.9"/>
			<path class="st29" d="M421.5,96.4c-0.5-0.4-0.9-0.2-1.2,0.2l0.4,0.2c0.2-0.1,0.5-0.1,0.6,0.2c0.2,0.4-0.1,1.1-0.3,1.5
				c-0.1,0.3,0.3,0.4,0.4,0.2C421.6,98,422.1,96.9,421.5,96.4"/>
			<path class="st29" d="M425,97.8c-0.5-0.4-1-0.1-1.3,0.3l0.4,0.2c0.2-0.2,0.6-0.3,0.7,0.1c0.2,0.4-0.1,1.1-0.3,1.5
				c-0.1,0.3,0.3,0.4,0.4,0.2C425.2,99.4,425.7,98.3,425,97.8"/>
			<path class="st29" d="M428.5,99.3c-0.4-0.3-0.7-0.2-1,0l0.4,0.2v0.1c0.2-0.1,0.4,0,0.5,0.2c0.2,0.4-0.1,1.1-0.3,1.5
				c-0.1,0.3,0.3,0.4,0.4,0.2C428.7,100.9,429.2,99.8,428.5,99.3"/>
			<path class="st29" d="M432,100.7c-0.5-0.4-0.9-0.2-1.3,0.2l0.4,0.2c0.2-0.2,0.5-0.2,0.7,0.1c0.2,0.4-0.1,1.1-0.3,1.5
				c-0.1,0.3,0.3,0.4,0.4,0.2C432.2,102.3,432.7,101.2,432,100.7"/>
			<path class="st29" d="M435.6,102.2c-0.5-0.4-0.9-0.2-1.3,0.2l0.4,0.2c0.2-0.2,0.5-0.2,0.7,0.1c0.2,0.4-0.1,1.1-0.3,1.5
				c-0.1,0.3,0.3,0.4,0.4,0.2C435.7,103.7,436.2,102.7,435.6,102.2"/>
			<path class="st29" d="M439,103.6c-0.4-0.3-0.8-0.2-1.2,0.1l0.5,0.2c0.2-0.1,0.4-0.1,0.6,0.2c0.2,0.4-0.1,1.1-0.3,1.5
				c-0.1,0.3,0.3,0.4,0.4,0.2C439.2,105.2,439.7,104.1,439,103.6"/>
			
				<rect x="423.5" y="97.8" transform="matrix(0.3804 -0.9248 0.9248 0.3804 161.558 460.2509)" class="st27" width="1.5" height="23.6"/>
			
				<rect x="422.3" y="101.1" transform="matrix(0.3804 -0.9248 0.9248 0.3804 157.6587 461.1672)" class="st27" width="1.5" height="23.6"/>
			
				<rect x="421" y="104.1" transform="matrix(0.3804 -0.9248 0.9248 0.3804 154.1458 461.8074)" class="st27" width="1.5" height="23.6"/>
			
				<rect x="419.7" y="107.4" transform="matrix(0.3804 -0.9248 0.9248 0.3804 150.2256 462.662)" class="st27" width="1.5" height="23.6"/>
			
				<rect x="426.2" y="125.5" transform="matrix(0.3804 -0.9248 0.9248 0.3804 146.8289 475.6392)" class="st27" width="4.4" height="5.4"/>
			<polygon class="st10" points="425.1,129.2 430,131.2 431.7,127.2 			"/>
			
				<rect x="414.7" y="101" transform="matrix(0.3804 -0.9248 0.9248 0.3804 163.0564 448.7894)" class="st30" width="3.5" height="3.5"/>
			
				<rect x="418.9" y="102.5" transform="matrix(0.3803 -0.9249 0.9249 0.3803 164.2364 453.637)" class="st31" width="3.5" height="3.5"/>
		</g>
		<g>
			
				<rect x="359.7" y="57" transform="matrix(0.3992 -0.9169 0.9169 0.3992 162.5353 385.1737)" class="st10" width="31" height="23.2"/>
			<path d="M395.3,58.6c0.3-0.8,0-1.7-0.8-2l-23.6-10.3c-0.8-0.3-1.7,0-2,0.8l-13.7,31.5c-0.3,0.8,0,1.7,0.8,2l23.7,10.3
				c0.8,0.3,1.7,0,2-0.8L395.3,58.6z M379.6,87.5l-21.1-9.2l12.4-28.4l21.1,9.2L379.6,87.5z"/>
			
				<rect x="372.8" y="50.2" transform="matrix(0.3992 -0.9169 0.9169 0.3992 170.6752 383.9231)" class="st32" width="10.9" height="23"/>
			
				<rect x="366.3" y="63.6" transform="matrix(0.3991 -0.9169 0.9169 0.3991 159.1199 379.7942)" class="st33" width="6.1" height="9.7"/>
			
				<rect x="362.6" y="73.5" transform="matrix(0.3992 -0.9169 0.9169 0.3992 147.4621 381.7447)" class="st34" width="4.9" height="9.7"/>
			
				<rect x="367.5" y="67.3" transform="matrix(0.3992 -0.9169 0.9169 0.3992 154.8773 380.581)" class="st35" width="0.7" height="9.7"/>
			
				<rect x="366" y="69" transform="matrix(0.3991 -0.9169 0.9169 0.3991 153.6751 379.2171)" class="st36" width="0.3" height="6.8"/>
			
				<rect x="366" y="69.2" transform="matrix(0.3992 -0.9169 0.9169 0.3992 153.0233 379.5566)" class="st36" width="0.3" height="7.6"/>
			
				<rect x="365.3" y="70.5" transform="matrix(0.3992 -0.9169 0.9169 0.3992 151.8231 379.4133)" class="st36" width="0.3" height="6.8"/>
			
				<rect x="366.3" y="70.1" transform="matrix(0.3992 -0.9169 0.9169 0.3992 151.4979 380.9693)" class="st36" width="0.2" height="9.5"/>
			
				<rect x="376" y="68.1" transform="matrix(0.3992 -0.9169 0.9169 0.3992 160.9852 391.2859)" class="st32" width="6.2" height="9.5"/>
			
				<rect x="376.2" y="73" transform="matrix(0.3992 -0.9169 0.9169 0.3992 155.4939 391.4993)" class="st36" width="0.5" height="8.3"/>
			
				<rect x="375.3" y="74.1" transform="matrix(0.3991 -0.9169 0.9169 0.3991 154.6244 390.772)" class="st36" width="0.3" height="6.6"/>
			
				<rect x="377.2" y="71.8" transform="matrix(0.3992 -0.9169 0.9169 0.3992 156.5025 391.9628)" class="st35" width="0.3" height="9.5"/>
			
				<rect x="374.8" y="75.2" transform="matrix(0.3992 -0.9169 0.9169 0.3992 153.3028 390.947)" class="st36" width="0.3" height="6.6"/>
			
				<rect x="375.9" y="74.7" transform="matrix(0.3991 -0.9169 0.9169 0.3991 153.2086 392.4794)" class="st36" width="0.2" height="9.3"/>
			
				<rect x="375.1" y="76.2" transform="matrix(0.3992 -0.9169 0.9169 0.3992 151.4825 392.868)" class="st36" width="0.9" height="9.3"/>
			<path class="st36" d="M376.9,82.2l-6.1-2.6L376.9,82.2z"/>
			
				<rect x="375.1" y="77" transform="matrix(0.3992 -0.9169 0.9169 0.3992 150.5323 393.0332)" class="st36" width="0.2" height="9.3"/>
			
				<rect x="373.5" y="79.6" transform="matrix(0.3991 -0.9169 0.9169 0.3991 147.7172 392.968)" class="st36" width="0.3" height="8.3"/>
			
				<rect x="372.2" y="80.7" transform="matrix(0.3992 -0.9169 0.9169 0.3992 146.8466 392.083)" class="st36" width="0.7" height="6.6"/>
			
				<rect x="374.4" y="78.3" transform="matrix(0.3992 -0.9169 0.9169 0.3992 148.9022 393.2727)" class="st35" width="0.3" height="9.5"/>
			<path class="st37" d="M393.8,67.1c0,0,0.2,0.9,3.3-2.9c0,0,0.5,0,0.4-0.4c0,0,2.4-2.9,3.2-5.2c0,0-0.1-0.7-0.7-0.5
				c0,0-2.2,1-4.6,3.9c0,0-0.7,0.4-0.5,0.9c0,0,0.1-0.2,0.8-0.5c0,0,0.8,0.4,0.7,0.6c0,0,0,0,0,0.3
				C396.5,63.4,393.5,66.2,393.8,67.1"/>
			<path class="st38" d="M380.8,81.7l16.3-18.2c0,0-0.4-1.2-1.4-1.3l-16.2,18.1C379.5,80.2,380.7,80.5,380.8,81.7"/>
			<path class="st7" d="M380.6,81.2L396.8,63l-0.3-0.4l-16.2,18.2C380.4,80.8,380.5,80.9,380.6,81.2"/>
		</g>
	</g>
	<g>
		<g>
			<g>
				<path class="st10" d="M299.2,88.2c0,4.8,6.1,8.6,14,8.7V79.5C305.3,79.6,299.2,83.4,299.2,88.2z"/>
				<path class="st1" d="M314.9,96.8v4.3l4.3-5c4.8-1.4,8.2-4.4,8.2-7.9c0-4.8-6.4-8.7-14.2-8.7H313v17.3c0,0,0,0,0.1,0
					C313.8,96.9,314.6,96.9,314.9,96.8z"/>
			</g>
			<g>
				<g>
					<path class="st39" d="M304.2,87.5c0-0.4,0-0.8,0-1.1h0.6V87l0,0c0.3-0.4,0.7-0.7,1.2-0.7c0.8,0,1.5,0.7,1.5,1.8
						c0,1.2-0.8,1.9-1.6,1.9c-0.5,0-0.9-0.2-1.1-0.5l0,0v1.9h-0.6V87.5z M304.9,88.4c0,0.1,0,0.2,0,0.3c0.1,0.4,0.5,0.7,0.9,0.7
						c0.7,0,1-0.5,1-1.3c0-0.7-0.4-1.3-1-1.3c-0.4,0-0.8,0.3-0.9,0.8c0,0.1,0,0.2,0,0.3V88.4z"/>
					<path class="st39" d="M308.5,86.4l0.8,2c0.1,0.2,0.2,0.5,0.2,0.7l0,0c0.1-0.2,0.1-0.5,0.2-0.7l0.7-2h0.7l-0.9,2.5
						c-0.5,1.2-0.8,1.8-1.2,2.2c-0.3,0.3-0.6,0.4-0.8,0.4L308,91c0.2,0,0.4-0.1,0.5-0.3c0.2-0.1,0.4-0.4,0.5-0.7
						c0-0.1,0.1-0.1,0.1-0.1s0-0.1,0-0.2l-1.3-3.2h0.7L308.5,86.4L308.5,86.4z"/>
					<path class="st39" d="M312.4,85.4v1h0.9v0.5h-0.9v1.9c0,0.4,0.1,0.7,0.5,0.7c0.2,0,0.3,0,0.4,0V90c-0.1,0-0.3,0.1-0.6,0.1
						c-0.3,0-0.5-0.1-0.7-0.3c-0.2-0.2-0.2-0.5-0.2-0.9V87h-0.5v-0.5h0.5v-0.9L312.4,85.4z"/>
					<path class="st39" d="M314,84.8h0.6V87l0,0c0.1-0.2,0.3-0.3,0.5-0.4s0.4-0.2,0.6-0.2c0.5,0,1.2,0.3,1.2,1.5V90h-0.6v-2
						c0-0.6-0.2-1-0.8-1c-0.4,0-0.7,0.3-0.8,0.6c0,0.1,0,0.2,0,0.3V90H314V84.8z"/>
					<path class="st39" d="M321.1,88.1c0,1.3-0.9,1.8-1.7,1.8c-0.9,0-1.7-0.7-1.7-1.8c0-1.2,0.8-1.8,1.7-1.8
						C320.4,86.3,321.1,87,321.1,88.1z M318.3,88.1c0,0.8,0.4,1.3,1,1.3s1-0.6,1-1.3c0-0.6-0.3-1.3-1-1.3
						C318.6,86.8,318.3,87.5,318.3,88.1z"/>
					<path class="st39" d="M321.9,87.3c0-0.4,0-0.6,0-0.9h0.6V87l0,0c0.2-0.3,0.6-0.6,1.1-0.6s1.2,0.3,1.2,1.5V90h-0.6v-2
						c0-0.6-0.2-1-0.8-1c-0.4,0-0.7,0.3-0.8,0.6c0,0.1,0,0.2,0,0.3V90H322v-2.7H321.9z"/>
				</g>
			</g>
		</g>
		<g>
			<g>
				<path class="st10" d="M242.5,86c0,4.8-6.1,8.6-14,8.7V77.4C236.4,77.4,242.5,81.3,242.5,86z"/>
				<path class="st1" d="M226.7,94.6v4.3l-4.3-5c-4.8-1.4-8.2-4.4-8.2-7.9c0-4.8,6.4-8.7,14.1-8.7h0.2v17.3c0,0,0,0-0.1,0
					C227.9,94.7,227.1,94.7,226.7,94.6z"/>
			</g>
			<g>
				<g>
					<path class="st40" d="M223.7,87.8c-0.2,0.1-0.6,0.2-1.2,0.2c-1.2,0-2.2-0.8-2.2-2.2c0-1.4,0.9-2.3,2.3-2.3c0.5,0,0.9,0.1,1,0.2
						l-0.1,0.5c-0.2-0.1-0.5-0.2-0.9-0.2c-1,0-1.7,0.7-1.7,1.8c0,1.1,0.6,1.8,1.7,1.8c0.3,0,0.7-0.1,0.9-0.2L223.7,87.8z"/>
					<path class="st40" d="M226,84.5V86h1.5v0.4H226v1.5h-0.4v-1.5h-1.5V86h1.5v-1.5H226z"/>
					<path class="st40" d="M229.9,84.5V86h1.5v0.4h-1.5v1.5h-0.4v-1.5H228V86h1.5v-1.5H229.9z"/>
				</g>
			</g>
		</g>
		<g class="st41">
			<g>
				<g>
					<polygon class="st42" points="189.9,169.9 189.9,199.5 193.4,199.5 197,199.5 197,169.9 193.4,169.9 					"/>
					<polygon class="st42" points="206,190.1 204.7,181 202.9,169.3 202.9,169.3 202.9,169.3 200,169.8 200,169.8 197.1,170.2 
						198.4,178.6 198.4,178.6 200.2,191 200.2,191 201.5,199.5 207.3,198.6 					"/>
					<polygon class="st42" points="182.4,156.3 182.4,156.3 180.3,156.5 180.3,156.6 180.3,156.6 180.5,158.5 180.5,158.6 
						180.9,163.1 175.9,163.1 170.9,163.1 170.9,164.3 170.9,166.4 170.9,169.9 170.9,177.5 170.9,182.7 170.9,190.3 170.9,195.5 
						170.9,197.6 170.9,199.5 175.9,199.5 180.9,199.5 180.9,197.6 180.9,195.5 180.9,190.3 180.9,182.7 180.9,177.5 180.9,169.9 
						180.9,166.4 180.9,164.3 180.9,163.3 184.6,199.7 186.7,199.5 186.7,199.5 188.9,199.2 184.6,156.1 					"/>
					<path class="st42" d="M351.6,187.4c-0.4,0.7-1.3,1.5-2.6,1.7c0-0.2,0-0.3,0-0.5v-3c0.7-0.3,1.9-0.9,2.6,0
						C351.9,186,351.9,186.7,351.6,187.4z M352.6,184.8c-1-1.3-2.6-1.1-3.6-0.7v-1.4h-9.5h-9.7v5.8c0,4.6,3.8,8.1,8.4,8.1h-10.3
						c0.6,1.1,1.2,1.8,2.3,2.5h9.3h9.3c0.7-0.4,1.5-1.1,2.3-2.5h-10.3c3.9,0,7.2-2.7,8.1-6.3c1.6-0.1,3.1-1,3.9-2.4
						C353.3,186.8,353.3,185.7,352.6,184.8z"/>
				</g>
				<path class="st42" d="M306.3,132.5l-10.5-7.6h-15.1h-2.4l-2.7-2.4v-0.8h2.5l8.2-11.8v-6.4V87.4c0-1.8,0-3.3,0-4.6
					c0-6.8-8.1-8.2-8.1-8.2s-4.8,0-10.1,0c-3.6,0-7.8,0-10.5,0c-7,0-7.7,8.4-7.7,8.4v4.8v15.6v6.4l8.8,11.8h1.2v0.8l-4.4,2.4H255
					h-8.6h-5.6h-1l-7.9,11.8l-9.5,63.8h31.8h27.4h31.8L306.3,132.5z"/>
			</g>
			<g>
				<g>
					<polygon class="st43" points="190.2,169.6 190.2,199.2 193.7,199.2 197.4,199.2 197.4,169.6 193.7,169.6 					"/>
					<polygon class="st43" points="206.4,189.8 205,180.7 203.3,169 203.3,169 203.3,169 200.4,169.5 200.4,169.5 197.5,169.9 
						198.7,178.3 198.7,178.3 200.6,190.7 200.6,190.7 201.9,199.2 207.7,198.3 					"/>
					<polygon class="st43" points="182.8,156 182.8,156 180.7,156.2 180.7,156.3 180.7,156.3 180.8,158.2 180.9,158.3 181.3,162.8 
						176.3,162.8 171.3,162.8 171.3,164 171.3,166.1 171.3,169.6 171.3,177.2 171.3,182.4 171.3,190 171.3,195.2 171.3,197.3 
						171.3,199.2 176.3,199.2 181.3,199.2 181.3,197.3 181.3,195.2 181.3,190 181.3,182.4 181.3,177.2 181.3,169.6 181.3,166.1 
						181.3,164 181.3,163 184.9,199.4 187.1,199.2 187.1,199.2 189.2,198.9 184.9,155.8 					"/>
					<path class="st43" d="M351.9,187.1c-0.4,0.7-1.3,1.5-2.6,1.7c0-0.2,0-0.3,0-0.5v-2.9c0.7-0.3,1.9-0.9,2.6,0
						C352.3,185.8,352.3,186.4,351.9,187.1z M353,184.5c-1-1.3-2.6-1.1-3.6-0.7v-1.4h-9.5h-9.7v5.8c0,4.6,3.8,8.1,8.4,8.1h-10.3
						c0.6,1.1,1.2,1.8,2.3,2.5h9.3h9.3c0.7-0.4,1.5-1.1,2.3-2.5h-10.3c3.9,0,7.2-2.7,8.1-6.3c1.6-0.1,3.1-1,3.9-2.4
						C353.7,186.5,353.6,185.4,353,184.5z"/>
				</g>
				<path class="st43" d="M306.7,132.5l-10.5-7.8H281h-2.4l-2.7-2.4v-0.8h2.5l8.2-11.8v-6.4V87.4c0-1.8,0-3.4,0-4.6
					c0-6.9-8.1-8.2-8.1-8.2s-4.8,0-10.1,0c-3.6,0-7.8,0-10.5,0c-7,0-7.7,8.3-7.7,8.3v4.8v15.6v6.4l8.8,11.8h1.2v0.8l-4.4,2.4h-0.5
					h-8.6h-5.6l-0.9,0.2l-8.1,11.6l-9.5,63.8h31.8h27.4h31.8L306.7,132.5z"/>
			</g>
			<g>
				<g>
					<polygon class="st44" points="190.6,169.3 190.6,198.9 194.1,198.9 197.7,198.9 197.7,169.3 194.1,169.3 					"/>
					<polygon class="st44" points="206.8,189.5 205.4,180.4 203.6,168.7 203.6,168.7 203.6,168.7 200.7,169.2 200.7,169.2 
						197.8,169.6 199.1,178 199.1,178 201,190.4 201,190.4 202.2,198.9 208,198 					"/>
					<polygon class="st44" points="183.2,155.7 183.2,155.7 181,155.9 181,156 181,156 181.2,157.9 181.2,158 181.7,162.5 
						176.7,162.5 171.7,162.5 171.7,163.8 171.7,165.8 171.7,169.3 171.7,176.9 171.7,182.1 171.7,189.7 171.7,194.9 171.7,197 
						171.7,198.9 176.7,198.9 181.7,198.9 181.7,197 181.7,194.9 181.7,189.7 181.7,182.1 181.7,176.9 181.7,169.3 181.7,165.8 
						181.7,163.8 181.7,162.7 185.3,199.1 187.4,198.9 187.4,198.9 189.6,198.7 185.3,155.5 					"/>
					<path class="st44" d="M352.3,186.8c-0.4,0.7-1.3,1.5-2.6,1.7c0-0.2,0-0.3,0-0.5v-2.9c0.7-0.3,1.9-0.9,2.6,0
						C352.6,185.5,352.6,186.1,352.3,186.8z M353.4,184.2c-1-1.3-2.6-1.1-3.6-0.7v-1.4h-9.5h-9.7v5.8c0,4.6,3.8,8.1,8.4,8.1h-10.3
						c0.6,1.1,1.2,1.8,2.3,2.5h9.3h9.3c0.7-0.4,1.5-1.1,2.3-2.5h-10.3c3.9,0,7.2-2.7,8.1-6.3c1.6-0.1,3.1-1,3.9-2.4
						C354,186.2,354,185.1,353.4,184.2z"/>
				</g>
				<path class="st44" d="M307.1,132.4l-10.5-8.1h-15.1H279l-2.7-2.4v-0.8h2.5l8.2-11.8v-6.4V87.2c0-1.8,0-3.4,0-4.6
					c0-6.9-8.1-8.2-8.1-8.2s-4.8,0-10.1,0c-3.6,0-7.8,0-10.5,0c-7,0-7.7,8.2-7.7,8.2v4.8V103v6.4l8.8,11.8h1.2v0.8l-4.4,2.4h-0.5
					h-8.6h-5.6l-0.7,0.4l-8.2,11.4l-9.5,63.8h31.8h27.4H314L307.1,132.4z"/>
			</g>
			<g>
				<g>
					<polygon class="st45" points="190.9,169 190.9,198.6 194.5,198.6 198.1,198.6 198.1,169 194.5,169 					"/>
					<polygon class="st45" points="207.1,189.2 205.7,180.1 204,168.4 204,168.4 204,168.4 201.1,168.9 201.1,168.9 198.2,169.3 
						199.4,177.7 199.4,177.7 201.3,190.1 201.3,190.1 202.6,198.6 208.4,197.7 					"/>
					<polygon class="st45" points="183.5,155.4 183.5,155.4 181.4,155.6 181.4,155.7 181.4,155.7 181.6,157.6 181.6,157.7 
						182,162.2 177,162.2 172,162.2 172,163.5 172,165.5 172,169 172,176.6 172,181.8 172,189.4 172,194.6 172,196.7 172,198.6 
						177,198.6 182,198.6 182,196.7 182,194.6 182,189.4 182,181.8 182,176.6 182,169 182,165.5 182,163.5 182,162.4 185.7,198.8 
						187.8,198.6 187.8,198.6 190,198.4 185.7,155.2 					"/>
					<path class="st45" d="M352.7,186.5c-0.4,0.7-1.3,1.5-2.6,1.7c0-0.2,0-0.3,0-0.5v-2.9c0.7-0.3,1.9-0.9,2.6,0
						C353,185.2,353,185.8,352.7,186.5z M353.7,183.9c-1-1.3-2.6-1.1-3.6-0.7v-1.4h-9.5h-9.7v5.8c0,4.6,3.8,8.1,8.4,8.1H329
						c0.6,1.1,1.2,1.8,2.3,2.5h9.3h9.3c0.7-0.4,1.5-1.1,2.3-2.5h-10.3c3.9,0,7.2-2.7,8.1-6.3c1.6-0.1,3.1-1,3.9-2.4
						C354.4,185.9,354.4,184.8,353.7,183.9z"/>
				</g>
				<path class="st45" d="M307.4,132.4l-10.6-8.4h-15.1h-2.4l-2.7-2.4v-0.8h2.5l8.2-11.8v-6.4V87c0-1.8,0-3.4,0-4.7
					c0-6.9-8.1-8.3-8.1-8.3s-4.8,0-10.1,0c-3.6,0-7.8,0-10.5,0c-7,0-7.7,8.1-7.7,8.1v4.8v15.6v6.4l8.8,11.8h1.2v0.8l-4.4,2.4H256
					h-8.6h-5.6l-0.6,0.6l-8.3,11.2l-9.5,63.8h31.8h27.4h31.8L307.4,132.4z"/>
			</g>
			<g>
				<g>
					<polygon class="st46" points="191.3,168.7 191.3,198.3 194.8,198.3 198.4,198.3 198.4,168.7 194.8,168.7 					"/>
					<polygon class="st46" points="207.5,188.9 206.1,179.8 204.4,168.1 204.4,168.1 204.4,168.1 201.4,168.6 201.4,168.6 
						198.5,169 199.8,177.4 199.8,177.4 201.7,189.8 201.7,189.8 203,198.3 208.8,197.4 					"/>
					<polygon class="st46" points="183.9,155.1 183.9,155.1 181.8,155.3 181.8,155.4 181.8,155.4 181.9,157.3 181.9,157.4 
						182.4,161.9 177.4,161.9 172.4,161.9 172.4,163.2 172.4,165.3 172.4,168.7 172.4,176.3 172.4,181.5 172.4,189.1 172.4,194.4 
						172.4,196.4 172.4,198.3 177.4,198.3 182.4,198.3 182.4,196.4 182.4,194.4 182.4,189.1 182.4,181.5 182.4,176.3 182.4,168.7 
						182.4,165.3 182.4,163.2 182.4,162.2 186,198.5 188.2,198.3 188.2,198.3 190.3,198.1 186,154.9 					"/>
					<path class="st46" d="M353,186.2c-0.4,0.7-1.3,1.5-2.6,1.7c0-0.2,0-0.3,0-0.5v-2.9c0.7-0.3,1.9-0.9,2.6,0
						C353.4,184.9,353.4,185.5,353,186.2z M354.1,183.6c-1-1.3-2.6-1.1-3.6-0.7v-1.3H341h-9.7v5.8c0,4.6,3.8,8.1,8.4,8.1h-10.3
						c0.6,1.1,1.2,1.8,2.3,2.5h9.3h9.3c0.7-0.4,1.5-1.1,2.3-2.5h-10.3c3.9,0,7.2-2.7,8.1-6.3c1.6-0.1,3.1-1,3.9-2.4
						C354.8,185.6,354.7,184.5,354.1,183.6z"/>
				</g>
				<path class="st46" d="M307.8,132.4l-10.6-8.6h-15.1h-2.4l-2.7-2.4v-0.8h2.5l8.2-11.8v-6.4V87c0-1.8,0-3.5,0-4.7
					c-0.1-6.9-8.1-8.3-8.1-8.3s-4.8,0-10.1,0c-3.6,0-7.8,0-10.5,0c-7,0-7.7,8-7.7,8v4.8v15.6v6.4l8.8,11.8h1.2v0.8l-4.4,2.4h-0.5
					h-8.6h-5.6l-0.5,0.8l-8.4,11l-9.5,63.8h31.8H283h31.8L307.8,132.4z"/>
			</g>
			<g>
				<g>
					<polygon class="st47" points="191.7,168.4 191.7,198 195.2,198 198.8,198 198.8,168.4 195.2,168.4 					"/>
					<polygon class="st47" points="207.9,188.6 206.5,179.5 204.7,167.8 204.7,167.8 204.7,167.8 201.8,168.3 201.8,168.3 
						198.9,168.7 200.2,177.1 200.2,177.1 202,189.5 202,189.5 203.3,198 209.1,197.2 					"/>
					<polygon class="st47" points="184.3,154.8 184.3,154.8 182.1,155 182.1,155.1 182.1,155.1 182.3,157 182.3,157.1 182.8,161.6 
						177.8,161.6 172.8,161.6 172.8,162.9 172.8,165 172.8,168.4 172.8,176 172.8,181.2 172.8,188.8 172.8,194.1 172.8,196.1 
						172.8,198 177.8,198 182.8,198 182.8,196.1 182.8,194.1 182.8,188.8 182.8,181.2 182.8,176 182.8,168.4 182.8,165 182.8,162.9 
						182.8,161.9 186.4,198.2 188.5,198 188.5,198 190.7,197.8 186.4,154.6 					"/>
					<path class="st47" d="M353.4,185.9c-0.4,0.7-1.3,1.5-2.6,1.7c0-0.2,0-0.3,0-0.5v-2.9c0.7-0.3,1.9-0.9,2.6,0
						C353.7,184.6,353.7,185.2,353.4,185.9z M354.5,183.4c-1-1.3-2.6-1.1-3.6-0.7v-1.4h-9.5h-9.7v5.8c0,4.6,3.8,8.1,8.4,8.1h-10.3
						c0.6,1.1,1.2,1.8,2.3,2.5h9.3h9.3c0.7-0.4,1.5-1.1,2.3-2.5h-10.3c3.9,0,7.2-2.7,8.1-6.3c1.6-0.1,3.1-1,3.9-2.4
						C355.1,185.3,355.1,184.2,354.5,183.4z"/>
				</g>
				<path class="st47" d="M308.2,132.3l-10.6-8.9h-15.1h-2.4l-2.7-2.4v-0.8h2.5l8.2-11.8V102V86.8c0-1.8,0-3.5,0-4.7
					c-0.1-6.9-8.1-8.3-8.1-8.3s-4.8,0-10.1,0c-3.6,0-7.8,0-10.5,0c-7,0-7.7,7.9-7.7,7.9v4.8v15.6v6.4l8.8,11.8h1.2v0.8l-4.4,2.4
					h-0.5h-8.6h-5.6l-0.4,1l-8.5,10.8l-9.5,63.8H256h27.4h31.8L308.2,132.3z"/>
			</g>
			<g>
				<g>
					<polygon class="st48" points="192,168.1 192,197.7 195.6,197.7 199.2,197.7 199.2,168.1 195.6,168.1 					"/>
					<polygon class="st48" points="208.2,188.3 206.8,179.2 205.1,167.5 205.1,167.5 205.1,167.5 202.2,168 202.2,168 199.3,168.4 
						200.5,176.8 200.5,176.8 202.4,189.2 202.4,189.2 203.7,197.7 209.5,196.9 					"/>
					<polygon class="st48" points="184.6,154.5 184.6,154.5 182.5,154.7 182.5,154.8 182.5,154.8 182.7,156.7 182.7,156.8 
						183.1,161.3 178.1,161.3 173.1,161.3 173.1,162.6 173.1,164.7 173.1,168.1 173.1,175.7 173.1,180.9 173.1,188.5 173.1,193.8 
						173.1,195.9 173.1,197.7 178.1,197.7 183.1,197.7 183.1,195.9 183.1,193.8 183.1,188.5 183.1,180.9 183.1,175.7 183.1,168.1 
						183.1,164.7 183.1,162.6 183.1,161.6 186.7,197.9 188.9,197.7 188.9,197.7 191.1,197.5 186.8,154.3 					"/>
					<path class="st48" d="M353.8,185.6c-0.4,0.7-1.3,1.5-2.6,1.7c0-0.2,0-0.3,0-0.5v-2.9c0.7-0.3,1.9-0.9,2.6,0
						C354.1,184.3,354.1,184.9,353.8,185.6z M354.8,183.1c-1-1.3-2.6-1.1-3.6-0.7V181h-9.5H332v5.8c0,4.6,3.8,8.1,8.4,8.1H330
						c0.6,1.1,1.2,1.8,2.3,2.5h9.3h9.3c0.7-0.4,1.5-1.1,2.3-2.5H343c3.9,0,7.2-2.7,8.1-6.3c1.6-0.1,3.1-1,3.9-2.4
						C355.5,185,355.5,183.9,354.8,183.1z"/>
				</g>
				<path class="st48" d="M308.6,132.3l-10.6-9.2h-15.1h-2.4l-2.7-2.4v-0.8h2.5l8.2-11.8v-6.4v-15c0-1.8,0-3.6,0-4.8
					c-0.1-7-8.1-8.4-8.1-8.4s-4.8,0-10.1,0c-3.6,0-7.8,0-10.5,0c-7,0-7.7,7.8-7.7,7.8v4.8v15.6v6.4l8.8,11.8h1.2v0.8l-4.4,2.4h-0.5
					h-8.6H243l-0.2,1.2l-8.7,10.6l-9.5,63.8h31.8h27.4h31.8L308.6,132.3z"/>
			</g>
			<g>
				<g>
					<polygon class="st49" points="192.4,167.8 192.4,197.4 195.9,197.4 199.5,197.4 199.5,167.8 195.9,167.8 					"/>
					<polygon class="st49" points="208.6,188 207.2,178.9 205.4,167.3 205.4,167.3 205.4,167.3 202.5,167.7 202.5,167.7 
						199.6,168.1 200.9,176.5 200.9,176.5 202.8,188.9 202.8,188.9 204.1,197.4 209.9,196.6 					"/>
					<polygon class="st49" points="185,154.2 185,154.2 182.8,154.4 182.9,154.5 182.8,154.5 183,156.4 183,156.5 183.5,161 
						178.5,161 173.5,161 173.5,162.3 173.5,164.4 173.5,167.8 173.5,175.4 173.5,180.6 173.5,188.2 173.5,193.5 173.5,195.6 
						173.5,197.4 178.5,197.4 183.5,197.4 183.5,195.6 183.5,193.5 183.5,188.2 183.5,180.6 183.5,175.4 183.5,167.8 183.5,164.4 
						183.5,162.3 183.5,161.3 187.1,197.6 189.3,197.4 189.3,197.4 191.4,197.2 187.1,154 					"/>
					<path class="st49" d="M354.1,185.3c-0.4,0.7-1.3,1.5-2.6,1.7c0-0.2,0-0.3,0-0.5v-2.9c0.7-0.3,1.9-0.9,2.6,0
						C354.5,184,354.5,184.6,354.1,185.3z M355.2,182.8c-1-1.3-2.6-1.1-3.6-0.7v-1.4H342h-9.7v5.8c0,4.6,3.8,8.1,8.4,8.1h-10.3
						c0.6,1.1,1.2,1.8,2.3,2.5h9.3h9.3c0.7-0.4,1.5-1.1,2.3-2.5h-10.3c3.9,0,7.2-2.7,8.1-6.3c1.6-0.1,3.1-1,3.9-2.4
						C355.9,184.7,355.8,183.6,355.2,182.8z"/>
				</g>
				<path class="st49" d="M309,132.3l-10.7-9.4h-15.1h-2.4l-2.7-2.4v-0.9h2.5l8.2-11.8v-6.4V86.5c0-1.8,0-3.6,0-4.8
					c-0.1-7-8.1-8.4-8.1-8.4s-4.8,0-10.1,0c-3.6,0-7.8,0-10.5,0c-7,0-7.7,7.7-7.7,7.7v4.8v15.6v6.4l8.8,11.8h1.2v0.8l-4.4,2.4h-0.5
					h-8.6h-5.6l-0.1,1.4l-8.8,10.4l-9.5,63.8h31.8H284h31.8L309,132.3z"/>
			</g>
			<g>
				<g>
					<polygon class="st50" points="192.8,167.5 192.8,197.1 196.3,197.1 199.9,197.1 199.9,167.5 196.3,167.5 					"/>
					<polygon class="st50" points="209,187.7 207.6,178.6 205.8,167 205.8,167 205.8,167 202.9,167.4 202.9,167.4 200,167.8 
						201.3,176.2 201.3,176.2 203.1,188.6 203.1,188.6 204.4,197.1 210.2,196.3 208.9,187.7 					"/>
					<polygon class="st50" points="185.4,153.9 185.4,153.9 183.2,154.2 183.2,154.2 183.2,154.2 183.4,156.1 183.4,156.2 
						183.8,160.7 178.8,160.7 173.9,160.7 173.9,162 173.9,164.1 173.9,167.5 173.9,175.1 173.9,180.3 173.9,187.9 173.9,193.2 
						173.9,195.3 173.9,197.1 178.8,197.1 183.8,197.1 183.8,195.3 183.8,193.2 183.8,187.9 183.8,180.3 183.8,175.1 183.8,167.5 
						183.8,164.1 183.8,162 183.8,161 187.5,197.3 189.6,197.1 189.6,197.1 191.8,196.9 187.5,153.8 					"/>
					<path class="st50" d="M354.5,185c-0.4,0.7-1.3,1.5-2.6,1.7c0-0.2,0-0.3,0-0.5v-2.9c0.7-0.3,1.9-0.9,2.6,0
						C354.8,183.7,354.8,184.3,354.5,185z M355.6,182.5c-1-1.3-2.6-1.1-3.6-0.7v-1.4h-9.5h-9.7v5.8c0,4.6,3.8,8.1,8.4,8.1h-10.3
						c0.6,1.1,1.2,1.8,2.3,2.5h9.3h9.3c0.7-0.4,1.5-1.1,2.3-2.5h-10.3c3.9,0,7.2-2.7,8.1-6.3c1.6-0.1,3.1-1,3.9-2.4
						C356.2,184.4,356.2,183.3,355.6,182.5z"/>
				</g>
				<path class="st50" d="M309.4,132.2l-10.7-9.7h-15.1h-2.4l-2.7-2.4v-0.8h2.5l8.2-11.8v-6.4V86.4c0-1.8,0-3.6,0-4.9
					c-0.1-7-8.1-8.4-8.1-8.4s-4.8,0-10.1,0c-3.6,0-7.8,0-10.5,0c-7,0-7.7,7.6-7.7,7.6v4.8v15.6v6.4l8.8,11.8h1.2v0.8l-4.4,2.4h-0.5
					h-8.6h-5.6v1.6l-8.9,10.2l-9.5,63.8H257h27.4h31.8L309.4,132.2z"/>
			</g>
			<g>
				<g>
					<polygon class="st51" points="193.1,167.2 193.1,196.9 196.7,196.9 200.3,196.9 200.3,167.2 196.7,167.2 					"/>
					<polygon class="st51" points="209.3,187.4 207.9,178.3 206.2,166.7 206.2,166.7 206.2,166.7 203.3,167.1 203.3,167.1 
						200.4,167.5 201.6,175.9 201.6,175.9 203.5,188.3 203.5,188.3 204.8,196.9 210.6,196 					"/>
					<polygon class="st51" points="185.7,153.6 185.7,153.6 183.6,153.9 183.6,153.9 183.6,153.9 183.8,155.8 183.8,155.9 
						184.2,160.5 179.2,160.5 174.2,160.5 174.2,161.7 174.2,163.8 174.2,167.2 174.2,174.8 174.2,180 174.2,187.6 174.2,192.9 
						174.2,195 174.2,196.9 179.2,196.9 184.2,196.9 184.2,195 184.2,192.9 184.2,187.6 184.2,180 184.2,174.8 184.2,167.2 
						184.2,163.8 184.2,161.7 184.2,160.7 187.8,197 190,196.9 190,196.9 192.1,196.6 187.9,153.5 					"/>
					<path class="st51" d="M354.9,184.7c-0.4,0.7-1.3,1.5-2.6,1.7c0-0.2,0-0.3,0-0.5V183c0.7-0.3,1.9-0.9,2.6,0
						C355.2,183.4,355.2,184,354.9,184.7z M355.9,182.2c-1-1.3-2.6-1.1-3.6-0.7v-1.4h-9.5H333v5.8c0,4.6,3.8,8.1,8.4,8.1h-10.3
						c0.6,1.1,1.2,1.8,2.3,2.5h9.3h9.3c0.7-0.4,1.5-1.1,2.3-2.5H344c3.9,0,7.2-2.7,8.1-6.3c1.6-0.1,3.1-1,3.9-2.4
						C356.6,184.1,356.6,183,355.9,182.2z"/>
				</g>
				<path class="st51" d="M309.8,132.2l-10.7-9.9H284h-2.4l-2.7-2.4v-0.8h2.5l8.2-11.8v-6.4V86.2c0-1.8,0-3.7,0-4.9
					c-0.1-7-8.1-8.4-8.1-8.4s-4.8,0-10.1,0c-3.6,0-7.8,0-10.5,0c-7,0-7.7,7.5-7.7,7.5v4.8v15.6v6.4L262,119h1.2v0.8l-4.4,2.4h-0.5
					h-8.6H244l0.1,1.8l-9,10l-9.5,63.8h31.8h27.4h31.8L309.8,132.2z"/>
			</g>
			<g>
				<g>
					<polygon class="st52" points="193.5,166.9 193.5,196.6 197,196.6 200.6,196.6 200.6,166.9 197,166.9 					"/>
					<polygon class="st52" points="209.7,187.1 208.3,178 206.5,166.4 206.5,166.4 206.5,166.4 203.6,166.8 203.6,166.8 
						200.7,167.2 202,175.6 202,175.6 203.9,188 203.9,188 205.2,196.6 211,195.7 					"/>
					<polygon class="st52" points="186.1,153.4 186.1,153.4 183.9,153.6 184,153.7 183.9,153.7 184.1,155.5 184.1,155.6 
						184.6,160.2 179.6,160.2 174.6,160.2 174.6,161.4 174.6,163.5 174.6,166.9 174.6,174.5 174.6,179.7 174.6,187.3 174.6,192.6 
						174.6,194.7 174.6,196.6 179.6,196.6 184.6,196.6 184.6,194.7 184.6,192.6 184.6,187.3 184.6,179.7 184.6,174.5 184.6,166.9 
						184.6,163.5 184.6,161.4 184.6,160.4 188.2,196.7 190.4,196.6 190.4,196.6 192.5,196.3 188.2,153.2 					"/>
					<path class="st52" d="M355.2,184.4c-0.4,0.7-1.3,1.5-2.6,1.7c0-0.2,0-0.3,0-0.5v-2.9c0.7-0.3,1.9-0.9,2.6,0
						C355.5,183.1,355.6,183.7,355.2,184.4z M356.3,181.9c-1-1.3-2.6-1.1-3.6-0.7v-1.4h-9.5h-9.7v5.8c0,4.6,3.8,8.1,8.4,8.1h-10.3
						c0.6,1.1,1.2,1.8,2.3,2.5h9.3h9.3c0.7-0.4,1.5-1.1,2.3-2.5h-10.3c3.9,0,7.2-2.7,8.1-6.3c1.6-0.1,3.1-1,3.9-2.4
						C357,183.8,356.9,182.7,356.3,181.9z"/>
				</g>
				<path class="st52" d="M310.2,132.2L299.5,122h-15.1H282l-2.7-2.4v-0.8h2.5L290,107v-6.4V86.1c0-1.8,0-3.7,0-4.9
					c-0.2-7-8.1-8.5-8.1-8.5s-4.8,0-10.1,0c-3.6,0-7.8,0-10.5,0c-7,0-7.7,7.4-7.7,7.4v4.8v15.6v6.4l8.8,11.8h1.2v0.8l-4.4,2.4h-0.5
					H250h-5.6l0.2,2l-9.1,9.8l-9.5,63.9h31.8h27.4H317L310.2,132.2z"/>
			</g>
			<g>
				<g>
					<polygon class="st53" points="193.9,166.6 193.9,196.3 197.4,196.3 201,196.3 201,166.6 197.4,166.6 					"/>
					<polygon class="st53" points="210,186.8 208.7,177.7 206.9,166.1 206.9,166.1 206.9,166.1 204,166.5 204,166.5 201.1,167 
						202.4,175.3 202.4,175.3 204.2,187.7 204.2,187.7 205.5,196.3 211.3,195.4 					"/>
					<polygon class="st53" points="186.4,153.1 186.4,153.1 184.3,153.3 184.3,153.4 184.3,153.4 184.5,155.3 184.5,155.3 
						184.9,159.9 179.9,159.9 175,159.9 175,161.1 175,163.2 175,166.6 175,174.2 175,179.4 175,187 175,192.3 175,194.4 175,196.3 
						179.9,196.3 184.9,196.3 184.9,194.4 184.9,192.3 184.9,187 184.9,179.4 184.9,174.2 184.9,166.6 184.9,163.2 184.9,161.1 
						184.9,160.1 188.6,196.4 190.7,196.3 190.7,196.3 192.9,196 188.6,152.9 					"/>
					<path class="st53" d="M355.6,184.1c-0.4,0.7-1.3,1.5-2.6,1.7c0-0.2,0-0.3,0-0.5v-2.9c0.7-0.3,1.9-0.9,2.6,0
						C355.9,182.8,355.9,183.5,355.6,184.1z M356.6,181.6c-1-1.3-2.6-1.1-3.6-0.7v-1.4h-9.5h-9.7v5.8c0,4.6,3.8,8.1,8.4,8.1h-10.3
						c0.6,1.1,1.2,1.8,2.3,2.5h9.3h9.3c0.7-0.4,1.5-1.1,2.3-2.5h-10.3c3.9,0,7.2-2.7,8.1-6.3c1.6-0.1,3.1-1,3.9-2.4
						C357.3,183.6,357.3,182.4,356.6,181.6z"/>
				</g>
				<path class="st53" d="M310.6,132.1l-10.8-10.5h-15.1h-2.4l-2.7-2.4v-0.8h2.5l8.2-11.8v-6.4V86c0-1.8,0-3.8,0-5
					c-0.2-7.1-8.1-8.5-8.1-8.5s-4.8,0-10.1,0c-3.6,0-7.8,0-10.5,0c-7,0-7.7,7.3-7.7,7.3v4.8v15.6v6.4l8.8,11.8h1.2v0.8l-4.4,2.4H259
					h-8.6h-5.6l0.4,2.2l-9.3,9.6l-9.5,63.8h31.8h27.4h31.8L310.6,132.1z"/>
			</g>
			<g>
				<g>
					<polygon class="st54" points="194.2,166.3 194.2,196 197.8,196 201.4,196 201.4,166.3 197.8,166.3 					"/>
					<polygon class="st54" points="210.4,186.5 209,177.4 207.3,165.8 207.3,165.8 207.3,165.8 204.4,166.2 204.4,166.2 
						201.5,166.7 202.7,175 202.7,175 204.6,187.4 204.6,187.4 205.9,196 211.7,195.1 					"/>
					<polygon class="st54" points="186.8,152.8 186.8,152.8 184.7,153 184.7,153.1 184.7,153.1 184.9,155 184.9,155 185.3,159.6 
						180.3,159.6 175.3,159.6 175.3,160.8 175.3,162.9 175.3,166.3 175.3,173.9 175.3,179.1 175.3,186.7 175.3,192 175.3,194.1 
						175.3,196 180.3,196 185.3,196 185.3,194.1 185.3,192 185.3,186.7 185.3,179.1 185.3,173.9 185.3,166.3 185.3,162.9 
						185.3,160.8 185.3,159.8 188.9,196.1 191.1,196 191.1,196 193.2,195.7 189,152.6 					"/>
					<path class="st54" d="M356,183.8c-0.4,0.7-1.3,1.5-2.6,1.7c0-0.2,0-0.3,0-0.5v-2.9c0.7-0.3,1.9-0.9,2.6,0
						C356.3,182.5,356.3,183.2,356,183.8z M357,181.3c-1-1.3-2.6-1.1-3.6-0.7v-1.4h-9.5h-9.7v5.8c0,4.6,3.8,8.1,8.4,8.1h-10.3
						c0.6,1.1,1.2,1.8,2.3,2.5h9.3h9.3c0.7-0.4,1.5-1.1,2.3-2.5h-10.3c3.9,0,7.2-2.7,8.1-6.3c1.6-0.1,3.1-1,3.9-2.4
						C357.7,183.3,357.7,182.1,357,181.3z"/>
				</g>
				<path class="st54" d="M311,132.1l-10.8-10.7H285h-2.4l-2.7-2.4v-0.8h2.5l8.2-11.8V100V86c0-1.8,0-3.8,0-5
					c-0.2-7.1-8.1-8.5-8.1-8.5s-4.8,0-10.1,0c-3.6,0-7.8,0-10.5,0c-7,0-7.7,7.2-7.7,7.2v4.8v15.6v6.4l8.8,11.8h1.2v0.8l-4.4,2.4
					h-0.5h-8.6h-5.6l0.5,2.4l-9.4,9.4l-9.5,63.8h31.8h27.4h31.8L311,132.1z"/>
			</g>
			<g>
				<g>
					<polygon class="st55" points="194.6,166.1 194.6,195.7 198.1,195.7 201.7,195.7 201.7,166.1 198.1,166.1 					"/>
					<polygon class="st55" points="210.8,186.3 209.4,177.1 207.6,165.5 207.6,165.5 207.6,165.5 204.7,165.9 204.7,165.9 
						201.8,166.4 203.1,174.7 203.1,174.7 205,187.1 205,187.1 206.3,195.7 212.1,194.8 					"/>
					<polygon class="st55" points="187.2,152.5 187.2,152.5 185,152.7 185,152.8 185,152.8 185.2,154.7 185.2,154.8 185.7,159.3 
						180.7,159.3 175.7,159.3 175.7,160.5 175.7,162.6 175.7,166 175.7,173.6 175.7,178.8 175.7,186.4 175.7,191.7 175.7,193.8 
						175.7,195.7 180.7,195.7 185.7,195.7 185.7,193.8 185.7,191.7 185.7,186.4 185.7,178.8 185.7,173.6 185.7,166 185.7,162.6 
						185.7,160.5 185.7,159.5 189.3,195.8 191.5,195.7 191.5,195.7 193.6,195.4 189.3,152.3 					"/>
					<path class="st55" d="M356.3,183.5c-0.4,0.7-1.3,1.5-2.6,1.7c0-0.2,0-0.3,0-0.5v-2.9c0.7-0.3,1.9-0.9,2.6,0
						C356.6,182.2,356.7,182.9,356.3,183.5z M357.4,181c-1-1.3-2.6-1.1-3.6-0.7v-1.4h-9.5h-9.7v5.8c0,4.6,3.8,8.1,8.4,8.1h-10.3
						c0.6,1.1,1.2,1.8,2.3,2.5h9.3h9.3c0.7-0.4,1.5-1.1,2.3-2.5h-10.3c3.9,0,7.2-2.7,8.1-6.3c1.6-0.1,3.1-1,3.9-2.4
						C358.1,183,358,181.8,357.4,181z"/>
				</g>
				<path class="st55" d="M311.4,132.1l-10.8-11h-15.1H283l-2.7-2.4v-0.8h2.5l8.2-11.8v-6.5V85.7c0-1.8,0.1-3.8,0-5.1
					c-0.2-7.1-8.1-8.6-8.1-8.6s-4.8,0-10.1,0c-3.6,0-7.8,0-10.5,0c-7,0-7.7,7.1-7.7,7.1v4.8v15.7v6.4l8.8,11.8h1.2v0.8l-4.4,2.4
					h-0.5h-8.6h-5.6l0.6,2.6l-9.5,9.2l-9.5,63.8h31.8h27.4H318L311.4,132.1z"/>
			</g>
			<g>
				<g>
					<polygon class="st56" points="195,165.8 195,195.4 198.5,195.4 202.1,195.4 202.1,165.8 198.5,165.8 					"/>
					<polygon class="st56" points="211.1,186 209.8,176.8 208,165.2 208,165.2 208,165.2 205.1,165.6 205.1,165.6 202.2,166.1 
						203.5,174.5 203.5,174.5 205.3,186.8 205.3,186.8 206.6,195.4 212.4,194.5 					"/>
					<polygon class="st56" points="187.5,152.2 187.5,152.2 185.4,152.4 185.4,152.5 185.4,152.5 185.6,154.4 185.6,154.5 186,159 
						181,159 176,159 176,160.2 176,162.3 176,165.7 176,173.3 176,178.6 176,186.2 176,191.4 176,193.5 176,195.4 181,195.4 
						186,195.4 186,193.5 186,191.4 186,186.2 186,178.6 186,173.3 186,165.7 186,162.3 186,160.2 186,159.2 189.7,195.5 
						191.8,195.4 191.8,195.4 194,195.1 189.7,152 					"/>
					<path class="st56" d="M356.7,183.2c-0.4,0.7-1.3,1.5-2.6,1.7c0-0.2,0-0.3,0-0.5v-2.9c0.7-0.3,1.9-0.9,2.6,0
						C357,181.9,357,182.6,356.7,183.2z M357.7,180.7c-1-1.3-2.6-1.1-3.6-0.7v-1.4h-9.5h-9.7v5.8c0,4.6,3.8,8.1,8.4,8.1H333
						c0.6,1.1,1.2,1.8,2.3,2.5h9.3h9.3c0.7-0.4,1.5-1.1,2.3-2.5h-10.3c3.9,0,7.2-2.7,8.1-6.3c1.6-0.1,3.1-1,3.9-2.4
						C358.4,182.7,358.4,181.5,357.7,180.7z"/>
				</g>
				<path class="st56" d="M311.8,132.1L301,120.8h-15.1h-2.4l-2.7-2.4v-0.8h2.5l8.2-11.8v-6.4V85.6c0-1.8,0.1-3.9,0-5.1
					c-0.2-7.1-8.1-8.6-8.1-8.6s-4.8,0-10.1,0c-3.6,0-7.8,0-10.5,0c-7,0-7.7,7-7.7,7v4.8v15.6v6.4l8.8,11.8h1.2v0.8l-4.4,2.4H260
					h-8.6h-5.6l0.7,2.8l-9.6,9l-9.5,63.8h31.8h27.4h31.8L311.8,132.1z"/>
			</g>
			<g>
				<g>
					<polygon class="st57" points="195.3,165.5 195.3,195.1 198.9,195.1 202.5,195.1 202.5,165.5 198.9,165.5 					"/>
					<polygon class="st57" points="211.5,185.7 210.1,176.5 208.4,164.9 208.4,164.9 208.4,164.9 205.5,165.3 205.5,165.3 
						202.6,165.8 203.8,174.2 203.8,174.2 205.7,186.5 205.7,186.5 207,195.1 212.8,194.2 					"/>
					<polygon class="st57" points="187.9,151.9 187.9,151.9 185.8,152.1 185.8,152.2 185.8,152.2 186,154.1 186,154.2 186.4,158.7 
						181.4,158.7 176.4,158.7 176.4,159.9 176.4,162 176.4,165.4 176.4,173 176.4,178.3 176.4,185.9 176.4,191.1 176.4,193.2 
						176.4,195.1 181.4,195.1 186.4,195.1 186.4,193.2 186.4,191.1 186.4,185.9 186.4,178.3 186.4,173 186.4,165.4 186.4,162 
						186.4,159.9 186.4,158.9 190,195.2 192.2,195.1 192.2,195.1 194.3,194.8 190,151.7 					"/>
					<path class="st57" d="M357.1,182.9c-0.4,0.7-1.3,1.5-2.6,1.7c0-0.2,0-0.3,0-0.5v-2.9c0.7-0.3,1.9-0.9,2.6,0
						C357.4,181.6,357.4,182.3,357.1,182.9z M358.1,180.4c-1-1.3-2.6-1.1-3.6-0.7v-1.4H345h-9.7v5.8c0,4.6,3.8,8.1,8.4,8.1h-10.3
						c0.6,1.1,1.2,1.8,2.3,2.5h9.3h9.3c0.7-0.4,1.5-1.1,2.3-2.5h-10.3c3.9,0,7.2-2.7,8.1-6.3c1.6-0.1,3.1-1,3.9-2.4
						C358.8,182.4,358.7,181.2,358.1,180.4z"/>
				</g>
				<path class="st57" d="M312.2,132l-10.9-11.5h-15.1h-2.4l-2.7-2.4v-0.8h2.5l8.2-11.8v-6.4V85.5c0-1.8,0.1-3.9,0-5.1
					c-0.2-7.2-8.1-8.6-8.1-8.6s-4.8,0-10.1,0c-3.6,0-7.8,0-10.5,0c-7,0-7.7,6.9-7.7,6.9v4.8v15.6v6.4l8.8,11.8h1.2v0.8l-4.4,2.4
					h-0.5h-8.6h-5.6l0.8,3l-9.7,8.8l-9.5,63.8h31.8H287h31.8L312.2,132z"/>
			</g>
			<g>
				<g>
					<polygon class="st58" points="195.7,165.2 195.7,194.8 199.2,194.8 202.8,194.8 202.8,165.2 199.2,165.2 					"/>
					<polygon class="st58" points="211.9,185.4 210.5,176.3 208.7,164.6 208.7,164.6 208.7,164.6 205.8,165 205.8,165 202.9,165.5 
						204.2,173.9 204.2,173.9 206.1,186.2 206.1,186.2 207.4,194.8 213.2,193.9 					"/>
					<polygon class="st58" points="188.3,151.6 188.3,151.6 186.1,151.8 186.1,151.9 186.1,151.9 186.3,153.8 186.3,153.9 
						186.8,158.4 181.8,158.4 176.8,158.4 176.8,159.6 176.8,161.7 176.8,165.2 176.8,172.8 176.8,178 176.8,185.6 176.8,190.8 
						176.8,192.9 176.8,194.8 181.8,194.8 186.8,194.8 186.8,192.9 186.8,190.8 186.8,185.6 186.8,178 186.8,172.8 186.8,165.2 
						186.8,161.7 186.8,159.6 186.8,158.6 190.4,195 192.5,194.8 192.6,194.8 194.7,194.5 190.4,151.4 					"/>
					<path class="st58" d="M357.4,182.6c-0.4,0.7-1.3,1.5-2.6,1.7c0-0.2,0-0.3,0-0.5v-2.9c0.7-0.3,1.9-0.9,2.6,0
						C357.7,181.3,357.8,182,357.4,182.6z M358.5,180.1c-1-1.3-2.6-1.1-3.6-0.7V178h-9.5h-9.7v5.8c0,4.6,3.8,8.1,8.4,8.1h-10.3
						c0.6,1.1,1.2,1.8,2.3,2.5h9.3h9.3c0.7-0.4,1.5-1.1,2.3-2.5h-10.3c3.9,0,7.2-2.7,8.1-6.3c1.6-0.1,3.1-1,3.9-2.4
						C359.2,182.1,359.1,180.9,358.5,180.1z"/>
				</g>
				<path class="st58" d="M312.5,132l-10.9-11.8h-15.1h-2.4l-2.7-2.4V117h2.5l8.2-11.8v-6.4V85.4c0-1.8,0.1-3.9,0-5.2
					c-0.3-7.2-8.1-8.6-8.1-8.6s-4.8,0-10.1,0c-3.6,0-7.8,0-10.5,0c-7,0-7.7,6.8-7.7,6.8v4.8v15.6v6.4l8.8,11.8h1.2v0.8l-4.4,2.4
					h-0.5h-8.6h-5.6l1,3.2l-9.9,8.6l-9.5,63.8H260h27.4h31.8L312.5,132z"/>
			</g>
			<g>
				<g>
					<polygon class="st59" points="196.1,164.9 196.1,194.5 199.6,194.5 203.2,194.5 203.2,164.9 199.6,164.9 					"/>
					<polygon class="st59" points="212.2,185.1 210.9,176 209.1,164.3 209.1,164.3 209.1,164.3 206.2,164.7 206.2,164.7 
						203.3,165.2 204.6,173.6 204.6,173.6 206.4,186 206.4,186 207.7,194.5 213.5,193.6 					"/>
					<polygon class="st59" points="188.6,151.3 188.6,151.3 186.5,151.5 186.5,151.6 186.5,151.6 186.7,153.5 186.7,153.6 
						187.1,158.1 182.1,158.1 177.1,158.1 177.1,159.3 177.1,161.4 177.1,164.9 177.1,172.5 177.1,177.7 177.1,185.3 177.1,190.5 
						177.1,192.6 177.1,194.5 182.1,194.5 187.1,194.5 187.1,192.6 187.1,190.5 187.1,185.3 187.1,177.7 187.1,172.5 187.1,164.9 
						187.1,161.4 187.1,159.3 187.1,158.3 190.8,194.7 192.9,194.5 192.9,194.5 195.1,194.2 190.8,151.1 					"/>
					<path class="st59" d="M357.8,182.3c-0.4,0.7-1.3,1.5-2.6,1.7c0-0.2,0-0.3,0-0.5v-2.9c0.7-0.3,1.9-0.9,2.6,0
						C358.1,181,358.1,181.7,357.8,182.3z M358.8,179.8c-1-1.3-2.6-1.1-3.6-0.7v-1.4h-9.5H336v5.8c0,4.6,3.8,8.1,8.4,8.1h-10.3
						c0.6,1.1,1.2,1.8,2.3,2.5h9.3h9.3c0.7-0.4,1.5-1.1,2.3-2.5H347c3.9,0,7.2-2.7,8.1-6.3c1.6-0.1,3.1-1,3.9-2.4
						C359.5,181.8,359.5,180.7,358.8,179.8z"/>
				</g>
				<path class="st59" d="M312.9,132L302,120h-15.1h-2.4l-2.7-2.4v-0.8h2.5l8.2-11.8v-6.4V85.3c0-1.8,0.1-4,0-5.2
					c-0.3-7.2-8.1-8.7-8.1-8.7s-4.8,0-10.1,0c-3.6,0-7.8,0-10.5,0c-7,0-7.7,6.6-7.7,6.6v4.8v15.6v6.4l8.8,11.8h1.2v0.8l-4.4,2.4
					h-0.5h-8.6H247l1.1,3.4l-10,8.4l-9.5,63.8h31.8h27.4h31.8L312.9,132z"/>
			</g>
			<g>
				<g>
					<polygon class="st60" points="196.4,164.6 196.4,194.2 199.9,194.2 203.6,194.2 203.6,164.6 199.9,164.6 					"/>
					<polygon class="st60" points="212.6,184.8 211.2,175.7 209.5,164 209.5,164 209.5,164 206.6,164.5 206.6,164.5 203.7,164.9 
						204.9,173.3 204.9,173.3 206.8,185.7 206.8,185.7 208.1,194.2 213.9,193.3 					"/>
					<polygon class="st60" points="189,151 189,151 186.9,151.2 186.9,151.3 186.9,151.3 187.1,153.2 187.1,153.3 187.5,157.8 
						182.5,157.8 177.5,157.8 177.5,159 177.5,161.1 177.5,164.6 177.5,172.2 177.5,177.4 177.5,185 177.5,190.2 177.5,192.3 
						177.5,194.2 182.5,194.2 187.5,194.2 187.5,192.3 187.5,190.2 187.5,185 187.5,177.4 187.5,172.2 187.5,164.6 187.5,161.1 
						187.5,159 187.5,158 191.1,194.4 193.3,194.2 193.3,194.2 195.4,193.9 191.1,150.8 					"/>
					<path class="st60" d="M358.1,182c-0.4,0.7-1.3,1.5-2.6,1.7c0-0.2,0-0.3,0-0.5v-2.9c0.7-0.3,1.9-0.9,2.6,0
						C358.5,180.7,358.5,181.4,358.1,182z M359.2,179.5c-1-1.3-2.6-1.1-3.6-0.7v-1.4H346h-9.7v5.8c0,4.6,3.8,8.1,8.4,8.1h-10.3
						c0.6,1.1,1.2,1.8,2.3,2.5h9.3h9.3c0.7-0.4,1.5-1.1,2.3-2.5h-10.3c3.9,0,7.2-2.7,8.1-6.3c1.6-0.1,3.1-1,3.9-2.4
						C359.9,181.5,359.8,180.4,359.2,179.5z"/>
				</g>
				<path class="st60" d="M313.3,131.9l-11-12.3h-15.1h-2.4l-2.7-2.4v-0.8h2.5l8.2-11.8v-6.4v-13c0-1.8,0.1-4,0-5.2
					c-0.3-7.2-8.1-8.7-8.1-8.7s-4.8,0-10.1,0c-3.6,0-7.8,0-10.5,0c-7,0-7.7,6.5-7.7,6.5v4.8v15.6v6.4l8.8,11.8h1.2v0.8l-4.4,2.4
					h-0.5h-8.6h-5.6l1.2,3.6l-10.1,8.2l-9.5,63.8h31.8h27.4h31.8L313.3,131.9z"/>
			</g>
			<g>
				<g>
					<polygon class="st61" points="196.8,164.3 196.8,193.9 200.3,193.9 203.9,193.9 203.9,164.3 200.3,164.3 					"/>
					<polygon class="st61" points="213,184.5 211.6,175.4 209.8,163.7 209.8,163.7 209.8,163.7 206.9,164.2 206.9,164.2 204,164.6 
						205.3,173 205.3,173 207.2,185.4 207.2,185.4 208.5,193.9 214.3,193 					"/>
					<polygon class="st61" points="189.4,150.7 189.4,150.7 187.2,150.9 187.2,151 187.2,151 187.4,152.9 187.4,153 187.9,157.5 
						182.9,157.5 177.9,157.5 177.9,158.7 177.9,160.8 177.9,164.3 177.9,171.9 177.9,177.1 177.9,184.7 177.9,189.9 177.9,192 
						177.9,193.9 182.9,193.9 187.9,193.9 187.9,192 187.9,189.9 187.9,184.7 187.9,177.1 187.9,171.9 187.9,164.3 187.9,160.8 
						187.9,158.7 187.9,157.7 191.5,194.1 193.6,193.9 193.6,193.9 195.8,193.6 191.5,150.5 					"/>
					<path class="st61" d="M358.5,181.8c-0.4,0.7-1.3,1.5-2.6,1.7c0-0.2,0-0.3,0-0.5v-2.9c0.7-0.3,1.9-0.9,2.6,0
						C358.8,180.4,358.9,181.1,358.5,181.8z M359.6,179.2c-1-1.3-2.6-1.1-3.6-0.7v-1.4h-9.5h-9.7v5.8c0,4.6,3.8,8.1,8.4,8.1h-10.3
						c0.6,1.1,1.2,1.8,2.3,2.5h9.3h9.3c0.7-0.4,1.5-1.1,2.3-2.5h-10.3c3.9,0,7.2-2.7,8.1-6.3c1.6-0.1,3.1-1,3.9-2.4
						C360.3,181.2,360.2,180.1,359.6,179.2z"/>
				</g>
				<path class="st61" d="M313.7,131.9l-11-12.6h-15.1h-2.4l-2.7-2.4v-0.8h2.5l8.2-11.8v-6.4V85c0-1.8,0.1-4.1,0-5.3
					c-0.3-7.2-8.1-8.7-8.1-8.7s-4.8,0-10.1,0c-3.6,0-7.8,0-10.5,0c-7,0-7.7,6.4-7.7,6.4v4.8v15.6v6.4l8.8,11.8h1.2v0.8l-4.4,2.4
					h-0.5h-8.6h-5.6l1.3,3.8l-10.2,8l-9.5,63.8H261h27.4h31.8L313.7,131.9z"/>
			</g>
			<g>
				<g>
					<polygon class="st62" points="197.2,164 197.2,193.6 200.7,193.6 204.3,193.6 204.3,164 200.7,164 					"/>
					<polygon class="st62" points="213.3,184.2 212,175.1 210.2,163.4 210.2,163.4 210.2,163.4 207.3,163.9 207.3,163.9 
						204.4,164.3 205.7,172.7 205.7,172.7 207.5,185.1 207.5,185.1 208.8,193.6 214.6,192.7 					"/>
					<polygon class="st62" points="189.7,150.4 189.7,150.4 187.6,150.6 187.6,150.7 187.6,150.7 187.8,152.6 187.8,152.7 
						188.2,157.2 183.2,157.2 178.2,157.2 178.2,158.5 178.2,160.5 178.2,164 178.2,171.6 178.2,176.8 178.2,184.4 178.2,189.6 
						178.2,191.7 178.2,193.6 183.2,193.6 188.2,193.6 188.2,191.7 188.2,189.6 188.2,184.4 188.2,176.8 188.2,171.6 188.2,164 
						188.2,160.5 188.2,158.5 188.2,157.4 191.9,193.8 194,193.6 194,193.6 196.2,193.3 191.9,150.2 					"/>
					<path class="st62" d="M358.9,181.5c-0.4,0.7-1.3,1.5-2.6,1.7c0-0.2,0-0.3,0-0.5v-2.9c0.7-0.3,1.9-0.9,2.6,0
						C359.2,180.2,359.2,180.8,358.9,181.5z M359.9,178.9c-1-1.3-2.6-1.1-3.6-0.7v-1.4h-9.5H337v5.8c0,4.6,3.8,8.1,8.4,8.1h-10.3
						c0.6,1.1,1.2,1.8,2.3,2.5h9.3h9.3c0.7-0.4,1.5-1.1,2.3-2.5H348c3.9,0,7.2-2.7,8.1-6.3c1.6-0.1,3.1-1,3.9-2.4
						C360.6,180.9,360.6,179.8,359.9,178.9z"/>
				</g>
				<path class="st62" d="M314.1,131.9l-11-12.8H288h-2.4l-2.7-2.4v-0.8h2.5l8.2-11.8v-6.4V84.9c0-1.8,0.1-4.1,0-5.3
					c-0.3-7.3-8.1-8.8-8.1-8.8s-4.8,0-10.1,0c-3.6,0-7.8,0-10.5,0c-7,0-7.7,6.3-7.7,6.3v4.8v15.6v6.4l8.8,11.8h1.2v0.8l-4.4,2.4
					h-0.5h-8.6H248l1.4,4l-10.4,7.8l-9.5,63.8h31.8h27.4h31.8L314.1,131.9z"/>
			</g>
			<g>
				<g>
					<polygon points="197.5,163.7 197.5,193.3 201,193.3 204.7,193.3 204.7,163.7 201,163.7 					"/>
					<polygon points="213.7,183.9 212.3,174.8 210.6,163.1 210.6,163.1 210.6,163.1 207.7,163.6 207.7,163.6 204.8,164 206,172.4 
						206,172.4 207.9,184.8 207.9,184.8 209.2,193.3 215,192.4 					"/>
					<polygon points="190.1,150.1 190.1,150.1 188,150.3 188,150.4 188,150.4 188.1,152.3 188.2,152.4 188.6,156.9 183.6,156.9 
						178.6,156.9 178.6,158.2 178.6,160.2 178.6,163.7 178.6,171.3 178.6,176.5 178.6,184.1 178.6,189.3 178.6,191.4 178.6,193.3 
						183.6,193.3 188.6,193.3 188.6,191.4 188.6,189.3 188.6,184.1 188.6,176.5 188.6,171.3 188.6,163.7 188.6,160.2 188.6,158.2 
						188.6,157.1 192.2,193.5 194.4,193.3 194.4,193.3 196.5,193.1 192.2,149.9 					"/>
					<path d="M359.2,181.2c-0.4,0.7-1.3,1.5-2.6,1.7c0-0.2,0-0.3,0-0.5v-2.9c0.7-0.3,1.9-0.9,2.6,0
						C359.6,179.9,359.6,180.5,359.2,181.2z M360.3,178.6c-1-1.3-2.6-1.1-3.6-0.7v-1.4h-9.5h-9.7v5.8c0,4.6,3.8,8.1,8.4,8.1h-10.3
						c0.6,1.1,1.2,1.8,2.3,2.5h9.3h9.3c0.7-0.4,1.5-1.1,2.3-2.5h-10.3c3.9,0,7.2-2.7,8.1-6.3c1.6-0.1,3.1-1,3.9-2.4
						C361,180.6,360.9,179.5,360.3,178.6z"/>
				</g>
				<path d="M314.5,131.8l-11-13.1h-15.1H286l-2.7-2.4v-0.8h2.5l8.2-11.8v-6.4V84.8c0-1.8,0.1-4.1,0-5.4c-0.3-7.3-8.1-8.8-8.1-8.8
					s-4.8,0-10.1,0c-3.6,0-7.8,0-10.5,0c-7,0-7.7,6.2-7.7,6.2v4.8v15.6v6.4l8.8,11.8h1.2v0.8l-4.4,2.4h-0.5H254h-5.6l1.6,4.2
					l-10.5,7.6l-9.5,63.8h31.8h27.4H321L314.5,131.8z"/>
			</g>
		</g>
		<g>
			<rect x="178.6" y="156.7" class="st28" width="10.1" height="36.6"/>
			<rect x="183.6" y="156.7" class="st63" width="5" height="36.6"/>
			<rect x="197.3" y="163.7" class="st29" width="7.4" height="29.6"/>
			<rect x="201" y="163.7" class="st64" width="3.7" height="29.6"/>
			
				<rect x="206.9" y="163.4" transform="matrix(0.9888 -0.1493 0.1493 0.9888 -24.2531 33.3293)" class="st65" width="5.9" height="29.6"/>
			
				<rect x="209.8" y="163.2" transform="matrix(0.9888 -0.1493 0.1493 0.9888 -24.2076 33.5361)" class="st66" width="2.9" height="29.6"/>
			
				<rect x="206.9" y="171.9" transform="matrix(0.9888 -0.1493 0.1493 0.9888 -24.2457 33.3288)" class="st67" width="5.9" height="12.5"/>
			
				<rect x="190.1" y="150" transform="matrix(0.9951 -9.900279e-02 9.900279e-02 0.9951 -16.0495 19.8778)" class="st31" width="4.3" height="43.3"/>
			
				<rect x="192.2" y="149.9" transform="matrix(0.9951 -9.894047e-02 9.894047e-02 0.9951 -16.0248 19.968)" class="st68" width="2.2" height="43.3"/>
			
				<rect x="188" y="150.2" transform="matrix(0.9951 -9.886657e-02 9.886657e-02 0.9951 -14.012 19.541)" class="st69" width="4.3" height="1.9"/>
			<rect x="178.6" y="163.7" class="st68" width="10.1" height="7.6"/>
			<rect x="178.6" y="176.5" class="st68" width="10.1" height="7.6"/>
			<rect x="178.6" y="158.2" class="st68" width="10.1" height="2.1"/>
			<rect x="178.6" y="189.3" class="st68" width="10.1" height="2.1"/>
			<rect x="197.9" y="167.1" class="st70" width="6.2" height="6.1"/>
			<rect x="201" y="167.1" class="st27" width="3.1" height="6.1"/>
			<rect x="197.9" y="184.7" class="st70" width="6.2" height="6.1"/>
			<rect x="201" y="184.7" class="st27" width="3.1" height="6.1"/>
		</g>
		<g>
			<path class="st71" d="M337.5,176.5v5.9c0,4.6,3.7,8.3,8.3,8.3h2.7c4.6,0,8.3-3.7,8.3-8.3v-5.9H337.5z"/>
			<path class="st72" d="M337.8,193.1h18.7c0.7-0.4,1.5-1.2,2.3-2.4h-23.2C336.1,191.6,336.8,192.3,337.8,193.1z"/>
			<g>
				<path class="st73" d="M356.3,184.2c-0.1,0-0.1,0-0.2,0l0.1-1.3c1.6,0.1,2.7-0.9,3.1-1.7c0.3-0.7,0.4-1.3,0-1.7
					c-0.9-1.2-2.7,0.1-2.8,0.1l-0.8-1.1c1-0.7,3.3-1.6,4.6,0.1c0.6,0.8,0.7,2,0.1,3.1C359.6,183.3,358,184.2,356.3,184.2z"/>
			</g>
			<path class="st73" d="M347.1,190.6h1.3c4.6,0,8.3-3.7,8.3-8.3v-5.9h-9.6L347.1,190.6L347.1,190.6z"/>
			<path class="st74" d="M347.1,193.1h9.3c0.7-0.4,1.5-1.2,2.3-2.4h-11.6L347.1,193.1L347.1,193.1z"/>
		</g>
		<polygon class="st75" points="288.3,118.7 247.4,118.7 236.4,131.8 230,194.4 289.2,194.4 		"/>
		<polygon class="st75" points="262.6,118.7 303.5,118.7 314.5,131.8 320.9,194.4 261.7,194.4 		"/>
		<polygon class="st76" points="267.5,115.5 267.5,125.3 275.7,126.6 275.7,115.5 		"/>
		<path class="st77" d="M269,87h-6.6c0,0-2.1-0.2-2.1,1.7v5.6c0,0,1.1,3-2.9,3v6.4l8.8,11.8h1.2h8.2v-8.9v-21
			C273.9,86.3,271.6,87,269,87z"/>
		<path class="st75" d="M265.1,70.6c-5.7,0-7.7,8.8-7.7,8.8v2.2v15.6c3.9,0,2.9-3,2.9-3v-5.6c0-1.9,2.1-1.7,2.1-1.7h6.6
			c2.6,0,4.9-0.6,6.7-1.4v-7.9v-7C272.1,70.6,267.9,70.6,265.1,70.6z"/>
		<polygon class="st78" points="283.2,125.3 283.2,115.5 275.7,115.5 275.7,126.6 		"/>
		<path class="st76" d="M290.3,95.1c0-2.9,0-11.8,0-11.8s0.1-2.4-1.4-2.4h-8.6c0,0-0.7,2.9-4.6,4.7v21.1v8.8h7.4h2.6l8.2-11.8v-6.4
			C293.9,97.2,290.3,96.1,290.3,95.1z"/>
		<path class="st79" d="M285.8,70.6c0,0-4.8,0-10.1,0v15c3.9-1.8,4.6-4.7,4.6-4.7h8.6c1.5,0,1.4,2.4,1.4,2.4s0,9,0,11.8
			c0,1,3.6,2.1,3.6,2.1v-16c0-1.8,0-1,0-2.2C293.9,72.4,285.8,70.6,285.8,70.6z"/>
		<rect x="165.4" y="193.7" class="st69" width="219.5" height="6.8"/>
		<rect x="186.8" y="200.5" class="st80" width="176.6" height="6.8"/>
		
			<linearGradient id="SVGID_1_" gradientUnits="userSpaceOnUse" x1="275.1101" y1="512.1249" x2="275.1101" y2="524.9716" gradientTransform="matrix(1 0 0 1 0 -320)">
			<stop  offset="0" style="stop-color:#000000"/>
			<stop  offset="1" style="stop-color:#000000;stop-opacity:0"/>
		</linearGradient>
		<rect x="186.8" y="200.5" class="st81" width="176.6" height="6.8"/>
		<polygon class="st82" points="267.5,116.3 263,118.7 271.6,133.6 275.7,126.6 		"/>
		<polygon class="st82" points="283.5,116.3 288.7,120.9 279.4,133.6 275.7,126.6 		"/>
		<g>
			<polygon class="st83" points="275.7,126.6 270.6,135.2 273.2,137.6 271.1,156.6 275.3,156.6 			"/>
			<polygon class="st84" points="275.7,126.6 280.4,135.1 277.3,137.6 279.4,156.6 275.3,156.6 			"/>
		</g>
		<g>
			<path class="st10" d="M275.7,140.9H245c-3.9,0-6.8,3.1-6.8,7v36.4c0,3.9,3,7.3,6.8,7.3h30.6L275.7,140.9L275.7,140.9z"/>
			<path class="st1" d="M245.4,191.5H239c-0.4,0-0.6,0.5-0.6,1.1s0.3,1.1,0.6,1.1h36.6v-2.1h-30.2L245.4,191.5L245.4,191.5z"/>
			<path class="st10" d="M305.5,191.5c3.9,0,7.6-3.4,7.6-7.3v-36.4c0-3.9-3.7-7-7.6-7h-29.9v50.7H305.5L305.5,191.5z"/>
			<path class="st1" d="M305.5,191.5c3.9,0,7.6-3.4,7.6-7.3v-36.4c0-3.9-3.7-7-7.6-7h-29.9v50.7H305.5L305.5,191.5z"/>
			<path class="st10" d="M312.2,192.6c0-0.6-0.3-1.1-0.6-1.1h-6.3h-29.5v2.1h35.9C311.9,193.7,312.2,193.2,312.2,192.6z"/>
		</g>
		<g>
			<path class="st38" d="M270.8,163.9c0,2.7,2.2,4.9,4.9,5V159C273,159,270.8,161.2,270.8,163.9z"/>
			<path class="st85" d="M280.7,163.9c0-2.7-2.2-5-5-5h-0.1v9.9h0.1C278.5,168.9,280.7,166.6,280.7,163.9z"/>
		</g>
		<g>
			<path class="st86" d="M274.2,98.6c0,0.5-0.3,0.8-0.7,0.8h-10.7c-0.4,0-0.7-0.4-0.7-0.8v-4.7c0-0.5,0.3-0.8,0.7-0.8h10.7
				c0.4,0,0.7,0.4,0.7,0.8V98.6z"/>
			<path class="st86" d="M288.9,98.3c0,0.4-0.3,0.8-0.7,0.8h-10.4c-0.4,0-0.7-0.4-0.7-0.8v-4.5c0-0.4,0.3-0.8,0.7-0.8h10.4
				c0.4,0,0.7,0.4,0.7,0.8V98.3z"/>
			<path class="st87" d="M273.5,92.7h-10.7c-0.6,0-1.1,0.5-1.1,1.2v0.2v4.6v0.2c0,0.6,0.4,1,0.9,1h0.2h10.5h0.2
				c0.6,0,1.1-0.5,1.1-1.2V94C274.6,93.2,274.1,92.7,273.5,92.7z M273.5,99.1h-10.7c-0.2,0-0.4-0.2-0.4-0.5v-4.7
				c0-0.3,0.2-0.5,0.4-0.5h10.5c0.3,0,0.5,0.3,0.5,0.7v4.6C273.9,98.9,273.7,99.1,273.5,99.1z"/>
			<path class="st87" d="M288.2,92.7h-10.7c-0.6,0-1.1,0.5-1.1,1.2v0.2v4.6v0.2c0,0.6,0.4,1,0.9,1h0.2H288h0.2
				c0.6,0,1.1-0.5,1.1-1.2V94C289.2,93.2,288.7,92.7,288.2,92.7z M288.2,99.1h-10.7c-0.2,0-0.4-0.2-0.4-0.5v-4.7
				c0-0.3,0.2-0.5,0.4-0.5H288c0.3,0,0.5,0.3,0.5,0.7v4.6C288.5,98.9,288.4,99.1,288.2,99.1z"/>
			<path class="st87" d="M262.5,96.2c0,0.2-0.1,0.4-0.3,0.4h-4.3c-0.2,0-0.3-0.2-0.3-0.4V96c0-0.2,0.1-0.4,0.3-0.4h4.3
				c0.2,0,0.3,0.2,0.3,0.4V96.2z"/>
			<path class="st87" d="M293.9,96.2c0,0.2-0.1,0.4-0.3,0.4h-4.3c-0.2,0-0.3-0.2-0.3-0.4V96c0-0.2,0.1-0.4,0.3-0.4h4.3
				c0.2,0,0.3,0.2,0.3,0.4V96.2z"/>
			<path class="st87" d="M277.1,96.2c0,0.2-0.1,0.4-0.2,0.4h-2.5c-0.1,0-0.2-0.2-0.2-0.4V96c0-0.2,0.1-0.4,0.2-0.4h2.5
				c0.1,0,0.2,0.2,0.2,0.4V96.2z"/>
		</g>
	</g>
</g>
<g>
	<path class="st88" d="M165.1,225.6v-10.5h3.3c1,0,1.8,0.2,2.4,0.7c0.6,0.4,0.9,1,0.9,1.7c0,0.6-0.2,1.1-0.5,1.6s-0.8,0.8-1.4,0.9
		l0,0c0.7,0.1,1.3,0.4,1.7,0.8c0.4,0.5,0.6,1,0.6,1.8c0,0.9-0.4,1.6-1.1,2.2s-1.6,0.8-2.7,0.8H165.1z M166.9,216.4v3h1.1
		c0.6,0,1.1-0.1,1.4-0.4c0.3-0.3,0.5-0.7,0.5-1.2c0-0.9-0.6-1.3-1.8-1.3h-1.2V216.4z M166.9,220.8v3.3h1.5c0.6,0,1.2-0.2,1.5-0.5
		c0.4-0.3,0.5-0.7,0.5-1.2c0-1.1-0.8-1.6-2.3-1.6H166.9z"/>
	<path class="st88" d="M173.9,225.6v-7.5h3.6c0.8,0,1.4,0.2,1.9,0.5s0.7,0.8,0.7,1.3c0,1-0.5,1.5-1.5,1.7c1.2,0.1,1.8,0.7,1.8,1.7
		c0,0.6-0.2,1.1-0.7,1.6c-0.5,0.4-1.1,0.6-1.8,0.6L173.9,225.6L173.9,225.6z M175.6,219.3v1.9h1.5c0.8,0,1.3-0.3,1.3-1
		c0-0.6-0.4-0.9-1.1-0.9H175.6z M175.6,222.3v2h1.7c0.9,0,1.3-0.4,1.3-1.1c0-0.7-0.5-1-1.4-1h-1.6V222.3z"/>
	<path class="st88" d="M188.6,222.3h-5.1c0,0.7,0.2,1.2,0.6,1.6s1,0.6,1.7,0.6c0.8,0,1.5-0.2,2.2-0.7v1.4c-0.7,0.4-1.6,0.6-2.7,0.6
		c-1.1,0-2-0.3-2.6-1s-0.9-1.6-0.9-2.9c0-1.2,0.3-2.1,1-2.9c0.7-0.7,1.5-1.1,2.6-1.1s1.8,0.3,2.4,1s0.8,1.6,0.8,2.7V222.3z
		 M186.9,221.1c0-0.6-0.1-1.1-0.4-1.4s-0.7-0.5-1.2-0.5s-0.9,0.2-1.2,0.5s-0.5,0.8-0.6,1.4H186.9z"/>
	<path class="st88" d="M197.4,228.3H196v-2.7h-5.3v2.7h-1.5v-4h0.7c1.2-1.8,1.8-3.8,1.8-6.2h4.5v6.2h1.1L197.4,228.3L197.4,228.3z
		 M194.6,224.3v-4.9h-1.4c-0.1,1.8-0.6,3.5-1.5,4.9H194.6z"/>
	<path class="st88" d="M205.3,222.3h-5.1c0,0.7,0.2,1.2,0.6,1.6s1,0.6,1.7,0.6c0.8,0,1.5-0.2,2.2-0.7v1.4c-0.7,0.4-1.6,0.6-2.7,0.6
		c-1.1,0-2-0.3-2.6-1s-0.9-1.6-0.9-2.9c0-1.2,0.3-2.1,1-2.9c0.7-0.7,1.5-1.1,2.6-1.1s1.8,0.3,2.4,1s0.8,1.6,0.8,2.7V222.3z
		 M203.6,221.1c0-0.6-0.1-1.1-0.4-1.4s-0.7-0.5-1.2-0.5s-0.9,0.2-1.2,0.5s-0.5,0.8-0.6,1.4H203.6z"/>
	<path class="st88" d="M213.6,225.6h-1.7v-3.3h-3.3v3.3h-1.7v-7.5h1.7v2.9h3.3v-2.9h1.7V225.6z"/>
	<path class="st88" d="M222.6,225.6h-1.5v-5.5c-0.1,0.2-0.2,0.5-0.4,0.8l-3.2,4.7h-1.7v-7.5h1.6v5.4c0.1-0.1,0.2-0.3,0.3-0.7
		l3.2-4.7h1.7L222.6,225.6L222.6,225.6z"/>
	<path class="st88" d="M231.1,222.3H226c0,0.7,0.2,1.2,0.6,1.6c0.4,0.4,1,0.6,1.7,0.6c0.8,0,1.5-0.2,2.2-0.7v1.4
		c-0.7,0.4-1.6,0.6-2.7,0.6c-1.1,0-2-0.3-2.6-1s-0.9-1.6-0.9-2.9c0-1.2,0.3-2.1,1-2.9c0.7-0.7,1.5-1.1,2.6-1.1s1.8,0.3,2.4,1
		s0.8,1.6,0.8,2.7V222.3z M229.6,221.1c0-0.6-0.1-1.1-0.4-1.4s-0.7-0.5-1.2-0.5s-0.9,0.2-1.2,0.5c-0.3,0.4-0.5,0.8-0.6,1.4H229.6z"
		/>
	<path class="st88" d="M236.9,225.6v-7.5h3.6c0.8,0,1.4,0.2,1.9,0.5s0.7,0.8,0.7,1.3c0,1-0.5,1.5-1.5,1.7c1.2,0.1,1.8,0.7,1.8,1.7
		c0,0.6-0.2,1.1-0.7,1.6c-0.5,0.4-1.1,0.6-1.8,0.6L236.9,225.6L236.9,225.6z M238.6,219.3v1.9h1.5c0.8,0,1.3-0.3,1.3-1
		c0-0.6-0.4-0.9-1.1-0.9H238.6z M238.6,222.3v2h1.7c0.9,0,1.3-0.4,1.3-1.1c0-0.7-0.5-1-1.4-1h-1.6V222.3z"/>
	<path class="st88" d="M255.9,225.6h-1.7v-6.2h-3.3v6.2h-1.7v-7.5h6.7V225.6z"/>
	<path class="st88" d="M259.9,224.4L259.9,224.4v4.6h-1.7v-10.9h1.7v1.3l0,0c0.6-1,1.4-1.5,2.5-1.5c1,0,1.7,0.3,2.2,1
		s0.8,1.6,0.8,2.7c0,1.3-0.3,2.3-0.9,3c-0.6,0.8-1.4,1.1-2.5,1.1C261.1,225.7,260.4,225.3,259.9,224.4z M259.9,221.5v0.9
		c0,0.5,0.2,1,0.5,1.4c0.3,0.4,0.8,0.6,1.3,0.6c0.6,0,1.1-0.2,1.5-0.7s0.5-1.2,0.5-2.1c0-0.7-0.2-1.3-0.5-1.7
		c-0.3-0.4-0.8-0.6-1.4-0.6s-1.1,0.2-1.5,0.6C260.1,220.3,259.9,220.8,259.9,221.5z"/>
	<path class="st88" d="M270.6,225.7c-1.2,0-2.1-0.4-2.8-1.1c-0.7-0.7-1-1.6-1-2.8c0-1.3,0.4-2.2,1.1-3c0.7-0.7,1.7-1.1,2.9-1.1
		c1.2,0,2.1,0.3,2.7,1c0.6,0.7,1,1.6,1,2.9c0,1.2-0.4,2.2-1.1,2.9C272.8,225.4,271.8,225.7,270.6,225.7z M270.6,219.2
		c-0.7,0-1.2,0.2-1.6,0.7s-0.6,1.1-0.6,1.9c0,0.8,0.2,1.4,0.6,1.9c0.4,0.5,0.9,0.7,1.6,0.7c0.7,0,1.2-0.2,1.5-0.7
		c0.4-0.4,0.5-1.1,0.5-1.9c0-0.8-0.2-1.5-0.5-1.9C271.9,219.5,271.4,219.2,270.6,219.2z"/>
	<path class="st88" d="M280.6,219.4h-2.8v6.1h-1.7V218h4.5V219.4z"/>
	<path class="st88" d="M283.9,224.4L283.9,224.4v4.6h-1.7v-10.9h1.7v1.3l0,0c0.6-1,1.4-1.5,2.5-1.5c1,0,1.7,0.3,2.2,1
		s0.8,1.6,0.8,2.7c0,1.3-0.3,2.3-0.9,3c-0.6,0.8-1.4,1.1-2.5,1.1C285.1,225.7,284.4,225.3,283.9,224.4z M283.9,221.5v0.9
		c0,0.5,0.2,1,0.5,1.4s0.8,0.6,1.3,0.6c0.6,0,1.1-0.2,1.5-0.7s0.5-1.2,0.5-2.1c0-0.7-0.2-1.3-0.5-1.7s-0.8-0.6-1.4-0.6
		s-1.1,0.2-1.5,0.6S283.9,220.8,283.9,221.5z"/>
	<path class="st88" d="M296.8,225.6h-1.6v-1.2l0,0c-0.5,0.9-1.3,1.3-2.3,1.3c-0.7,0-1.3-0.2-1.7-0.6c-0.4-0.4-0.6-0.9-0.6-1.6
		c0-1.4,0.8-2.2,2.4-2.5l2.2-0.3c0-1.1-0.5-1.6-1.5-1.6c-0.9,0-1.7,0.3-2.4,0.9v-1.5c0.8-0.5,1.7-0.7,2.7-0.7c1.9,0,2.8,0.9,2.8,2.8
		V225.6z M295,221.9l-1.6,0.2c-0.5,0.1-0.9,0.2-1.1,0.4s-0.4,0.5-0.4,0.9c0,0.3,0.1,0.6,0.3,0.8c0.2,0.2,0.5,0.3,0.9,0.3
		c0.5,0,0.9-0.2,1.3-0.5c0.3-0.4,0.5-0.8,0.5-1.4v-0.7H295z"/>
	<path class="st88" d="M307.6,225.6H306v-6c-0.1,0.3-0.2,0.7-0.4,1.3l-1.7,4.7h-1.5l-1.7-4.7c-0.1-0.3-0.2-0.7-0.4-1.3v6h-1.4v-7.5
		h2.2l1.7,4.6c0.1,0.3,0.3,0.8,0.5,1.4l0.5-1.4l1.7-4.7h2.3v7.6L307.6,225.6L307.6,225.6z"/>
	<path class="st88" d="M318.6,225.6H317v-6c-0.1,0.3-0.2,0.7-0.4,1.3l-1.7,4.7h-1.5l-1.7-4.7c-0.1-0.3-0.2-0.7-0.4-1.3v6h-1.4v-7.5
		h2.2l1.7,4.6c0.1,0.3,0.3,0.8,0.5,1.4l0.5-1.4l1.7-4.7h2.3v7.6L318.6,225.6L318.6,225.6z"/>
	<path class="st88" d="M327.6,225.6h-1.5v-5.5c-0.1,0.2-0.2,0.5-0.4,0.8l-3.2,4.7h-1.7v-7.5h1.6v5.4c0.1-0.1,0.2-0.3,0.3-0.7
		l3.2-4.7h1.7V225.6z"/>
	<path class="st88" d="M331.6,224.4L331.6,224.4v4.6h-1.7v-10.9h1.7v1.3l0,0c0.6-1,1.4-1.5,2.5-1.5c1,0,1.7,0.3,2.2,1
		s0.8,1.6,0.8,2.7c0,1.3-0.3,2.3-0.9,3c-0.6,0.8-1.4,1.1-2.5,1.1C333,225.7,332.1,225.3,331.6,224.4z M331.6,221.5v0.9
		c0,0.5,0.2,1,0.5,1.4s0.8,0.6,1.3,0.6c0.6,0,1.1-0.2,1.5-0.7s0.5-1.2,0.5-2.1c0-0.7-0.2-1.3-0.5-1.7s-0.8-0.6-1.4-0.6
		s-1.1,0.2-1.5,0.6C331.8,220.3,331.6,220.8,331.6,221.5z"/>
	<path class="st88" d="M342.3,225.7c-1.2,0-2.1-0.4-2.8-1.1c-0.7-0.7-1-1.6-1-2.8c0-1.3,0.4-2.2,1.1-3c0.7-0.7,1.7-1.1,2.9-1.1
		c1.2,0,2.1,0.3,2.7,1s1,1.6,1,2.9c0,1.2-0.4,2.2-1.1,2.9C344.5,225.4,343.5,225.7,342.3,225.7z M342.4,219.2
		c-0.7,0-1.2,0.2-1.6,0.7s-0.6,1.1-0.6,1.9c0,0.8,0.2,1.4,0.6,1.9s0.9,0.7,1.6,0.7s1.2-0.2,1.5-0.7c0.4-0.4,0.5-1.1,0.5-1.9
		c0-0.8-0.2-1.5-0.5-1.9C343.5,219.5,343,219.2,342.4,219.2z"/>
	<path class="st88" d="M348,225.6v-7.5h3.6c0.8,0,1.4,0.2,1.9,0.5s0.7,0.8,0.7,1.3c0,1-0.5,1.5-1.5,1.7c1.2,0.1,1.8,0.7,1.8,1.7
		c0,0.6-0.2,1.1-0.7,1.6c-0.5,0.4-1.1,0.6-1.8,0.6L348,225.6L348,225.6z M349.6,219.3v1.9h1.5c0.8,0,1.3-0.3,1.3-1
		c0-0.6-0.4-0.9-1.1-0.9H349.6z M349.6,222.3v2h1.7c0.9,0,1.3-0.4,1.3-1.1c0-0.7-0.5-1-1.4-1h-1.6V222.3z"/>
	<path class="st88" d="M362,225.6h-1.6v-1.2l0,0c-0.5,0.9-1.3,1.3-2.3,1.3c-0.7,0-1.3-0.2-1.7-0.6c-0.4-0.4-0.6-0.9-0.6-1.6
		c0-1.4,0.8-2.2,2.4-2.5l2.2-0.3c0-1.1-0.5-1.6-1.5-1.6c-0.9,0-1.7,0.3-2.4,0.9v-1.5c0.8-0.5,1.7-0.7,2.7-0.7c1.9,0,2.8,0.9,2.8,2.8
		V225.6z M360.4,221.9l-1.6,0.2c-0.5,0.1-0.9,0.2-1.1,0.4s-0.4,0.5-0.4,0.9c0,0.3,0.1,0.6,0.3,0.8c0.2,0.2,0.5,0.3,0.9,0.3
		c0.5,0,0.9-0.2,1.3-0.5c0.3-0.4,0.5-0.8,0.5-1.4v-0.7H360.4z"/>
	<path class="st88" d="M370.8,225.6H369v-3.3h-3.3v3.3H364v-7.5h1.7v2.9h3.3v-2.9h1.7L370.8,225.6L370.8,225.6z"/>
	<path class="st88" d="M379.8,225.6h-1.5v-5.5c-0.1,0.2-0.2,0.5-0.4,0.8l-3.2,4.7H373v-7.5h1.6v5.4c0.1-0.1,0.2-0.3,0.3-0.7l3.2-4.7
		h1.7L379.8,225.6L379.8,225.6z"/>
	<path class="st88" d="M388.3,222.3h-5.1c0,0.7,0.2,1.2,0.6,1.6c0.4,0.4,1,0.6,1.7,0.6c0.8,0,1.5-0.2,2.2-0.7v1.4
		c-0.7,0.4-1.6,0.6-2.7,0.6s-2-0.3-2.6-1s-0.9-1.6-0.9-2.9c0-1.2,0.3-2.1,1-2.9c0.7-0.7,1.5-1.1,2.6-1.1s1.8,0.3,2.4,1
		s0.8,1.6,0.8,2.7V222.3z M386.6,221.1c0-0.6-0.1-1.1-0.4-1.4s-0.7-0.5-1.2-0.5s-0.9,0.2-1.2,0.5c-0.3,0.4-0.5,0.8-0.6,1.4H386.6z"
		/>
</g>
</svg>
