<?xml version="1.0" encoding="utf-8"?>
<!-- Generator: Adobe Illustrator 21.0.0, SVG Export Plug-In . SVG Version: 6.00 Build 0)  -->
<svg version="1.1" id="Layer_1" xmlns="http://www.w3.org/2000/svg" xmlns:xlink="http://www.w3.org/1999/xlink" x="0px" y="0px"
	 viewBox="0 0 110.3 30" style="enable-background:new 0 0 110.3 30;" xml:space="preserve">
<style type="text/css">
	.st0{fill:#333333;}
	.st1{enable-background:new    ;}
</style>
<g>
	<circle class="st0" cx="40.3" cy="15.3" r="5"/>
	<g>
		<g>
			<path class="st0" d="M9,10.6c0.1,0,0.2,0.1,0.3,0.1C9.2,10.7,9.1,10.7,9,10.6z"/>
			<path class="st0" d="M9.8,11.1c0.1,0,0.1,0.1,0.2,0.1C10,11.1,9.9,11.1,9.8,11.1z"/>
			<path class="st0" d="M8.1,10.4c0.1,0,0.2,0,0.3,0.1C8.3,10.5,8.2,10.4,8.1,10.4z"/>
			<path class="st0" d="M8.4,20.1c-0.1,0-0.2,0-0.3,0.1C8.2,20.1,8.3,20.1,8.4,20.1z"/>
			<path class="st0" d="M10,19.4c-0.1,0-0.1,0.1-0.2,0.1C9.9,19.4,10,19.4,10,19.4z"/>
			<path class="st0" d="M10.8,18.7L10,19.4C10.3,19.2,10.6,18.9,10.8,18.7z"/>
			<path class="st0" d="M9.3,19.8c-0.1,0-0.2,0.1-0.3,0.1C9.1,19.9,9.2,19.8,9.3,19.8z"/>
			<path class="st0" d="M11.2,12.3c-0.3-0.4-0.7-0.8-1.1-1.1l0.8,0.7C10.9,12,11.1,12.1,11.2,12.3z"/>
			<path class="st0" d="M11.1,18.4c0.1-0.1,0.2-0.2,0.2-0.3l0,0C11.2,18.2,11.2,18.3,11.1,18.4z"/>
			<path class="st0" d="M22.8,20.1c-0.1,0-0.2,0-0.3-0.1C22.6,20.1,22.7,20.1,22.8,20.1z"/>
			<path class="st0" d="M20.1,11.9l0.8-0.7C20.6,11.4,20.4,11.6,20.1,11.9z"/>
			<path class="st0" d="M19.9,12.2c-0.1,0.1-0.2,0.2-0.2,0.3l0,0C19.7,12.4,19.8,12.3,19.9,12.2z"/>
			<path class="st0" d="M22,19.9c-0.1,0-0.2-0.1-0.3-0.1C21.8,19.8,21.9,19.9,22,19.9z"/>
			<path class="st0" d="M21.7,10.8c0.1,0,0.2-0.1,0.3-0.1C21.9,10.7,21.8,10.7,21.7,10.8z"/>
			<path class="st0" d="M22.6,10.5c0.1,0,0.2,0,0.3-0.1C22.7,10.4,22.6,10.5,22.6,10.5z"/>
			<path class="st0" d="M19.8,18.3c0.3,0.4,0.7,0.8,1.1,1.1l-0.8-0.7C20,18.5,19.9,18.4,19.8,18.3z"/>
			<path class="st0" d="M20.9,11.2c0.1,0,0.1-0.1,0.2-0.1C21.1,11.1,21,11.1,20.9,11.2z"/>
			<path class="st0" d="M21.1,19.5c-0.1,0-0.1-0.1-0.2-0.1C21,19.4,21.1,19.4,21.1,19.5z"/>
			<path class="st0" d="M7.2,20.2c0.3,0,0.6,0,0.9-0.1c0.1,0,0.2,0,0.3-0.1c0.2,0,0.4,0,0.6-0.1c0.1,0,0.2-0.1,0.3-0.1
				c0.2-0.1,0.4-0.2,0.6-0.3c0.1,0,0.1-0.1,0.2-0.1l0,0l0,0l0.8-0.7l0,0c0.1-0.1,0.2-0.2,0.3-0.3c0.1-0.1,0.2-0.2,0.2-0.3l0,0
				c2.2-2.4,6.2-2.3,8.4,0c0,0.1,0.1,0.1,0.1,0.2c0.1,0.1,0.2,0.3,0.3,0.4l0.8,0.7l0,0l0,0c0.1,0,0.1,0.1,0.2,0.1
				c0.2,0.1,0.4,0.2,0.6,0.3c0.1,0,0.2,0.1,0.3,0.1c0.2,0.1,0.4,0.1,0.6,0.2c0.1,0,0.2,0,0.3,0.1c0.3,0.1,0.6,0.1,0.9,0.1
				c2.7,0,5-2.2,5-5c0-2.7-2.2-5-5-5c-0.3,0-0.6,0-0.9,0.1c-0.1,0-0.2,0-0.3,0.1c-0.2,0.1-0.4,0.1-0.6,0.2c-0.1,0-0.2,0.1-0.3,0.1
				c-0.2,0.1-0.4,0.2-0.6,0.3c-0.1,0-0.1,0.1-0.2,0.1l0,0l0,0l-0.8,0.7l0,0C20,12,20,12.1,19.9,12.2c-0.1,0.1-0.2,0.2-0.2,0.3l0,0
				c-2.2,2.3-6.2,2.3-8.4,0c0-0.1-0.1-0.1-0.1-0.1c-0.1-0.1-0.2-0.3-0.3-0.4L10,11.2l0,0l0,0c-0.1,0-0.1-0.1-0.2-0.1
				c-0.2-0.1-0.4-0.2-0.6-0.3c-0.1,0-0.2-0.1-0.3-0.1c-0.2-0.1-0.4-0.1-0.6-0.2c-0.1,0-0.2,0-0.3-0.1c-0.3-0.1-0.6-0.1-0.9-0.1
				c-2.7,0-5,2.2-5,5C2.3,18,4.5,20.2,7.2,20.2z"/>
		</g>
		<g>
			<path class="st0" d="M25.5,10.6c0.1,0,0.2,0.1,0.3,0.1C25.7,10.7,25.6,10.7,25.5,10.6z"/>
			<path class="st0" d="M26.4,11.1c0.1,0,0.1,0.1,0.2,0.1C26.5,11.1,26.4,11.1,26.4,11.1z"/>
			<path class="st0" d="M24.7,10.4c0.1,0,0.2,0,0.3,0.1C24.8,10.5,24.8,10.4,24.7,10.4z"/>
			<path class="st0" d="M24.9,20.1c-0.1,0-0.2,0-0.3,0.1C24.8,20.1,24.8,20.1,24.9,20.1z"/>
			<path class="st0" d="M26.6,19.4c-0.1,0-0.1,0.1-0.2,0.1C26.4,19.4,26.5,19.4,26.6,19.4z"/>
			<path class="st0" d="M27.3,18.7l-0.8,0.7C26.8,19.2,27.1,18.9,27.3,18.7z"/>
			<path class="st0" d="M25.8,19.8c-0.1,0-0.2,0.1-0.3,0.1C25.6,19.9,25.7,19.8,25.8,19.8z"/>
			<path class="st0" d="M27.7,12.3c-0.3-0.4-0.7-0.8-1.1-1.1l0.8,0.7C27.5,12,27.6,12.1,27.7,12.3z"/>
			<path class="st0" d="M27.6,18.4c0.1-0.1,0.2-0.2,0.2-0.3l0,0C27.8,18.2,27.7,18.3,27.6,18.4z"/>
			<path class="st0" d="M39.4,20.1c-0.1,0-0.2,0-0.3-0.1C39.2,20.1,39.3,20.1,39.4,20.1z"/>
			<path class="st0" d="M36.7,11.9l0.8-0.7C37.2,11.4,36.9,11.6,36.7,11.9z"/>
			<path class="st0" d="M36.4,12.2c-0.1,0.1-0.2,0.2-0.2,0.3l0,0C36.2,12.4,36.3,12.3,36.4,12.2z"/>
			<path class="st0" d="M38.5,19.9c-0.1,0-0.2-0.1-0.3-0.1C38.3,19.8,38.4,19.9,38.5,19.9z"/>
			<path class="st0" d="M38.2,10.8c0.1,0,0.2-0.1,0.3-0.1C38.4,10.7,38.3,10.7,38.2,10.8z"/>
			<path class="st0" d="M39.1,10.5c0.1,0,0.2,0,0.3-0.1C39.3,10.4,39.2,10.5,39.1,10.5z"/>
			<path class="st0" d="M36.3,18.3c0.3,0.4,0.7,0.8,1.1,1.1l-0.8-0.7C36.5,18.5,36.4,18.4,36.3,18.3z"/>
			<path class="st0" d="M37.5,11.2c0.1,0,0.1-0.1,0.2-0.1C37.6,11.1,37.5,11.1,37.5,11.2z"/>
			<path class="st0" d="M37.7,19.5c-0.1,0-0.1-0.1-0.2-0.1C37.5,19.4,37.6,19.4,37.7,19.5z"/>
		</g>
	</g>
	<g>
		<g>
			<path class="st0" d="M17.5,19c0.1,0,0.2,0.1,0.3,0.1C17.7,19,17.6,19,17.5,19z"/>
			<path class="st0" d="M18.3,19.4c0.1,0,0.1,0.1,0.2,0.1C18.4,19.5,18.4,19.4,18.3,19.4z"/>
			<path class="st0" d="M16.6,18.7c0.1,0,0.2,0,0.3,0.1C16.8,18.8,16.7,18.7,16.6,18.7z"/>
			<path class="st0" d="M16.9,28.4c-0.1,0-0.2,0-0.3,0.1C16.7,28.4,16.8,28.4,16.9,28.4z"/>
			<path class="st0" d="M18.5,27.7c-0.1,0-0.1,0.1-0.2,0.1C18.4,27.8,18.4,27.7,18.5,27.7z"/>
			<path class="st0" d="M19.3,27l-0.8,0.7C18.8,27.5,19.1,27.2,19.3,27z"/>
			<path class="st0" d="M17.8,28.1c-0.1,0-0.2,0.1-0.3,0.1C17.6,28.2,17.7,28.1,17.8,28.1z"/>
			<path class="st0" d="M19.6,20.6c-0.3-0.4-0.7-0.8-1.1-1.1l0.8,0.7C19.4,20.3,19.5,20.5,19.6,20.6z"/>
			<path class="st0" d="M19.6,26.7c0.1-0.1,0.2-0.2,0.2-0.3l0,0C19.7,26.5,19.6,26.6,19.6,26.7z"/>
			<path class="st0" d="M31.3,28.5c-0.1,0-0.2,0-0.3-0.1C31.1,28.4,31.2,28.4,31.3,28.5z"/>
			<path class="st0" d="M28.6,20.2l0.8-0.7C29.1,19.7,28.9,19.9,28.6,20.2z"/>
			<path class="st0" d="M28.4,20.5c-0.1,0.1-0.2,0.2-0.2,0.3l0,0C28.2,20.7,28.3,20.6,28.4,20.5z"/>
			<path class="st0" d="M30.5,28.2c-0.1,0-0.2-0.1-0.3-0.1C30.3,28.1,30.4,28.2,30.5,28.2z"/>
			<path class="st0" d="M30.2,19.1c0.1,0,0.2-0.1,0.3-0.1C30.4,19,30.3,19,30.2,19.1z"/>
			<path class="st0" d="M31,18.8c0.1,0,0.2,0,0.3-0.1C31.2,18.7,31.1,18.8,31,18.8z"/>
			<path class="st0" d="M28.3,26.6c0.3,0.4,0.7,0.8,1.1,1.1L28.6,27C28.5,26.9,28.4,26.7,28.3,26.6z"/>
			<path class="st0" d="M29.4,19.5c0.1,0,0.1-0.1,0.2-0.1C29.5,19.4,29.5,19.5,29.4,19.5z"/>
			<path class="st0" d="M29.6,27.8c-0.1,0-0.1-0.1-0.2-0.1C29.5,27.7,29.5,27.8,29.6,27.8z"/>
			<path class="st0" d="M15.7,28.6c0.3,0,0.6,0,0.9-0.1c0.1,0,0.2,0,0.3-0.1c0.2-0.1,0.4-0.1,0.6-0.2c0.1,0,0.2-0.1,0.3-0.1
				c0.2-0.1,0.4-0.2,0.5-0.3c0.1,0,0.1-0.1,0.2-0.1l0,0l0,0l0.8-0.7l0,0c0.1-0.1,0.2-0.2,0.3-0.3c0.1-0.1,0.2-0.2,0.2-0.3l0,0
				c2.2-2.4,6.2-2.3,8.4,0c0,0.1,0.1,0.1,0.1,0.2c0.1,0.1,0.2,0.3,0.3,0.4l0.8,0.7l0,0l0,0c0.1,0,0.1,0.1,0.2,0.1
				c0.2,0.1,0.4,0.2,0.6,0.3c0.1,0,0.2,0.1,0.3,0.1c0.2,0.1,0.4,0.1,0.6,0.2c0.1,0,0.2,0,0.3,0.1c0.3,0.1,0.6,0.1,0.9,0.1
				c2.7,0,5-2.2,5-5c0-2.7-2.2-5-5-5c-0.3,0-0.6,0-0.9,0.1c-0.1,0-0.2,0-0.3,0.1c-0.2,0.1-0.4,0.1-0.6,0.2c-0.1,0-0.2,0.1-0.3,0.1
				c-0.2,0.1-0.4,0.2-0.6,0.3c-0.1,0-0.1,0.1-0.2,0.1l0,0l0,0l-0.8,0.7l0,0c-0.1,0.1-0.2,0.2-0.3,0.3c-0.1,0.1-0.2,0.2-0.2,0.3l0,0
				c-2.2,2.3-6.2,2.3-8.4,0c0-0.1-0.1-0.1-0.1-0.1c-0.1-0.1-0.2-0.3-0.3-0.4l-0.8-0.7l0,0l0,0c-0.1,0-0.1-0.1-0.2-0.1
				c-0.2-0.1-0.4-0.2-0.5-0.3c-0.1,0-0.2-0.1-0.3-0.1c-0.2-0.1-0.4-0.1-0.6-0.2c-0.1,0-0.2,0-0.3-0.1c-0.3-0.1-0.6-0.1-0.9-0.1
				c-2.7,0-5,2.2-5,5C10.8,26.3,13,28.6,15.7,28.6z"/>
		</g>
		<g>
			<path class="st0" d="M17.5,2.3c0.1,0,0.2,0.1,0.3,0.1C17.7,2.4,17.6,2.4,17.5,2.3z"/>
			<path class="st0" d="M18.3,2.8c0.1,0,0.1,0.1,0.2,0.1C18.4,2.8,18.4,2.8,18.3,2.8z"/>
			<path class="st0" d="M16.6,2.1c0.1,0,0.2,0,0.3,0.1C16.8,2.1,16.7,2.1,16.6,2.1z"/>
			<path class="st0" d="M16.9,11.8c-0.1,0-0.2,0-0.3,0.1C16.7,11.8,16.8,11.8,16.9,11.8z"/>
			<path class="st0" d="M18.5,11c-0.1,0-0.1,0.1-0.2,0.1C18.4,11.1,18.4,11.1,18.5,11z"/>
			<path class="st0" d="M19.3,10.4L18.5,11C18.8,10.8,19.1,10.6,19.3,10.4z"/>
			<path class="st0" d="M17.8,11.5c-0.1,0-0.2,0.1-0.3,0.1C17.6,11.5,17.7,11.5,17.8,11.5z"/>
			<path class="st0" d="M19.6,4c-0.3-0.4-0.7-0.8-1.1-1.1l0.8,0.7C19.4,3.7,19.5,3.8,19.6,4z"/>
			<path class="st0" d="M19.6,10c0.1-0.1,0.2-0.2,0.2-0.3l0,0C19.7,9.9,19.6,9.9,19.6,10z"/>
			<path class="st0" d="M31.3,11.8c-0.1,0-0.2,0-0.3-0.1C31.1,11.8,31.2,11.8,31.3,11.8z"/>
			<path class="st0" d="M28.6,3.5l0.8-0.7C29.1,3.1,28.9,3.3,28.6,3.5z"/>
			<path class="st0" d="M28.4,3.9c-0.1,0.1-0.2,0.2-0.2,0.3l0,0C28.2,4.1,28.3,4,28.4,3.9z"/>
			<path class="st0" d="M30.5,11.6c-0.1,0-0.2-0.1-0.3-0.1C30.3,11.5,30.4,11.5,30.5,11.6z"/>
			<path class="st0" d="M30.2,2.5c0.1,0,0.2-0.1,0.3-0.1C30.4,2.4,30.3,2.4,30.2,2.5z"/>
			<path class="st0" d="M31,2.2c0.1,0,0.2,0,0.3-0.1C31.2,2.1,31.1,2.1,31,2.2z"/>
			<path class="st0" d="M28.3,9.9c0.3,0.4,0.7,0.8,1.1,1.1l-0.8-0.7C28.5,10.2,28.4,10.1,28.3,9.9z"/>
			<path class="st0" d="M29.4,2.9c0.1,0,0.1-0.1,0.2-0.1C29.5,2.8,29.5,2.8,29.4,2.9z"/>
			<path class="st0" d="M29.6,11.2c-0.1,0-0.1-0.1-0.2-0.1C29.5,11.1,29.5,11.1,29.6,11.2z"/>
			<path class="st0" d="M15.7,11.9c0.3,0,0.6,0,0.9-0.1c0.1,0,0.2,0,0.3-0.1c0.2-0.1,0.4-0.1,0.6-0.2c0.1,0,0.2-0.1,0.3-0.1
				c0.2-0.1,0.4-0.2,0.5-0.3c0.1,0,0.1-0.1,0.2-0.1l0,0l0,0l0.8-0.7l0,0c0.1-0.1,0.2-0.2,0.3-0.3c0.1-0.1,0.2-0.2,0.2-0.3l0,0
				c2.2-2.4,6.2-2.3,8.4,0c0,0.1,0.1,0.1,0.1,0.2c0.1,0.1,0.2,0.3,0.3,0.4l0.8,0.7l0,0l0,0c0.1,0,0.1,0.1,0.2,0.1
				c0.2,0.1,0.4,0.2,0.6,0.3c0.1,0,0.2,0.1,0.3,0.1c0.2,0.1,0.4,0.1,0.6,0.2c0.1,0,0.2,0,0.3,0.1c0.3,0.1,0.6,0.1,0.9,0.1
				c2.7,0,5-2.2,5-5c0-2.7-2.2-5-5-5c-0.3,0-0.6,0-0.9,0.1c-0.1,0-0.2,0-0.3,0.1c-0.2,0-0.4,0.1-0.6,0.2c-0.1,0-0.2,0.1-0.3,0.1
				c-0.2,0.1-0.4,0.2-0.6,0.3c-0.1,0-0.1,0.1-0.2,0.1l0,0l0,0l-0.8,0.7l0,0c-0.1,0.1-0.2,0.2-0.3,0.3c-0.1,0.1-0.2,0.2-0.2,0.3l0,0
				c-2.2,2.3-6.2,2.3-8.4,0c0-0.1-0.1-0.1-0.1-0.2c-0.1-0.1-0.2-0.3-0.3-0.4l-0.8-0.7l0,0l0,0c-0.1,0-0.1-0.1-0.2-0.1
				c-0.2-0.1-0.4-0.2-0.5-0.3c-0.1,0-0.2-0.1-0.3-0.1c-0.2-0.1-0.4-0.1-0.6-0.2c-0.1,0-0.2,0-0.3-0.1c-0.3,0-0.6,0-0.9,0
				c-2.7,0-5,2.2-5,5C10.8,9.7,13,11.9,15.7,11.9z"/>
		</g>
	</g>
</g>
<g class="st1">
	<path class="st0" d="M73.2,22h-3.5l-2.1-3.4c-0.2-0.3-0.3-0.5-0.4-0.7s-0.3-0.4-0.4-0.5s-0.3-0.3-0.5-0.3C66.1,17,66,17,65.8,17H65
		v5h-3V8.6h4.8c3.2,0,4.9,1.2,4.9,3.6c0,0.5-0.1,0.9-0.2,1.3c-0.1,0.4-0.3,0.8-0.6,1.1s-0.6,0.6-0.9,0.8c-0.4,0.2-0.8,0.4-1.2,0.5
		l0,0c0.2,0.1,0.4,0.2,0.6,0.3c0.2,0.1,0.4,0.3,0.5,0.5c0.2,0.2,0.3,0.4,0.5,0.6s0.3,0.4,0.4,0.6L73.2,22z M65,10.9v3.7h1.3
		c0.6,0,1.2-0.2,1.6-0.6c0.4-0.4,0.6-0.8,0.6-1.4c0-1.2-0.7-1.8-2.1-1.8H65V10.9z"/>
	<path class="st0" d="M85.8,21.5c-1,0.5-2.2,0.7-3.8,0.7c-2,0-3.7-0.6-4.8-1.8c-1.2-1.2-1.8-2.8-1.8-4.8c0-2.1,0.7-3.9,2-5.2
		s3-2,5.1-2c1.3,0,2.4,0.2,3.3,0.5v2.9c-0.9-0.5-1.9-0.8-3.1-0.8c-1.3,0-2.3,0.4-3,1.2c-0.8,0.8-1.2,1.9-1.2,3.2s0.4,2.3,1.1,3.1
		s1.7,1.2,2.9,1.2c1.2,0,2.2-0.3,3.2-0.9v2.7H85.8z"/>
	<path class="st0" d="M93.1,22h-3V8.6h3V22z"/>
	<path class="st0" d="M107.5,11.1h-3.8V22h-3V11.1h-3.8V8.6h10.6C107.5,8.6,107.5,11.1,107.5,11.1z"/>
</g>
</svg>
