<?xml version="1.0" encoding="utf-8"?>
<!-- Generator: Adobe Illustrator 21.0.0, SVG Export Plug-In . SVG Version: 6.00 Build 0)  -->
<svg version="1.1" id="Layer_1" xmlns="http://www.w3.org/2000/svg" xmlns:xlink="http://www.w3.org/1999/xlink" x="0px" y="0px"
	 viewBox="0 0 555 250" style="enable-background:new 0 0 555 250;" xml:space="preserve">
<style type="text/css">
	.st0{fill:#FFC253;}
	.st1{fill:#FCA61D;}
	.st2{fill:#BCBEC0;stroke:#231F20;stroke-width:2;stroke-linecap:round;stroke-linejoin:round;stroke-miterlimit:10;}
	.st3{fill:#FFFFFF;stroke:#231F20;stroke-width:2;stroke-linecap:round;stroke-linejoin:round;stroke-miterlimit:10;}
	.st4{fill:#414042;stroke:#231F20;stroke-width:2;stroke-linecap:round;stroke-linejoin:round;stroke-miterlimit:10;}
	.st5{fill:#D1D3D4;}
	.st6{fill:#A7A9AC;}
	.st7{fill:#FFD00E;}
	.st8{fill:#D1D3D4;stroke:#231F20;stroke-width:2;stroke-linecap:round;stroke-linejoin:round;stroke-miterlimit:10;}
	.st9{fill:#FFFFFF;}
	.st10{fill:#EF4136;stroke:#231F20;stroke-width:2;stroke-linecap:round;stroke-linejoin:round;stroke-miterlimit:10;}
	.st11{fill:none;stroke:#58595B;stroke-miterlimit:10;}
	.st12{fill:none;stroke:#231F20;stroke-width:2;stroke-miterlimit:10;}
	.st13{fill:none;stroke:#231F20;stroke-width:2;stroke-linecap:round;stroke-linejoin:round;stroke-miterlimit:10;}
	.st14{fill:#231F20;}
	.st15{fill:none;stroke:#231F20;stroke-width:2;stroke-miterlimit:10;stroke-dasharray:5.0585,2.0234;}
	.st16{fill:none;stroke:#231F20;stroke-width:2;stroke-miterlimit:10;stroke-dasharray:4.5147,1.8059;}
</style>
<g id="BACKGROUND">
	<rect id="XMLID_114_" y="0.3" class="st0" width="555" height="250"/>
</g>
<g id="OBJECTS">
	<g id="XMLID_293_">
		<g id="XMLID_236_">
			<path id="XMLID_234_" class="st1" d="M349.8,169c14.8-16.3,23.8-37.9,23.8-61.7c0-50.7-41.1-91.9-91.9-91.9s-91.9,41.1-91.9,91.9
				c0,23.7,9,45.4,23.8,61.7H349.8z"/>
			<g id="XMLID_113_">
				<path id="XMLID_42_" class="st2" d="M369.5,169.6H193.8c-3.4,0-6.6-1.4-8.8-3.8l-0.3-0.3v-5.1h193.9v5.1l-0.3,0.3
					C376.1,168.2,372.9,169.6,369.5,169.6z"/>
				<rect id="XMLID_43_" x="184.7" y="160.4" class="st3" width="193.9" height="5.1"/>
				<path id="XMLID_46_" class="st3" d="M281.7,163.2h15.4c1.9,0,3.7-0.5,5-1.4l1.9-1.3h-22.3h-22.3l1.9,1.3c1.3,0.9,3.1,1.4,5,1.4
					H281.7z"/>
				<path id="XMLID_45_" class="st4" d="M363.9,160.4H199.5v-95c0-2.3,1.8-4.1,4.1-4.1h156.2c2.3,0,4.1,1.8,4.1,4.1V160.4z"/>
				<rect id="XMLID_47_" x="205.5" y="67.4" class="st3" width="152.4" height="86.9"/>
				<rect id="XMLID_60_" x="216.4" y="95.9" class="st5" width="25.9" height="25.9"/>
				<rect id="XMLID_62_" x="216.4" y="125.1" class="st5" width="25.9" height="25.9"/>
				<rect id="XMLID_61_" x="244.3" y="95.9" class="st6" width="30.4" height="3"/>
				<rect id="XMLID_64_" x="244.3" y="100.2" class="st6" width="26.1" height="1.5"/>
				<g id="XMLID_65_">
					<rect id="XMLID_81_" x="244.3" y="109.6" class="st5" width="34.1" height="1.5"/>
					<rect id="XMLID_84_" x="279.5" y="109.6" class="st5" width="15" height="1.5"/>
					<rect id="XMLID_85_" x="295.7" y="109.6" class="st5" width="28.9" height="1.5"/>
					<rect id="XMLID_88_" x="244.3" y="112.5" class="st5" width="34.1" height="1.5"/>
					<rect id="XMLID_87_" x="279.5" y="112.5" class="st5" width="28.6" height="1.5"/>
					<rect id="XMLID_86_" x="244.3" y="115.4" class="st5" width="28.6" height="1.5"/>
				</g>
				<path id="XMLID_63_" class="st7" d="M246.7,102.5l0.4,0.8c0.1,0.1,0.1,0.2,0.3,0.2l0.9,0.1c0.3,0,0.4,0.4,0.2,0.6l-0.6,0.6
					c-0.1,0.1-0.1,0.2-0.1,0.3l0.1,0.9c0,0.3-0.2,0.5-0.5,0.4l-0.8-0.4c-0.1-0.1-0.2-0.1-0.3,0l-0.8,0.4c-0.3,0.1-0.6-0.1-0.5-0.4
					l0.1-0.9c0-0.1,0-0.2-0.1-0.3l-0.6-0.6c-0.2-0.2-0.1-0.5,0.2-0.6l0.9-0.1c0.1,0,0.2-0.1,0.3-0.2l0.4-0.8
					C246.2,102.3,246.6,102.3,246.7,102.5z"/>
				<path id="XMLID_66_" class="st7" d="M252.2,102.5l0.4,0.8c0.1,0.1,0.1,0.2,0.3,0.2l0.9,0.1c0.3,0,0.4,0.4,0.2,0.6l-0.6,0.6
					c-0.1,0.1-0.1,0.2-0.1,0.3l0.1,0.9c0,0.3-0.2,0.5-0.5,0.4l-0.8-0.4c-0.1-0.1-0.2-0.1-0.3,0l-0.8,0.4c-0.3,0.1-0.6-0.1-0.5-0.4
					l0.1-0.9c0-0.1,0-0.2-0.1-0.3l-0.6-0.6c-0.2-0.2-0.1-0.5,0.2-0.6l0.9-0.1c0.1,0,0.2-0.1,0.3-0.2l0.4-0.8
					C251.7,102.3,252.1,102.3,252.2,102.5z"/>
				<path id="XMLID_67_" class="st7" d="M257.7,102.5l0.4,0.8c0.1,0.1,0.1,0.2,0.3,0.2l0.9,0.1c0.3,0,0.4,0.4,0.2,0.6l-0.6,0.6
					c-0.1,0.1-0.1,0.2-0.1,0.3l0.1,0.9c0,0.3-0.2,0.5-0.5,0.4l-0.8-0.4c-0.1-0.1-0.2-0.1-0.3,0l-0.8,0.4c-0.3,0.1-0.6-0.1-0.5-0.4
					l0.1-0.9c0-0.1,0-0.2-0.1-0.3l-0.6-0.6c-0.2-0.2-0.1-0.5,0.2-0.6l0.9-0.1c0.1,0,0.2-0.1,0.3-0.2l0.4-0.8
					C257.2,102.3,257.5,102.3,257.7,102.5z"/>
				<path id="XMLID_68_" class="st7" d="M263.1,102.5l0.4,0.8c0.1,0.1,0.1,0.2,0.3,0.2l0.9,0.1c0.3,0,0.4,0.4,0.2,0.6l-0.6,0.6
					c-0.1,0.1-0.1,0.2-0.1,0.3l0.1,0.9c0,0.3-0.2,0.5-0.5,0.4L263,106c-0.1-0.1-0.2-0.1-0.3,0l-0.8,0.4c-0.3,0.1-0.6-0.1-0.5-0.4
					l0.1-0.9c0-0.1,0-0.2-0.1-0.3l-0.6-0.6c-0.2-0.2-0.1-0.5,0.2-0.6l0.9-0.1c0.1,0,0.2-0.1,0.3-0.2l0.4-0.8
					C262.6,102.3,263,102.3,263.1,102.5z"/>
				<path id="XMLID_69_" class="st7" d="M268.6,102.5l0.4,0.8c0.1,0.1,0.1,0.2,0.3,0.2l0.9,0.1c0.3,0,0.4,0.4,0.2,0.6l-0.6,0.6
					c-0.1,0.1-0.1,0.2-0.1,0.3l0.1,0.9c0,0.3-0.2,0.5-0.5,0.4l-0.8-0.4c-0.1-0.1-0.2-0.1-0.3,0l-0.8,0.4c-0.3,0.1-0.6-0.1-0.5-0.4
					l0.1-0.9c0-0.1,0-0.2-0.1-0.3l-0.6-0.6c-0.2-0.2-0.1-0.5,0.2-0.6l0.9-0.1c0.1,0,0.2-0.1,0.3-0.2l0.4-0.8
					C268.1,102.3,268.4,102.3,268.6,102.5z"/>
				<rect id="XMLID_103_" x="244.3" y="125.1" class="st6" width="30.4" height="3"/>
				<rect id="XMLID_102_" x="244.3" y="129.4" class="st6" width="26.1" height="1.5"/>
				<g id="XMLID_95_">
					<rect id="XMLID_101_" x="244.3" y="138.8" class="st5" width="34.1" height="1.5"/>
					<rect id="XMLID_100_" x="279.5" y="138.8" class="st5" width="15" height="1.5"/>
					<rect id="XMLID_99_" x="295.7" y="138.8" class="st5" width="28.9" height="1.5"/>
					<rect id="XMLID_98_" x="244.3" y="141.7" class="st5" width="34.1" height="1.5"/>
					<rect id="XMLID_97_" x="279.5" y="141.7" class="st5" width="28.6" height="1.5"/>
					<rect id="XMLID_96_" x="244.3" y="144.6" class="st5" width="28.6" height="1.5"/>
				</g>
				<path id="XMLID_94_" class="st7" d="M246.7,131.7l0.4,0.8c0.1,0.1,0.1,0.2,0.3,0.2l0.9,0.1c0.3,0,0.4,0.4,0.2,0.6l-0.6,0.6
					c-0.1,0.1-0.1,0.2-0.1,0.3l0.1,0.9c0,0.3-0.2,0.5-0.5,0.4l-0.8-0.4c-0.1-0.1-0.2-0.1-0.3,0l-0.8,0.4c-0.3,0.1-0.6-0.1-0.5-0.4
					l0.1-0.9c0-0.1,0-0.2-0.1-0.3l-0.6-0.6c-0.2-0.2-0.1-0.5,0.2-0.6l0.9-0.1c0.1,0,0.2-0.1,0.3-0.2l0.4-0.8
					C246.2,131.5,246.6,131.5,246.7,131.7z"/>
				<path id="XMLID_93_" class="st7" d="M252.2,131.7l0.4,0.8c0.1,0.1,0.1,0.2,0.3,0.2l0.9,0.1c0.3,0,0.4,0.4,0.2,0.6l-0.6,0.6
					c-0.1,0.1-0.1,0.2-0.1,0.3l0.1,0.9c0,0.3-0.2,0.5-0.5,0.4l-0.8-0.4c-0.1-0.1-0.2-0.1-0.3,0l-0.8,0.4c-0.3,0.1-0.6-0.1-0.5-0.4
					l0.1-0.9c0-0.1,0-0.2-0.1-0.3l-0.6-0.6c-0.2-0.2-0.1-0.5,0.2-0.6l0.9-0.1c0.1,0,0.2-0.1,0.3-0.2l0.4-0.8
					C251.7,131.5,252.1,131.5,252.2,131.7z"/>
				<path id="XMLID_92_" class="st7" d="M257.7,131.7l0.4,0.8c0.1,0.1,0.1,0.2,0.3,0.2l0.9,0.1c0.3,0,0.4,0.4,0.2,0.6l-0.6,0.6
					c-0.1,0.1-0.1,0.2-0.1,0.3l0.1,0.9c0,0.3-0.2,0.5-0.5,0.4l-0.8-0.4c-0.1-0.1-0.2-0.1-0.3,0l-0.8,0.4c-0.3,0.1-0.6-0.1-0.5-0.4
					l0.1-0.9c0-0.1,0-0.2-0.1-0.3l-0.6-0.6c-0.2-0.2-0.1-0.5,0.2-0.6l0.9-0.1c0.1,0,0.2-0.1,0.3-0.2l0.4-0.8
					C257.2,131.5,257.5,131.5,257.7,131.7z"/>
				<path id="XMLID_91_" class="st7" d="M263.1,131.7l0.4,0.8c0.1,0.1,0.1,0.2,0.3,0.2l0.9,0.1c0.3,0,0.4,0.4,0.2,0.6l-0.6,0.6
					c-0.1,0.1-0.1,0.2-0.1,0.3l0.1,0.9c0,0.3-0.2,0.5-0.5,0.4l-0.8-0.4c-0.1-0.1-0.2-0.1-0.3,0l-0.8,0.4c-0.3,0.1-0.6-0.1-0.5-0.4
					l0.1-0.9c0-0.1,0-0.2-0.1-0.3l-0.6-0.6c-0.2-0.2-0.1-0.5,0.2-0.6l0.9-0.1c0.1,0,0.2-0.1,0.3-0.2l0.4-0.8
					C262.6,131.5,263,131.5,263.1,131.7z"/>
				<path id="XMLID_90_" class="st5" d="M268.6,131.7l0.4,0.8c0.1,0.1,0.1,0.2,0.3,0.2l0.9,0.1c0.3,0,0.4,0.4,0.2,0.6l-0.6,0.6
					c-0.1,0.1-0.1,0.2-0.1,0.3l0.1,0.9c0,0.3-0.2,0.5-0.5,0.4l-0.8-0.4c-0.1-0.1-0.2-0.1-0.3,0l-0.8,0.4c-0.3,0.1-0.6-0.1-0.5-0.4
					l0.1-0.9c0-0.1,0-0.2-0.1-0.3l-0.6-0.6c-0.2-0.2-0.1-0.5,0.2-0.6l0.9-0.1c0.1,0,0.2-0.1,0.3-0.2l0.4-0.8
					C268.1,131.5,268.4,131.5,268.6,131.7z"/>
				<g id="XMLID_106_">
					<rect id="XMLID_89_" x="353.9" y="67.4" class="st8" width="3.9" height="86.9"/>
					<rect id="XMLID_104_" x="354.9" y="107.1" class="st6" width="2.1" height="26.4"/>
					<rect id="XMLID_105_" x="354.8" y="151.3" class="st6" width="2.1" height="2.1"/>
					<polygon id="XMLID_108_" class="st9" points="355.9,153.1 356.8,151.7 355.9,151.7 355,151.7 					"/>
				</g>
				<g id="XMLID_59_">
					<g id="XMLID_49_">
						<path id="XMLID_50_" class="st10" d="M199.5,79.8v6c0,4,3.3,7.3,7.5,7.3c4.1,0,7.5-3.3,7.5-7.3v-6H199.5z"/>
						<path id="XMLID_51_" class="st3" d="M214.4,79.8v6c0,4,3.3,7.3,7.5,7.3c4.1,0,7.5-3.3,7.5-7.3v-6H214.4z"/>
						<path id="XMLID_52_" class="st10" d="M229.4,79.8v6c0,4,3.3,7.3,7.5,7.3c4.1,0,7.5-3.3,7.5-7.3v-6H229.4z"/>
						<path id="XMLID_53_" class="st3" d="M244.3,79.8v6c0,4,3.3,7.3,7.5,7.3c4.1,0,7.5-3.3,7.5-7.3v-6H244.3z"/>
						<path id="XMLID_54_" class="st10" d="M259.3,79.8v6c0,4,3.3,7.3,7.5,7.3c4.1,0,7.5-3.3,7.5-7.3v-6H259.3z"/>
						<path id="XMLID_55_" class="st3" d="M274.2,79.8v6c0,4,3.3,7.3,7.5,7.3c4.1,0,7.5-3.3,7.5-7.3v-6H274.2z"/>
						<path id="XMLID_56_" class="st10" d="M289.1,79.8v6c0,4,3.3,7.3,7.5,7.3c4.1,0,7.5-3.3,7.5-7.3v-6H289.1z"/>
						<path id="XMLID_58_" class="st3" d="M304.1,79.8v6c0,4,3.3,7.3,7.5,7.3c4.1,0,7.5-3.3,7.5-7.3v-6H304.1z"/>
						<path id="XMLID_57_" class="st10" d="M319,79.8v6c0,4,3.3,7.3,7.5,7.3s7.5-3.3,7.5-7.3v-6H319z"/>
						<path id="XMLID_83_" class="st3" d="M334,79.8v6c0,4,3.3,7.3,7.5,7.3c4.1,0,7.5-3.3,7.5-7.3v-6H334z"/>
						<path id="XMLID_82_" class="st10" d="M348.9,79.8v6c0,4,3.3,7.3,7.5,7.3s7.5-3.3,7.5-7.3v-6H348.9z"/>
					</g>
					<g id="XMLID_71_">
						<polygon id="XMLID_48_" class="st10" points="219.1,67.4 205.3,67.4 199.5,79.8 214.4,79.8 						"/>
						<polygon id="XMLID_70_" class="st3" points="233,67.4 219.1,67.4 214.4,79.8 229.4,79.8 						"/>
						<polygon id="XMLID_72_" class="st10" points="246.9,67.4 233,67.4 229.4,79.8 244.3,79.8 						"/>
						<polygon id="XMLID_73_" class="st3" points="260.8,67.4 246.9,67.4 244.3,79.8 259.3,79.8 						"/>
						<polygon id="XMLID_74_" class="st10" points="274.6,67.4 260.8,67.4 259.3,79.8 274.2,79.8 						"/>
						<polygon id="XMLID_75_" class="st3" points="288.5,67.4 274.6,67.4 274.2,79.8 289.1,79.8 						"/>
						<polygon id="XMLID_76_" class="st10" points="302.4,67.4 288.5,67.4 289.1,79.8 304.1,79.8 						"/>
						<polygon id="XMLID_77_" class="st3" points="316.2,67.4 302.4,67.4 304.1,79.8 319,79.8 						"/>
						<polygon id="XMLID_78_" class="st10" points="330.1,67.4 316.2,67.4 319,79.8 334,79.8 						"/>
						<polygon id="XMLID_80_" class="st3" points="344,67.4 330.1,67.4 334,79.8 348.9,79.8 						"/>
						<polygon id="XMLID_79_" class="st10" points="357.9,67.4 344,67.4 348.9,79.8 363.9,79.8 						"/>
					</g>
				</g>
				<g id="XMLID_107_">
					<polygon id="XMLID_110_" class="st9" points="240.1,118.6 235.6,114.1 239,112.5 229.4,109.8 232,119.5 233.6,116 238.2,120.6 
											"/>
					<line id="XMLID_109_" class="st11" x1="224.9" y1="105.4" x2="228.5" y2="109"/>
					<line id="XMLID_111_" class="st11" x1="223.3" y1="111.8" x2="228.3" y2="112.4"/>
					<line id="XMLID_112_" class="st11" x1="231.3" y1="103.7" x2="231.9" y2="108.8"/>
				</g>
			</g>
			<g id="XMLID_117_">
				<path id="XMLID_115_" class="st4" d="M86.4,94.8H59.9c-1.7,0-3.1-1.4-3.1-3.1v-53c0-1.7,1.4-3.1,3.1-3.1h26.5
					c1.7,0,3.1,1.4,3.1,3.1v53C89.6,93.4,88.2,94.8,86.4,94.8z"/>
				<rect id="XMLID_116_" x="60.3" y="39.5" class="st3" width="25.6" height="46.5"/>
				<line id="XMLID_119_" class="st12" x1="68.9" y1="90.4" x2="77.4" y2="90.4"/>
			</g>
			<g id="XMLID_120_">
				<polygon id="XMLID_118_" class="st10" points="415.1,90.3 382.4,90.3 384.1,55 412.5,55 				"/>
				<path id="XMLID_121_" class="st13" d="M390.1,59.7V52c0-4.8,3.9-8.6,8.6-8.6l0,0c4.8,0,8.6,3.9,8.6,8.6v7.7"/>
			</g>
			<g id="XMLID_124_">
				<path id="XMLID_122_" class="st3" d="M150.9,136.9h-43.3c-1.1,0-2-0.9-2-2v-24.7c0-1.1,0.9-2,2-2h43.3c1.1,0,2,0.9,2,2v24.7
					C152.9,136,152,136.9,150.9,136.9z"/>
				<rect id="XMLID_123_" x="105.6" y="114.8" class="st10" width="47.3" height="4.3"/>
				<line id="XMLID_125_" class="st12" x1="108.1" y1="129.9" x2="122.9" y2="129.9"/>
				<line id="XMLID_126_" class="st12" x1="126.4" y1="129.9" x2="141.2" y2="129.9"/>
			</g>
			<g id="XMLID_129_">
				<rect id="XMLID_127_" x="43" y="155.2" class="st3" width="51.8" height="27.5"/>
				<path id="XMLID_136_" class="st3" d="M91.6,162.6v12.7c-2.1,0-3.8,1.7-3.9,3.8H50.2c0-2.1-1.7-3.8-3.8-3.8v-12.7
					c2.1,0,3.8-1.7,3.8-3.9h37.6C87.7,160.9,89.4,162.6,91.6,162.6z"/>
				<circle id="XMLID_128_" class="st3" cx="69" cy="169" r="5.6"/>
			</g>
			<g id="XMLID_141_">
				<g id="XMLID_154_">
					<path id="XMLID_153_" class="st10" d="M460.3,137.7v-8.4c0-11.4-9.2-20.6-20.6-20.6l0,0c-11.4,0-20.6,9.2-20.6,20.6v8.4h2.8
						v-8.1c0-9.9,8-17.8,17.8-17.8l0,0c9.9,0,17.8,8,17.8,17.8v8.1H460.3z"/>
				</g>
				<path id="XMLID_139_" class="st10" d="M456.4,142.7c3.9,0,7.1-3.2,7.1-7.1s-3.2-7.1-7.1-7.1V142.7z"/>
				<path id="XMLID_140_" class="st10" d="M422.9,142.7c-3.9,0-7.1-3.2-7.1-7.1s3.2-7.1,7.1-7.1V142.7z"/>
				<g id="XMLID_137_">
					<circle id="XMLID_130_" class="st3" cx="439.7" cy="135.5" r="18.3"/>
					<path id="XMLID_134_" class="st4" d="M439.7,117.3c-9.5,0-17.3,7.3-18.2,16.6h21.1c2,0,3.8-1.1,4.6-2.9l0.6-1.3l1.6,2.1
						c1,1.3,2.5,2.1,4.1,2.1h4.3C457,124.6,449.2,117.3,439.7,117.3z"/>
					<g id="XMLID_131_">
						<path id="XMLID_132_" class="st13" d="M446.1,141c0-1.8,1.5-3.3,3.3-3.3s3.3,1.5,3.3,3.3"/>
						<path id="XMLID_133_" class="st13" d="M426.6,141c0-1.8,1.5-3.3,3.3-3.3s3.3,1.5,3.3,3.3"/>
					</g>
					<path id="XMLID_135_" class="st3" d="M431,147.4c2.4,1.8,5.4,2.8,8.6,2.8s6.2-1.1,8.6-2.8"/>
				</g>
			</g>
			<g id="XMLID_219_">
				<g id="XMLID_233_">
					<line id="XMLID_252_" class="st12" x1="467.4" y1="74.7" x2="429.7" y2="74.7"/>
					<line id="XMLID_246_" class="st12" x1="467.4" y1="82.4" x2="434.9" y2="82.4"/>
					<line id="XMLID_240_" class="st12" x1="467.4" y1="90.2" x2="442" y2="90.2"/>
				</g>
				<g id="XMLID_152_">
					<path id="XMLID_143_" class="st3" d="M505.3,90.2h-39.1c-1.8,0-3.4-1.4-3.6-3.2l-2.1-21.3c0-0.2,0.1-0.4,0.3-0.4h49.8
						c0.2,0,0.4,0.2,0.3,0.4L508.8,87C508.7,88.8,507.1,90.2,505.3,90.2z"/>
					<path id="XMLID_142_" class="st10" d="M512.3,66.9h-53.1c-1.3,0-2.3-1-2.3-2.3v-0.2c0-1.3,1-2.3,2.3-2.3h53.1
						c1.3,0,2.3,1,2.3,2.3v0.2C514.6,65.8,513.6,66.9,512.3,66.9z"/>
					<g id="XMLID_144_">
						<path id="XMLID_145_" class="st3" d="M467.4,83.8V72c0-1.1,0.9-2,2-2l0,0c1.1,0,2,0.9,2,2v11.8c0,1.1-0.9,2-2,2l0,0
							C468.3,85.8,467.4,84.9,467.4,83.8z"/>
						<path id="XMLID_146_" class="st3" d="M478.3,83.8V72c0-1.1,0.9-2,2-2l0,0c1.1,0,2,0.9,2,2v11.8c0,1.1-0.9,2-2,2l0,0
							C479.2,85.8,478.3,84.9,478.3,83.8z"/>
						<path id="XMLID_147_" class="st3" d="M489.2,83.8V72c0-1.1,0.9-2,2-2l0,0c1.1,0,2,0.9,2,2v11.8c0,1.1-0.9,2-2,2l0,0
							C490.1,85.8,489.2,84.9,489.2,83.8z"/>
						<path id="XMLID_148_" class="st3" d="M500.2,83.8V72c0-1.1,0.9-2,2-2l0,0c1.1,0,2,0.9,2,2v11.8c0,1.1-0.9,2-2,2l0,0
							C501,85.8,500.2,84.9,500.2,83.8z"/>
					</g>
					<g id="XMLID_150_">
						<path id="XMLID_149_" class="st3" d="M493.7,64.5l-9.8-17c-0.6-1-0.2-2.4,0.8-2.9h0.1c1-0.6,2.4-0.2,2.9,0.8l9.8,17
							c0.6,1,0.2,2.4-0.8,2.9h-0.1C495.6,65.9,494.2,65.5,493.7,64.5z"/>
						<path id="XMLID_151_" class="st3" d="M477.8,64.5l9.8-17c0.6-1,0.2-2.4-0.8-2.9h-0.1c-1-0.6-2.4-0.2-2.9,0.8l-9.8,17
							c-0.6,1-0.2,2.4,0.8,2.9h0.1C475.9,65.9,477.2,65.5,477.8,64.5z"/>
					</g>
				</g>
			</g>
			<g id="XMLID_155_">
				<circle id="XMLID_138_" class="st3" cx="496.3" cy="169" r="15.9"/>
				<g id="XMLID_156_">
					<path id="XMLID_157_" class="st14" d="M495.1,165.8c0,3-1.9,4.5-4,4.5c-2.2,0-3.9-1.6-3.9-4.3c0-2.5,1.6-4.5,4-4.5
						C493.7,161.6,495.1,163.4,495.1,165.8z M489.7,166c0,1.5,0.5,2.6,1.5,2.6c0.9,0,1.4-1,1.4-2.6c0-1.4-0.4-2.6-1.4-2.6
						C490.2,163.4,489.7,164.6,489.7,166z M491.3,176.4l8.2-14.8h1.8l-8.2,14.8H491.3z M505.3,171.8c0,3-1.9,4.5-4,4.5
						c-2.2,0-3.9-1.6-3.9-4.3c0-2.5,1.6-4.5,4-4.5C503.9,167.5,505.3,169.3,505.3,171.8z M500,171.9c0,1.5,0.5,2.6,1.4,2.6
						c0.9,0,1.4-1,1.4-2.6c0-1.4-0.4-2.6-1.4-2.6C500.4,169.4,500,170.5,500,171.9z"/>
				</g>
			</g>
			<g id="XMLID_181_">
				<circle id="XMLID_164_" class="st10" cx="181.4" cy="35.4" r="20"/>
				<circle id="XMLID_165_" class="st3" cx="181.4" cy="35.4" r="15.6"/>
				<g id="XMLID_166_">
					<line id="XMLID_167_" class="st12" x1="181.4" y1="19.8" x2="181.4" y2="23.4"/>
					<line id="XMLID_168_" class="st12" x1="173.6" y1="21.9" x2="175.4" y2="25"/>
					<line id="XMLID_169_" class="st12" x1="167.9" y1="27.6" x2="171" y2="29.4"/>
					<line id="XMLID_170_" class="st12" x1="165.8" y1="35.4" x2="169.4" y2="35.4"/>
					<line id="XMLID_171_" class="st12" x1="167.9" y1="43.2" x2="171" y2="41.4"/>
					<line id="XMLID_172_" class="st12" x1="173.6" y1="49" x2="175.4" y2="45.8"/>
					<line id="XMLID_173_" class="st12" x1="181.4" y1="51.1" x2="181.4" y2="47.4"/>
					<line id="XMLID_174_" class="st12" x1="189.2" y1="49" x2="187.4" y2="45.8"/>
					<line id="XMLID_175_" class="st12" x1="194.9" y1="43.2" x2="191.8" y2="41.4"/>
					<line id="XMLID_176_" class="st12" x1="197" y1="35.4" x2="193.4" y2="35.4"/>
					<line id="XMLID_177_" class="st12" x1="194.9" y1="27.6" x2="191.8" y2="29.4"/>
					<line id="XMLID_178_" class="st12" x1="189.2" y1="21.9" x2="187.4" y2="25"/>
				</g>
				<g id="XMLID_179_">
					<line id="XMLID_180_" class="st13" x1="181.4" y1="35.4" x2="181.4" y2="25.7"/>
					<polyline id="XMLID_182_" class="st13" points="183.6,28.5 181.4,25.5 179.2,28.5 					"/>
				</g>
				<g id="XMLID_183_">
					<line id="XMLID_185_" class="st13" x1="181.4" y1="35.4" x2="189" y2="35.4"/>
					<polyline id="XMLID_186_" class="st13" points="186.2,33.2 189.3,35.4 186.2,37.7 					"/>
				</g>
			</g>
			<g id="XMLID_188_">
				<path id="XMLID_184_" class="st3" d="M168.2,169.2c0,7.1-12.8,24.1-12.8,24.1s-12.8-17.1-12.8-24.1c0-7.1,5.7-12.8,12.8-12.8
					C162.5,156.4,168.2,162.1,168.2,169.2z"/>
				<circle id="XMLID_187_" class="st10" cx="155.5" cy="169.2" r="6.2"/>
			</g>
			<g id="XMLID_189_">
				<path id="XMLID_191_" class="st3" d="M419.1,169.4h-23.7c-1.7,0-3.2,1.4-3.2,3.2v12.7c0,1.7,1.4,3.2,3.2,3.2h1.9
					c0,2.6-1.4,4.8-3.5,6c1,0.6,2.2,0.9,3.5,0.9c3.8,0,6.9-3.1,6.9-6.9H419c1.7,0,3.2-1.4,3.2-3.2v-12.7
					C422.2,170.9,420.8,169.4,419.1,169.4z"/>
				<line id="XMLID_190_" class="st13" x1="396.3" y1="174.9" x2="418.1" y2="174.9"/>
				<line id="XMLID_192_" class="st13" x1="396.3" y1="179.2" x2="418.1" y2="179.2"/>
				<line id="XMLID_193_" class="st13" x1="396.3" y1="183.6" x2="418.1" y2="183.6"/>
			</g>
			<g id="XMLID_194_">
				<line id="XMLID_195_" class="st12" x1="102.8" y1="114.8" x2="55.3" y2="114.8"/>
				<line id="XMLID_196_" class="st12" x1="102.8" y1="122.5" x2="61.8" y2="122.5"/>
				<line id="XMLID_197_" class="st12" x1="102.8" y1="130.3" x2="70.8" y2="130.3"/>
			</g>
			<g id="XMLID_217_">
				<line id="XMLID_221_" class="st12" x1="159.3" y1="41.9" x2="111.8" y2="41.9"/>
				<line id="XMLID_220_" class="st12" x1="162.9" y1="49.7" x2="128.8" y2="49.7"/>
			</g>
			<g id="XMLID_201_">
				<polyline id="XMLID_199_" class="st12" points="93.3,62.8 129.3,62.8 129.3,103.1 				"/>
				<polyline id="XMLID_200_" class="st13" points="124.7,97.6 129.3,103.8 133.8,97.6 				"/>
			</g>
			<g id="XMLID_207_">
				<line id="XMLID_198_" class="st12" x1="156.9" y1="122.5" x2="190.8" y2="122.5"/>
				<polyline id="XMLID_218_" class="st13" points="185.6,127.1 190.8,122.5 185.6,118 				"/>
			</g>
			<g id="XMLID_229_">
				<polyline id="XMLID_231_" class="st12" points="398.8,95.9 398.8,124.7 373.2,124.7 				"/>
				<polyline id="XMLID_230_" class="st13" points="403.3,101.1 398.8,95.9 394.2,101.1 				"/>
			</g>
			<polyline id="XMLID_232_" class="st13" points="368.2,43.7 363.6,48.8 359.1,43.7 354.6,48.8 350,43.7 345.5,48.8 341,43.7 
				336.4,48.8 331.9,43.7 327.3,48.8 322.8,43.7 318.3,48.8 			"/>
			<polyline id="XMLID_235_" class="st13" points="247.6,47.1 243,52.3 238.5,47.1 234,52.3 229.4,47.1 224.9,52.3 220.4,47.1 
				215.8,52.3 211.3,47.1 206.7,52.3 202.2,47.1 			"/>
			<g id="XMLID_204_">
				<line id="XMLID_203_" class="st12" x1="102.6" y1="147.9" x2="108.6" y2="153.9"/>
				<line id="XMLID_202_" class="st12" x1="108.6" y1="147.9" x2="102.6" y2="153.9"/>
			</g>
			<g id="XMLID_224_">
				<line id="XMLID_226_" class="st12" x1="174.5" y1="102.6" x2="180.5" y2="108.6"/>
				<line id="XMLID_225_" class="st12" x1="180.5" y1="102.6" x2="174.5" y2="108.6"/>
			</g>
			<g id="XMLID_238_">
				<line id="XMLID_241_" class="st12" x1="292.7" y1="49.3" x2="298.7" y2="55.3"/>
				<line id="XMLID_239_" class="st12" x1="298.7" y1="49.3" x2="292.7" y2="55.3"/>
			</g>
			<g id="XMLID_214_">
				<line id="XMLID_216_" class="st12" x1="174.5" y1="187.5" x2="180.5" y2="193.6"/>
				<line id="XMLID_215_" class="st12" x1="180.5" y1="187.5" x2="174.5" y2="193.6"/>
			</g>
			<g id="XMLID_263_">
				<line id="XMLID_265_" class="st12" x1="436.7" y1="166" x2="442.7" y2="172"/>
				<line id="XMLID_264_" class="st12" x1="442.7" y1="166" x2="436.7" y2="172"/>
			</g>
			<circle id="XMLID_205_" class="st12" cx="139.5" cy="148.4" r="3.1"/>
			<circle id="XMLID_223_" class="st12" cx="150.9" cy="99.2" r="3.1"/>
			<circle id="XMLID_237_" class="st12" cx="259.5" cy="41.4" r="3.1"/>
			
				<rect id="XMLID_206_" x="180.6" y="80.6" transform="matrix(0.7071 -0.7071 0.7071 0.7071 -5.2667 154.1326)" class="st13" width="5.7" height="5.7"/>
			
				<rect id="XMLID_213_" x="121.8" y="172.6" transform="matrix(0.7071 -0.7071 0.7071 0.7071 -87.5297 139.5279)" class="st13" width="5.7" height="5.7"/>
			
				<rect id="XMLID_242_" x="291" y="18.8" transform="matrix(0.7071 -0.7071 0.7071 0.7071 70.771 214.1215)" class="st13" width="5.7" height="5.7"/>
			<g id="XMLID_259_">
				<line id="XMLID_261_" class="st12" x1="418.4" y1="97.5" x2="424.4" y2="103.5"/>
				<line id="XMLID_260_" class="st12" x1="424.4" y1="97.5" x2="418.4" y2="103.5"/>
			</g>
			<g id="XMLID_256_">
				<line id="XMLID_258_" class="st12" x1="479.8" y1="116.3" x2="485.8" y2="122.3"/>
				<line id="XMLID_257_" class="st12" x1="485.8" y1="116.3" x2="479.8" y2="122.3"/>
			</g>
			<circle id="XMLID_255_" class="st12" cx="460" cy="103.5" r="3.1"/>
			<circle id="XMLID_268_" class="st12" cx="410.3" cy="153.5" r="3.1"/>
			<circle id="XMLID_270_" class="st12" cx="456.9" cy="190.7" r="3.1"/>
			<circle id="XMLID_266_" class="st12" cx="500" cy="141.4" r="3.1"/>
			<circle id="XMLID_262_" class="st12" cx="377.4" cy="46.3" r="3.1"/>
			
				<rect id="XMLID_254_" x="501.3" y="103.5" transform="matrix(0.7071 -0.7071 0.7071 0.7071 72.473 387.6432)" class="st13" width="5.7" height="5.7"/>
			
				<rect id="XMLID_269_" x="460.2" y="157.7" transform="matrix(0.7071 -0.7071 0.7071 0.7071 22.0797 374.4683)" class="st13" width="5.7" height="5.7"/>
			<line id="XMLID_208_" class="st12" x1="196.2" y1="179.2" x2="269.4" y2="179.2"/>
			<line id="XMLID_210_" class="st12" x1="245.1" y1="187.5" x2="318.3" y2="187.5"/>
			<line id="XMLID_209_" class="st12" x1="294" y1="179.2" x2="367.2" y2="179.2"/>
			<line id="XMLID_211_" class="st12" x1="150.9" y1="194.2" x2="116.5" y2="194.2"/>
			<line id="XMLID_212_" class="st12" x1="147.3" y1="189.4" x2="98.5" y2="189.4"/>
			<g id="XMLID_222_">
				<g id="XMLID_680_">
					<line id="XMLID_683_" class="st12" x1="138.4" y1="83.4" x2="140.9" y2="83.4"/>
					<line id="XMLID_682_" class="st15" x1="142.9" y1="83.4" x2="177.3" y2="83.4"/>
					<line id="XMLID_681_" class="st12" x1="178.3" y1="83.4" x2="180.8" y2="83.4"/>
				</g>
			</g>
			<g id="XMLID_267_">
				<g id="XMLID_675_">
					<line id="XMLID_678_" class="st12" x1="375.1" y1="153.5" x2="377.6" y2="153.5"/>
					<line id="XMLID_677_" class="st16" x1="379.4" y1="153.5" x2="403.8" y2="153.5"/>
					<line id="XMLID_676_" class="st12" x1="404.7" y1="153.5" x2="407.2" y2="153.5"/>
				</g>
			</g>
			<g id="XMLID_227_">
				<g id="XMLID_670_">
					<line id="XMLID_673_" class="st12" x1="211.5" y1="195.4" x2="214" y2="195.4"/>
					<line id="XMLID_672_" class="st15" x1="216.1" y1="195.4" x2="250.5" y2="195.4"/>
					<line id="XMLID_671_" class="st12" x1="251.5" y1="195.4" x2="254" y2="195.4"/>
				</g>
			</g>
			<g id="XMLID_228_">
				<g id="XMLID_665_">
					<line id="XMLID_668_" class="st12" x1="309.4" y1="195.4" x2="311.9" y2="195.4"/>
					<line id="XMLID_667_" class="st15" x1="313.9" y1="195.4" x2="348.3" y2="195.4"/>
					<line id="XMLID_666_" class="st12" x1="349.3" y1="195.4" x2="351.8" y2="195.4"/>
				</g>
			</g>
		</g>
	</g>
	<g>
		<path class="st14" d="M178.9,222.4v3.8h-1.7v-10.5h3.2c1.2,0,2.1,0.3,2.8,0.8s1,1.4,1,2.4s-0.3,1.9-1,2.5s-1.6,1-2.8,1H178.9z
			 M178.9,217.2v3.8h1.1c0.7,0,1.3-0.2,1.7-0.5s0.6-0.8,0.6-1.5c0-1.2-0.7-1.9-2.2-1.9L178.9,217.2L178.9,217.2z"/>
		<path class="st14" d="M191.1,226.2h-1.6V225l0,0c-0.5,0.9-1.3,1.3-2.3,1.3c-0.7,0-1.3-0.2-1.7-0.6c-0.4-0.4-0.6-0.9-0.6-1.6
			c0-1.4,0.8-2.2,2.4-2.5l2.2-0.3c0-1.1-0.5-1.6-1.5-1.6c-0.9,0-1.7,0.3-2.4,0.9v-1.3c0.8-0.5,1.7-0.7,2.7-0.7
			c1.9,0,2.8,0.9,2.8,2.8L191.1,226.2L191.1,226.2z M189.4,222.5l-1.6,0.2c-0.5,0.1-0.9,0.2-1.1,0.4c-0.2,0.2-0.4,0.5-0.4,0.9
			c0,0.3,0.1,0.6,0.3,0.8s0.5,0.3,0.9,0.3c0.5,0,0.9-0.2,1.3-0.5c0.3-0.4,0.5-0.8,0.5-1.4v-0.7H189.4z"/>
		<path class="st14" d="M192.6,226v-1.4c0.6,0.4,1.4,0.5,2.2,0.5c1.2,0,1.8-0.4,1.8-1.1s-0.7-1.1-2.1-1.1h-0.7v-1.2h0.7
			c1.3,0,1.9-0.3,1.9-1c0-0.3-0.1-0.5-0.4-0.7c-0.3-0.2-0.6-0.3-1.1-0.3c-0.7,0-1.4,0.2-2.1,0.5v-1.3c0.8-0.3,1.6-0.4,2.3-0.4
			c2,0,3,0.7,3,2c0,0.4-0.1,0.8-0.4,1.1c-0.3,0.3-0.7,0.5-1.2,0.6l0,0c0.6,0,1,0.2,1.4,0.6s0.5,0.7,0.5,1.2c0,0.7-0.3,1.2-0.9,1.6
			s-1.4,0.6-2.5,0.6S193.2,226.3,192.6,226z"/>
		<path class="st14" d="M201.8,225.1L201.8,225.1v4.6h-1.7v-10.9h1.7v1.3l0,0c0.6-1,1.4-1.5,2.5-1.5c1,0,1.7,0.3,2.2,1
			s0.8,1.6,0.8,2.7c0,1.3-0.3,2.3-0.9,3s-1.4,1.1-2.5,1.1C203,226.4,202.3,226,201.8,225.1z M201.7,222.2v0.9c0,0.5,0.2,1,0.5,1.4
			s0.8,0.6,1.3,0.6c0.6,0,1.1-0.2,1.5-0.7s0.5-1.2,0.5-2.1c0-0.7-0.2-1.3-0.5-1.7s-0.8-0.6-1.4-0.6c-0.6,0-1.1,0.2-1.5,0.6
			C201.9,221,201.7,221.5,201.7,222.2z"/>
		<path class="st14" d="M214.7,226.2h-1.6V225l0,0c-0.5,0.9-1.3,1.3-2.3,1.3c-0.7,0-1.3-0.2-1.7-0.6c-0.4-0.4-0.6-0.9-0.6-1.6
			c0-1.4,0.8-2.2,2.4-2.5l2.2-0.3c0-1.1-0.5-1.6-1.5-1.6c-0.9,0-1.7,0.3-2.4,0.9v-1.3c0.8-0.5,1.7-0.7,2.7-0.7
			c1.9,0,2.8,0.9,2.8,2.8L214.7,226.2L214.7,226.2z M213,222.5l-1.6,0.2c-0.5,0.1-0.9,0.2-1.1,0.4c-0.2,0.2-0.4,0.5-0.4,0.9
			c0,0.3,0.1,0.6,0.3,0.8s0.5,0.3,0.9,0.3c0.5,0,0.9-0.2,1.3-0.5c0.3-0.4,0.5-0.8,0.5-1.4v-0.7H213z"/>
		<path class="st14" d="M222.9,215v1.4c-0.2,0.1-0.5,0.2-0.9,0.3c-1.1,0.2-1.8,0.3-2.3,0.4c-0.4,0.1-0.8,0.4-1.1,0.9s-0.4,1.1-0.5,2
			l0,0c0.6-0.8,1.4-1.1,2.4-1.1s1.8,0.3,2.4,1c0.6,0.7,0.9,1.5,0.9,2.6c0,1.2-0.3,2.1-1,2.8s-1.6,1.1-2.7,1.1
			c-1.2,0-2.1-0.4-2.8-1.2s-1-2-1-3.5c0-1.2,0.1-2.2,0.4-3c0.2-0.8,0.6-1.4,1-1.9c0.4-0.4,0.9-0.7,1.4-0.9s1.4-0.3,2.7-0.5
			C222.3,215.3,222.7,215.1,222.9,215z M218.1,221.4v0.9c0,0.3,0.1,0.7,0.2,1s0.2,0.6,0.4,0.9c0.2,0.3,0.4,0.5,0.6,0.6
			c0.2,0.1,0.5,0.2,0.8,0.2c0.6,0,1.1-0.2,1.4-0.7c0.4-0.4,0.5-1,0.5-1.7s-0.2-1.3-0.6-1.8s-0.9-0.7-1.5-0.7
			C219.2,220.2,218.6,220.6,218.1,221.4z"/>
		<path class="st14" d="M229,226.4c-1.2,0-2.1-0.4-2.8-1.1c-0.7-0.7-1-1.6-1-2.8c0-1.3,0.4-2.2,1.1-3c0.7-0.7,1.7-1.1,2.9-1.1
			s2.1,0.3,2.7,1s1,1.6,1,2.9c0,1.2-0.4,2.2-1.1,2.9C231.1,226,230.2,226.4,229,226.4z M229,219.9c-0.7,0-1.2,0.2-1.6,0.7
			c-0.4,0.5-0.6,1.1-0.6,1.9c0,0.8,0.2,1.4,0.6,1.9c0.4,0.5,0.9,0.7,1.6,0.7c0.7,0,1.2-0.2,1.5-0.7c0.4-0.4,0.5-1.1,0.5-1.9
			c0-0.8-0.2-1.5-0.5-1.9C230.2,220.1,229.7,219.9,229,219.9z"/>
		<path class="st14" d="M239.5,220.1h-2.1v6.1h-1.7v-6.1h-2.2v-1.4h6V220.1z"/>
		<path class="st14" d="M247.6,226.2h-2.2l-2.9-3.7l0,0v3.7h-1.7v-7.5h1.7v3.4l0,0l2.8-3.4h2.1l-3.1,3.6L247.6,226.2z"/>
		<path class="st14" d="M254.4,226.2h-1.6V225l0,0c-0.5,0.9-1.3,1.3-2.3,1.3c-0.7,0-1.3-0.2-1.7-0.6c-0.4-0.4-0.6-0.9-0.6-1.6
			c0-1.4,0.8-2.2,2.4-2.5l2.2-0.3c0-1.1-0.5-1.6-1.5-1.6c-0.9,0-1.7,0.3-2.4,0.9v-1.3c0.8-0.5,1.7-0.7,2.7-0.7
			c1.9,0,2.8,0.9,2.8,2.8L254.4,226.2L254.4,226.2z M252.8,222.5l-1.6,0.2c-0.5,0.1-0.9,0.2-1.1,0.4c-0.2,0.2-0.4,0.5-0.4,0.9
			c0,0.3,0.1,0.6,0.3,0.8s0.5,0.3,0.9,0.3c0.5,0,0.9-0.2,1.3-0.5c0.3-0.4,0.5-0.8,0.5-1.4v-0.7H252.8z"/>
		<path class="st14" d="M273.9,215.7l-2.9,10.5h-2l-2-7.3c-0.1-0.3-0.1-0.7-0.2-1l0,0c0,0.3-0.1,0.7-0.2,1l-2,7.4h-2l-2.9-10.5h1.9
			l1.9,7.7c0.1,0.3,0.1,0.7,0.1,1l0,0c0-0.2,0.1-0.6,0.2-1l2.2-7.7h1.8l2,7.7c0.1,0.3,0.1,0.6,0.2,0.9l0,0c0-0.2,0.1-0.6,0.2-1
			l1.9-7.7L273.9,215.7L273.9,215.7z"/>
		<path class="st14" d="M281.2,226.2h-5.9v-10.5h5.7v1.5h-3.9v3h3.6v1.5h-3.6v3.1h4.2L281.2,226.2L281.2,226.2z"/>
		<path class="st14" d="M283.1,226.2v-10.5h3.3c1,0,1.8,0.2,2.4,0.7c0.6,0.4,0.9,1,0.9,1.7c0,0.6-0.2,1.1-0.5,1.6s-0.8,0.8-1.4,0.9
			l0,0c0.7,0.1,1.3,0.4,1.7,0.8c0.4,0.5,0.6,1,0.6,1.8c0,0.9-0.4,1.6-1.1,2.2s-1.6,0.8-2.7,0.8H283.1z M284.8,217.1v3h1.1
			c0.6,0,1.1-0.1,1.4-0.4c0.3-0.3,0.5-0.7,0.5-1.2c0-0.9-0.6-1.3-1.8-1.3h-1.2L284.8,217.1L284.8,217.1z M284.8,221.5v3.3h1.5
			c0.6,0,1.2-0.2,1.5-0.5c0.4-0.3,0.5-0.7,0.5-1.2c0-1.1-0.8-1.6-2.3-1.6H284.8z"/>
		<path class="st14" d="M295.9,222.8h-4v-1.3h4V222.8z"/>
		<path class="st14" d="M304.6,226.2h-1.7V220h-3.3v6.2h-1.7v-7.5h6.7V226.2z"/>
		<path class="st14" d="M308.6,225.1L308.6,225.1v4.6h-1.7v-10.9h1.7v1.3l0,0c0.6-1,1.4-1.5,2.5-1.5c1,0,1.7,0.3,2.2,1
			s0.8,1.6,0.8,2.7c0,1.3-0.3,2.3-0.9,3c-0.6,0.8-1.4,1.1-2.5,1.1C309.8,226.4,309.1,226,308.6,225.1z M308.5,222.2v0.9
			c0,0.5,0.2,1,0.5,1.4s0.8,0.6,1.3,0.6c0.6,0,1.1-0.2,1.5-0.7c0.4-0.5,0.5-1.2,0.5-2.1c0-0.7-0.2-1.3-0.5-1.7s-0.8-0.6-1.4-0.6
			c-0.6,0-1.1,0.2-1.5,0.6C308.7,221,308.5,221.5,308.5,222.2z"/>
		<path class="st14" d="M322.7,226.2h-1.5v-5.5c-0.1,0.2-0.2,0.5-0.4,0.8l-3.2,4.7h-1.7v-7.5h1.6v5.4c0.1-0.1,0.2-0.3,0.3-0.7
			l3.2-4.7h1.7V226.2z"/>
		<path class="st14" d="M331.1,226.2h-1.7V220h-1.5c-0.2,2.3-0.6,3.9-1.1,4.9c-0.5,0.9-1.2,1.4-2.1,1.4c-0.3,0-0.5,0-0.8-0.1v-1.3
			c0.2,0.1,0.4,0.1,0.5,0.1c1,0,1.7-2.1,2-6.3h4.6L331.1,226.2L331.1,226.2L331.1,226.2z"/>
		<path class="st14" d="M336.7,226.4c-1.2,0-2.1-0.4-2.8-1.1c-0.7-0.7-1-1.6-1-2.8c0-1.3,0.4-2.2,1.1-3c0.7-0.7,1.7-1.1,2.9-1.1
			s2.1,0.3,2.7,1c0.6,0.7,1,1.6,1,2.9c0,1.2-0.4,2.2-1.1,2.9C338.8,226,337.9,226.4,336.7,226.4z M336.8,219.9
			c-0.7,0-1.2,0.2-1.6,0.7c-0.4,0.5-0.6,1.1-0.6,1.9c0,0.8,0.2,1.4,0.6,1.9c0.4,0.5,0.9,0.7,1.6,0.7s1.2-0.2,1.5-0.7
			c0.4-0.4,0.5-1.1,0.5-1.9c0-0.8-0.2-1.5-0.5-1.9C337.9,220.1,337.4,219.9,336.8,219.9z"/>
		<path class="st14" d="M352.8,226.2h-2.1l-2.9-3.7l0,0v3.7h-1.7v-3.7l0,0l-2.9,3.7h-2.1l3.3-3.9l-3.2-3.6h2.1l2.8,3.5l0,0v-3.5h1.7
			v3.5l0,0l2.8-3.5h2.1l-3.2,3.6L352.8,226.2z"/>
		<path class="st14" d="M360,222.9h-5.1c0,0.7,0.2,1.2,0.6,1.6c0.4,0.4,1,0.6,1.7,0.6c0.8,0,1.5-0.2,2.2-0.7v1.4
			c-0.7,0.4-1.6,0.6-2.7,0.6c-1.1,0-2-0.3-2.6-1c-0.6-0.7-0.9-1.6-0.9-2.9c0-1.2,0.3-2.1,1-2.9c0.7-0.7,1.5-1.1,2.6-1.1
			c1.1,0,1.8,0.3,2.4,1c0.6,0.7,0.8,1.6,0.8,2.7V222.9z M358.3,221.7c0-0.6-0.1-1.1-0.4-1.4s-0.7-0.5-1.2-0.5s-0.9,0.2-1.2,0.5
			c-0.3,0.4-0.5,0.8-0.6,1.4H358.3z"/>
		<path class="st14" d="M368.3,226.2h-1.7v-3.3h-3.3v3.3h-1.7v-7.5h1.7v2.9h3.3v-2.9h1.7V226.2z"/>
		<path class="st14" d="M377.3,226.2h-1.5v-5.5c-0.1,0.2-0.2,0.5-0.4,0.8l-3.2,4.7h-1.7v-7.5h1.6v5.4c0.1-0.1,0.2-0.3,0.3-0.7
			l3.2-4.7h1.7V226.2z"/>
		<path class="st14" d="M386.3,226.2h-1.5v-5.5c-0.1,0.2-0.2,0.5-0.4,0.8l-3.2,4.7h-1.7v-7.5h1.6v5.4c0.1-0.1,0.2-0.3,0.3-0.7
			l3.2-4.7h1.7V226.2z M385.9,215.1c-0.1,0.7-0.4,1.3-0.9,1.7s-1.2,0.6-2,0.6s-1.5-0.2-2-0.6c-0.5-0.4-0.8-1-0.8-1.7h1.4
			c0.1,0.9,0.5,1.3,1.4,1.3c0.4,0,0.7-0.1,1-0.4c0.3-0.2,0.4-0.6,0.5-1L385.9,215.1L385.9,215.1z"/>
	</g>
</g>
</svg>
